<?xml version="1.0" encoding="UTF-8" standalone="no"?>
<!-- Generator: Adobe Illustrator 19.2.0, SVG Export Plug-In . SVG Version: 6.00 Build 0)  -->

<svg
   xmlns:dc="http://purl.org/dc/elements/1.1/"
   xmlns:cc="http://creativecommons.org/ns#"
   xmlns:rdf="http://www.w3.org/1999/02/22-rdf-syntax-ns#"
   xmlns:svg="http://www.w3.org/2000/svg"
   xmlns="http://www.w3.org/2000/svg"
   xmlns:sodipodi="http://sodipodi.sourceforge.net/DTD/sodipodi-0.dtd"
   xmlns:inkscape="http://www.inkscape.org/namespaces/inkscape"
   version="1.1"
   id="Layer_1"
   x="0px"
   y="0px"
   viewBox="0 0 1230 318"
   xml:space="preserve"
   sodipodi:docname="start-up-RVB-DE.svg"
   width="1230"
   height="318"
   inkscape:version="0.92.4 (5da689c313, 2019-01-14)"
   inkscape:export-filename="C:\Users\fabie\Pictures\start-up-RVB-de.png"
   inkscape:export-xdpi="96"
   inkscape:export-ydpi="96"><metadata
   id="metadata611"><rdf:RDF><cc:Work
       rdf:about=""><dc:format>image/svg+xml</dc:format><dc:type
         rdf:resource="http://purl.org/dc/dcmitype/StillImage" /><dc:title></dc:title></cc:Work></rdf:RDF></metadata><defs
   id="defs609" /><sodipodi:namedview
   pagecolor="#ffffff"
   bordercolor="#666666"
   borderopacity="1"
   objecttolerance="10"
   gridtolerance="10"
   guidetolerance="10"
   inkscape:pageopacity="0"
   inkscape:pageshadow="2"
   inkscape:window-width="3840"
   inkscape:window-height="2097"
   id="namedview607"
   showgrid="false"
   inkscape:zoom="1.3635823"
   inkscape:cx="729.99689"
   inkscape:cy="-227.64191"
   inkscape:window-x="1912"
   inkscape:window-y="-8"
   inkscape:window-maximized="1"
   inkscape:current-layer="g168" />
<style
   type="text/css"
   id="style2">
	.st0{fill:#0066B1;}
	.st1{fill:#FFD400;}
	.st2{fill:#002042;}
	.st3{fill:#004E87;}
	.st4{fill:#1D1D1B;}
	.st5{fill:none;stroke:#828281;stroke-width:2.1352;stroke-miterlimit:10;}
	.st6{display:none;}
	.st7{display:inline;fill:#0066B1;}
	.st8{display:inline;}
	.st9{display:inline;fill:none;stroke:#828281;stroke-width:2.1352;stroke-miterlimit:10;}
	.st10{display:inline;fill:#FFD400;}
	.st11{fill:none;stroke:#FFD400;stroke-width:2.1352;stroke-miterlimit:10;}
	.st12{fill:none;stroke:#FFD400;stroke-width:1.7083;stroke-miterlimit:10;}
</style>
<g
   id="g168">
	<path
   class="st0"
   d="m 246.1,192.7 v 0 l -12.8,-22.1 14.6,14.8 C 261.9,134.3 240.4,78.3 192.4,50.6 180.8,43.9 168.5,39.3 156,36.9 l 7.9,13.7 0.8,0.4 c 42.2,24.4 49.4,91 16.1,149.2 l -16.6,28.6 v 0 l -6.9,11.9 -18.8,32.4 -23.1,39.7 h 200.2 z"
   id="path4"
   inkscape:connector-curvature="0"
   style="fill:#0066b1" />
	<path
   class="st1"
   d="m 39.5,153.7 c 0,-2.7 0.1,-5.5 0.3,-8.1 17.5,-30.8 59.5,-53.1 109.7,-53.1 14.1,0 27.3,2.1 41,5.1 L 174,68.8 c 3.8,1.8 7.4,3.8 10.8,6.1 19.7,30.4 18.7,79.5 -7.2,124.3 -7,12.2 -18.7,32.8 -18.7,32.8 0,0 -1.3,2.2 -3.1,5.3 C 125.3,230.6 92.1,206.4 71.1,170.1 64.1,157.9 59.3,145.4 55,132 l -15.3,26.6 c -0.1,-1.6 -0.2,-3.3 -0.2,-4.9"
   id="path6"
   inkscape:connector-curvature="0"
   style="fill:#ffd400" />
	<path
   class="st0"
   d="m 27.7,178.5 v -0.7 c 0,-48.9 54.6,-88.6 121.9,-88.6 11.9,0 23.5,1.2 34.4,3.6 L 160.8,52.6 157.9,47.7 151.2,36 132.8,4.2 114.5,36 103,55.4 108.7,37 C 54.3,48.2 13.5,96.3 13.5,153.9 c 0,13.4 2.2,26.3 6.3,38.3 z"
   id="path8"
   inkscape:connector-curvature="0"
   style="fill:#0066b1" />
	<path
   class="st0"
   d="m 154.2,240.1 c -31.9,-6.7 -64.6,-31.3 -86,-68.4 -6,-10.3 -10.7,-20.9 -14.1,-31.5 l -22.9,39.8 -3.1,5.3 -6.7,11.6 -18.3,31.8 h 36.6 l 22.6,0.2 -18.8,4.2 c 23.5,26.4 57.2,40.6 91.5,40 z"
   id="path10"
   inkscape:connector-curvature="0"
   style="fill:#0066b1" />
	<g
   id="g22">
		<g
   id="g20">
			<path
   class="st1"
   d="m 185.4,294 c 0.5,1.3 1.7,2.2 3.1,2.4 1.4,0.1 2.8,-0.6 3.5,-1.8 2.1,-3.6 5.4,-7.7 10.2,-9.5 -4.3,-9.4 -6.8,-17.8 -8.3,-24.6 -5.7,4 -15.6,14.4 -8.5,33.5 z"
   id="path12"
   inkscape:connector-curvature="0"
   style="fill:#ffd400" />
			<path
   class="st1"
   d="m 237.3,260.4 c -1.5,6.8 -4,15.2 -8.3,24.6 4.7,1.9 8,5.9 10.1,9.5 0.7,1.2 2.1,1.9 3.5,1.8 1.4,-0.1 2.6,-1.1 3.1,-2.4 7,-18.9 -2.8,-29.3 -8.4,-33.5 z"
   id="path14"
   inkscape:connector-curvature="0"
   style="fill:#ffd400" />
			<path
   class="st1"
   d="m 235.6,241.9 c 0.2,-20.9 -11.2,-35 -17.1,-40.7 -0.9,-0.9 -2.1,-1.4 -3.3,-1.3 -1.2,0 -2.4,0.5 -3.3,1.4 -5.7,5.8 -16.6,19.8 -16.4,40.7 0,0 -1,19.3 12.1,45.8 h 7.9 0.3 7.9 c 13,-26.6 11.9,-45.9 11.9,-45.9 z M 210.3,225 c -0.2,0.3 -3.6,6.1 -2.2,15.4 0.3,2.1 -1.1,4 -3.2,4.3 -0.2,0 -0.4,0 -0.6,0 -1.8,0 -3.5,-1.3 -3.7,-3.2 -1.9,-12.2 3.1,-20.2 3.3,-20.5 1.1,-1.8 3.5,-2.3 5.2,-1.2 1.8,1.1 2.3,3.4 1.2,5.2 z m 3.4,-17.9 c 2.3,0 4.2,1.9 4.2,4.2 0,2.3 -1.9,4.2 -4.2,4.2 -2.3,0 -4.2,-1.9 -4.2,-4.2 0,-2.3 1.8,-4.2 4.2,-4.2 z"
   id="path16"
   inkscape:connector-curvature="0"
   style="fill:#ffd400" />
			<rect
   x="204.3"
   y="292.10001"
   class="st1"
   width="22.799999"
   height="6.9000001"
   id="rect18"
   style="fill:#ffd400" />
		</g>
	</g>
	<g
   id="g36">
		<g
   id="g34">
			<path
   class="st2"
   d="m 299.8,75.1 c -6.6,0 -11.6,-1.8 -15.1,-5.4 -3.4,-3.6 -5.1,-8.7 -5.1,-15.4 0,-6.7 1.8,-11.9 5.5,-15.6 3.7,-3.7 8.9,-5.5 15.8,-5.5 4.7,0 9.1,1 13.3,3.1 L 310,46.6 c -1.7,-0.7 -3.3,-1.3 -4.7,-1.8 -1.4,-0.4 -2.9,-0.7 -4.5,-0.7 -2.3,0 -4,0.9 -5.3,2.7 -1.2,1.8 -1.9,4.2 -1.9,7.5 0,6.5 2.4,9.7 7.2,9.7 4.1,0 8,-1.2 11.8,-3.6 v 11.1 c -3.4,2.5 -7.8,3.6 -12.8,3.6 z"
   id="path24"
   inkscape:connector-curvature="0"
   style="fill:#002042" />
			<path
   class="st2"
   d="M 347.2,74.4 344.5,69 h -0.3 c -1.9,2.3 -3.8,3.9 -5.8,4.8 -2,0.9 -4.5,1.3 -7.6,1.3 -3.8,0 -6.8,-1.1 -9,-3.4 -2.2,-2.3 -3.3,-5.5 -3.3,-9.6 0,-4.3 1.5,-7.5 4.5,-9.6 3,-2.1 7.3,-3.3 13.1,-3.6 l 6.8,-0.2 v -0.6 c 0,-3.3 -1.6,-5 -4.9,-5 -3,0 -6.7,1 -11.3,3 l -4,-9.2 c 4.7,-2.4 10.7,-3.6 17.9,-3.6 5.2,0 9.2,1.3 12.1,3.9 2.8,2.6 4.3,6.2 4.3,10.8 v 26.6 h -9.8 z m -10.4,-9.1 c 1.7,0 3.1,-0.5 4.3,-1.6 1.2,-1.1 1.8,-2.5 1.8,-4.2 v -3.1 l -3.2,0.1 c -4.6,0.2 -6.9,1.9 -6.9,5.1 0.1,2.4 1.4,3.7 4,3.7 z"
   id="path26"
   inkscape:connector-curvature="0"
   style="fill:#002042" />
			<path
   class="st2"
   d="m 396.8,62 c 0,4.3 -1.5,7.6 -4.4,9.8 -3,2.2 -7.2,3.3 -12.7,3.3 -3,0 -5.6,-0.2 -7.8,-0.5 -2.2,-0.3 -4.5,-0.9 -6.8,-1.8 V 61.7 c 2.2,0.9 4.5,1.7 7.1,2.4 2.6,0.6 4.9,0.9 6.9,0.9 3,0 4.5,-0.7 4.5,-2.1 0,-0.7 -0.4,-1.3 -1.3,-1.9 -0.8,-0.6 -3.3,-1.7 -7.4,-3.3 -3.7,-1.5 -6.3,-3.3 -7.8,-5.2 -1.5,-1.9 -2.2,-4.4 -2.2,-7.4 0,-3.8 1.5,-6.7 4.4,-8.8 2.9,-2.1 7,-3.1 12.3,-3.1 2.7,0 5.2,0.3 7.5,0.9 2.4,0.6 4.8,1.4 7.3,2.5 l -3.8,9 c -1.9,-0.8 -3.8,-1.5 -5.9,-2.1 -2.1,-0.6 -3.8,-0.9 -5.1,-0.9 -2.3,0 -3.4,0.6 -3.4,1.7 0,0.7 0.4,1.3 1.2,1.8 0.8,0.5 3.1,1.5 6.9,3 2.8,1.2 4.9,2.3 6.3,3.4 1.4,1.1 2.4,2.4 3.1,3.9 0.8,1.6 1.1,3.4 1.1,5.6 z"
   id="path28"
   inkscape:connector-curvature="0"
   style="fill:#002042" />
			<path
   class="st2"
   d="m 423.2,75.1 c -6.7,0 -12,-1.8 -15.7,-5.4 -3.7,-3.6 -5.6,-8.7 -5.6,-15.3 0,-6.8 1.7,-12.1 5.2,-15.7 3.5,-3.7 8.4,-5.5 14.8,-5.5 6.1,0 10.8,1.6 14.1,4.8 3.3,3.2 5,7.8 5,13.7 V 58 h -25 c 0.1,2.3 0.9,4 2.5,5.3 1.6,1.3 3.7,1.9 6.4,1.9 2.5,0 4.7,-0.2 6.8,-0.7 2.1,-0.5 4.3,-1.3 6.7,-2.4 v 10 c -2.2,1.1 -4.5,1.9 -6.8,2.3 -2.4,0.5 -5.2,0.7 -8.4,0.7 z m -0.8,-32.4 c -1.6,0 -3,0.5 -4.1,1.6 -1.1,1 -1.8,2.7 -2,4.9 h 12 c 0,-2 -0.6,-3.5 -1.7,-4.7 -1,-1.2 -2.4,-1.8 -4.2,-1.8 z"
   id="path30"
   inkscape:connector-curvature="0"
   style="fill:#002042" />
			<path
   class="st2"
   d="m 479.3,62 c 0,4.3 -1.5,7.6 -4.4,9.8 -3,2.2 -7.2,3.3 -12.7,3.3 -3,0 -5.6,-0.2 -7.8,-0.5 -2.2,-0.3 -4.5,-0.9 -6.8,-1.8 V 61.7 c 2.2,0.9 4.5,1.7 7.1,2.4 2.6,0.6 4.9,0.9 6.9,0.9 3,0 4.5,-0.7 4.5,-2.1 0,-0.7 -0.4,-1.3 -1.3,-1.9 -0.8,-0.6 -3.3,-1.7 -7.4,-3.3 -3.7,-1.5 -6.3,-3.3 -7.8,-5.2 -1.5,-1.9 -2.2,-4.4 -2.2,-7.4 0,-3.8 1.4,-6.7 4.4,-8.8 2.9,-2.1 7,-3.1 12.3,-3.1 2.7,0 5.2,0.3 7.5,0.9 2.3,0.6 4.8,1.4 7.3,2.5 l -3.8,9 c -1.9,-0.8 -3.8,-1.5 -5.9,-2.1 -2.1,-0.6 -3.8,-0.9 -5.1,-0.9 -2.3,0 -3.4,0.6 -3.4,1.7 0,0.7 0.4,1.3 1.2,1.8 0.8,0.5 3.1,1.5 6.9,3 2.8,1.2 5,2.3 6.3,3.4 1.4,1.1 2.4,2.4 3.1,3.9 0.8,1.6 1.1,3.4 1.1,5.6 z"
   id="path32"
   inkscape:connector-curvature="0"
   style="fill:#002042" />
		</g>
	</g>
	
	
	<line
   class="st5"
   x1="283.89999"
   y1="213.60001"
   x2="1187.5806"
   y2="213.60001"
   id="line166"
   style="fill:none;stroke:#828281;stroke-width:2.73098421;stroke-miterlimit:10" />
<flowRoot
   xml:space="preserve"
   id="flowRoot613"
   style="font-style:normal;font-weight:normal;font-size:40px;line-height:1.25;font-family:sans-serif;letter-spacing:0px;word-spacing:0px;fill:#000000;fill-opacity:1;stroke:none"><flowRegion
     id="flowRegion615"><rect
       id="rect617"
       width="90.203575"
       height="140.80557"
       x="236.87605"
       y="19.521507" /></flowRegion><flowPara
     id="flowPara619">CybersecurityFit 4 </flowPara></flowRoot><flowRoot
   xml:space="preserve"
   id="flowRoot635"
   style="font-style:normal;font-weight:normal;font-size:40px;line-height:1.25;font-family:sans-serif;letter-spacing:0px;word-spacing:0px;fill:#000000;fill-opacity:1;stroke:none"
   transform="translate(9.067422,63.402354)"><flowRegion
     id="flowRegion637"><rect
       id="rect639"
       width="963.63818"
       height="181.14052"
       x="261.81036"
       y="9.2544336" /></flowRegion><flowPara
     style="font-style:normal;font-variant:normal;font-weight:bold;font-stretch:normal;font-size:113.33333588px;font-family:Gadugi;-inkscape-font-specification:'Gadugi Bold';letter-spacing:-1.41999996px;word-spacing:0px;fill:#004e87;fill-opacity:1"
     id="flowPara653">Fit4Cybersecurity</flowPara></flowRoot><flowRoot
   xml:space="preserve"
   id="flowRoot5166"
   style="font-style:normal;font-weight:normal;font-size:34.66666794px;line-height:1.10000002;font-family:sans-serif;letter-spacing:0px;word-spacing:0px;fill:#000000;fill-opacity:1;stroke:none"
   transform="translate(-5.1335368,-3.4667248)"><flowRegion
     id="flowRegion5168"
     style="font-size:34.66666794px;line-height:1.10000002"><rect
       id="rect5170"
       width="812.56543"
       height="84.336678"
       x="330.74643"
       y="232.92996"
       style="font-size:34.66666794px;line-height:1.10000002" /></flowRegion><flowPara
     style="font-style:normal;font-variant:normal;font-weight:normal;font-stretch:normal;font-size:34.66666794px;line-height:1.10000002;font-family:Gadugi;-inkscape-font-specification:Gadugi;text-align:center;text-anchor:middle"
     id="flowPara1078">Das Wesentliche für einen guten Start in die Informationsicherheit</flowPara><flowPara
     style="font-style:normal;font-variant:normal;font-weight:normal;font-stretch:normal;font-size:34.66666794px;line-height:1.10000002;font-family:Gadugi;-inkscape-font-specification:Gadugi;text-align:center;text-anchor:middle"
     id="flowPara1082">Informationen</flowPara></flowRoot></g>
<g
   class="st6"
   id="g330"
   style="display:none">
	<path
   class="st7"
   d="m 244.3,189.7 v 0 l -11,-19 14.6,14.8 C 261.9,134.4 240.4,78.4 192.4,50.7 180.8,44 168.5,39.4 156,37 l 7.9,13.7 0.8,0.4 c 42.2,24.4 49.4,91 16.1,149.2 l -16.6,28.6 v 0 l -6.9,11.9 -18.8,32.4 -23.1,39.7 h 200.2 z"
   id="path170"
   inkscape:connector-curvature="0"
   style="display:inline;fill:#0066b1" />
	<g
   class="st8"
   id="g184"
   style="display:inline">
		<g
   id="g182">
			<path
   class="st2"
   d="m 299.7,75.1 c -6.6,0 -11.6,-1.8 -15.1,-5.4 -3.4,-3.6 -5.1,-8.7 -5.1,-15.4 0,-6.7 1.8,-11.9 5.5,-15.6 3.7,-3.7 8.9,-5.5 15.8,-5.5 4.7,0 9.1,1 13.3,3.1 L 310,46.6 c -1.7,-0.7 -3.3,-1.3 -4.7,-1.8 -1.4,-0.4 -2.9,-0.7 -4.5,-0.7 -2.3,0 -4,0.9 -5.3,2.7 -1.2,1.8 -1.9,4.2 -1.9,7.5 0,6.5 2.4,9.7 7.2,9.7 4.1,0 8,-1.2 11.8,-3.6 v 11.1 c -3.5,2.5 -7.8,3.6 -12.9,3.6 z"
   id="path172"
   inkscape:connector-curvature="0"
   style="fill:#002042" />
			<path
   class="st2"
   d="M 347.1,74.4 344.4,69 h -0.3 c -1.9,2.3 -3.8,3.9 -5.8,4.8 -2,0.9 -4.5,1.3 -7.6,1.3 -3.8,0 -6.8,-1.1 -9,-3.4 -2.2,-2.3 -3.3,-5.5 -3.3,-9.6 0,-4.3 1.5,-7.5 4.5,-9.6 3,-2.1 7.3,-3.3 13.1,-3.6 l 6.8,-0.2 v -0.6 c 0,-3.3 -1.6,-5 -4.9,-5 -3,0 -6.7,1 -11.3,3 l -4,-9.2 c 4.7,-2.4 10.7,-3.6 17.9,-3.6 5.2,0 9.2,1.3 12.1,3.9 2.8,2.6 4.3,6.2 4.3,10.8 v 26.6 h -9.8 z m -10.3,-9.1 c 1.7,0 3.1,-0.5 4.3,-1.6 1.2,-1.1 1.8,-2.5 1.8,-4.2 v -3.1 l -3.2,0.1 c -4.6,0.2 -6.9,1.9 -6.9,5.1 0,2.4 1.3,3.7 4,3.7 z"
   id="path174"
   inkscape:connector-curvature="0"
   style="fill:#002042" />
			<path
   class="st2"
   d="m 396.7,62 c 0,4.3 -1.5,7.6 -4.4,9.8 -3,2.2 -7.2,3.3 -12.7,3.3 -3,0 -5.6,-0.2 -7.8,-0.5 -2.2,-0.3 -4.5,-0.9 -6.8,-1.8 V 61.7 c 2.2,0.9 4.5,1.7 7.1,2.4 2.6,0.6 4.9,0.9 6.9,0.9 3,0 4.5,-0.7 4.5,-2.1 0,-0.7 -0.4,-1.3 -1.3,-1.9 -0.8,-0.6 -3.3,-1.7 -7.4,-3.3 -3.7,-1.5 -6.3,-3.3 -7.8,-5.2 -1.5,-1.9 -2.2,-4.4 -2.2,-7.4 0,-3.8 1.5,-6.7 4.4,-8.8 2.9,-2.1 7,-3.1 12.3,-3.1 2.7,0 5.2,0.3 7.5,0.9 2.4,0.6 4.8,1.4 7.3,2.5 l -3.8,9 c -1.9,-0.8 -3.8,-1.5 -5.9,-2.1 -2.1,-0.6 -3.8,-0.9 -5.1,-0.9 -2.3,0 -3.4,0.6 -3.4,1.7 0,0.7 0.4,1.3 1.2,1.8 0.8,0.5 3.1,1.5 6.9,3 2.8,1.2 4.9,2.3 6.3,3.4 1.4,1.1 2.4,2.4 3.1,3.9 0.8,1.6 1.1,3.4 1.1,5.6 z"
   id="path176"
   inkscape:connector-curvature="0"
   style="fill:#002042" />
			<path
   class="st2"
   d="m 423.1,75.1 c -6.7,0 -12,-1.8 -15.7,-5.4 -3.7,-3.6 -5.6,-8.7 -5.6,-15.3 0,-6.8 1.7,-12.1 5.2,-15.7 3.5,-3.7 8.4,-5.5 14.8,-5.5 6.1,0 10.8,1.6 14.1,4.8 3.3,3.2 5,7.8 5,13.7 V 58 h -25 c 0.1,2.3 0.9,4 2.5,5.3 1.6,1.3 3.7,1.9 6.4,1.9 2.5,0 4.7,-0.2 6.8,-0.7 2.1,-0.5 4.3,-1.3 6.7,-2.4 v 10 c -2.2,1.1 -4.5,1.9 -6.8,2.3 -2.3,0.5 -5.1,0.7 -8.4,0.7 z m -0.8,-32.4 c -1.6,0 -3,0.5 -4.1,1.6 -1.1,1 -1.8,2.7 -2,4.9 h 12 c 0,-2 -0.6,-3.5 -1.7,-4.7 -1,-1.2 -2.4,-1.8 -4.2,-1.8 z"
   id="path178"
   inkscape:connector-curvature="0"
   style="fill:#002042" />
			<path
   class="st2"
   d="m 479.2,62 c 0,4.3 -1.5,7.6 -4.4,9.8 -3,2.2 -7.2,3.3 -12.7,3.3 -3,0 -5.6,-0.2 -7.8,-0.5 -2.2,-0.3 -4.5,-0.9 -6.8,-1.8 V 61.7 c 2.2,0.9 4.5,1.7 7.1,2.4 2.6,0.6 4.9,0.9 6.9,0.9 3,0 4.5,-0.7 4.5,-2.1 0,-0.7 -0.4,-1.3 -1.3,-1.9 -0.8,-0.6 -3.3,-1.7 -7.4,-3.3 -3.7,-1.5 -6.3,-3.3 -7.8,-5.2 -1.5,-1.9 -2.2,-4.4 -2.2,-7.4 0,-3.8 1.4,-6.7 4.4,-8.8 2.9,-2.1 7,-3.1 12.3,-3.1 2.7,0 5.2,0.3 7.5,0.9 2.3,0.6 4.8,1.4 7.3,2.5 l -3.8,9 c -1.9,-0.8 -3.8,-1.5 -5.9,-2.1 -2.1,-0.6 -3.8,-0.9 -5.1,-0.9 -2.3,0 -3.4,0.6 -3.4,1.7 0,0.7 0.4,1.3 1.2,1.8 0.8,0.5 3.1,1.5 6.9,3 2.8,1.2 5,2.3 6.3,3.4 1.4,1.1 2.4,2.4 3.1,3.9 0.8,1.6 1.1,3.4 1.1,5.6 z"
   id="path180"
   inkscape:connector-curvature="0"
   style="fill:#002042" />
		</g>
	</g>
	<g
   class="st8"
   id="g204"
   style="display:inline">
		<g
   id="g202">
			<path
   class="st3"
   d="m 303.4,106.5 h -22 V 90.9 h 63.1 v 15.6 H 322 V 173 h -18.6 z"
   id="path186"
   inkscape:connector-curvature="0"
   style="fill:#004e87" />
			<path
   class="st3"
   d="m 344,133 c 0,-8.8 -0.2,-14.5 -0.5,-19.6 h 15.9 l 0.6,11 h 0.5 c 3,-8.6 10.3,-12.3 16.1,-12.3 1.7,0 2.6,0 3.9,0.2 v 17.4 c -1.3,-0.2 -2.9,-0.5 -5,-0.5 -6.8,0 -11.4,3.7 -12.7,9.4 -0.2,1.2 -0.4,2.7 -0.4,4.1 v 30.2 H 344 Z"
   id="path188"
   inkscape:connector-curvature="0"
   style="fill:#004e87" />
			<path
   class="st3"
   d="m 419.7,172.9 -1.1,-6 h -0.4 c -3.9,4.7 -10,7.3 -17,7.3 -12.1,0 -19.2,-8.8 -19.2,-18.3 0,-15.5 13.9,-22.9 34.9,-22.8 v -0.9 c 0,-3.2 -1.7,-7.7 -10.8,-7.7 -6.1,0 -12.5,2.1 -16.4,4.5 l -3.4,-11.9 c 4.1,-2.3 12.3,-5.2 23.1,-5.2 19.8,0 26.2,11.7 26.2,25.7 v 20.7 c 0,5.7 0.2,11.2 0.9,14.5 h -16.8 z m -2.2,-28.1 c -9.7,-0.1 -17.3,2.2 -17.3,9.4 0,4.7 3.2,7.1 7.3,7.1 4.6,0 8.4,-3 9.6,-6.8 0.2,-1 0.4,-2.1 0.4,-3.2 z"
   id="path190"
   inkscape:connector-curvature="0"
   style="fill:#004e87" />
			<path
   class="st3"
   d="m 466.2,96.8 c 0,5.1 -3.9,9.3 -10,9.3 -5.8,0 -9.7,-4.1 -9.6,-9.3 -0.1,-5.4 3.8,-9.4 9.7,-9.4 6,0.1 9.8,4.1 9.9,9.4 z m -19.1,76.1 v -59.5 h 18.5 v 59.5 z"
   id="path192"
   inkscape:connector-curvature="0"
   style="fill:#004e87" />
			<path
   class="st3"
   d="m 477.4,132.4 c 0,-7.4 -0.2,-13.8 -0.5,-19 H 493 l 0.9,8.2 h 0.4 c 2.4,-3.8 8.5,-9.5 18.4,-9.5 12.2,0 21.3,8 21.3,25.6 V 173 h -18.5 v -33 c 0,-7.7 -2.7,-12.9 -9.4,-12.9 -5.1,0 -8.2,3.5 -9.4,6.9 -0.5,1.1 -0.7,2.9 -0.7,4.6 v 34.3 h -18.5 v -40.5 z"
   id="path194"
   inkscape:connector-curvature="0"
   style="fill:#004e87" />
			<path
   class="st3"
   d="m 564.8,96.8 c 0,5.1 -3.9,9.3 -10,9.3 -5.8,0 -9.7,-4.1 -9.6,-9.3 -0.1,-5.4 3.8,-9.4 9.7,-9.4 6,0.1 9.8,4.1 9.9,9.4 z m -19.1,76.1 v -59.5 h 18.5 v 59.5 z"
   id="path196"
   inkscape:connector-curvature="0"
   style="fill:#004e87" />
			<path
   class="st3"
   d="m 576,132.4 c 0,-7.4 -0.2,-13.8 -0.5,-19 h 16.1 l 0.9,8.2 h 0.4 c 2.4,-3.8 8.5,-9.5 18.4,-9.5 12.2,0 21.3,8 21.3,25.6 V 173 H 614 v -33 c 0,-7.7 -2.7,-12.9 -9.4,-12.9 -5.1,0 -8.2,3.5 -9.4,6.9 -0.5,1.1 -0.7,2.9 -0.7,4.6 v 34.3 H 576 Z"
   id="path198"
   inkscape:connector-curvature="0"
   style="fill:#004e87" />
			<path
   class="st3"
   d="m 701.1,113.4 c -0.2,3.8 -0.5,8.8 -0.5,17.6 v 33.2 c 0,11.4 -2.3,20.8 -9,26.8 -6.6,5.6 -15.5,7.3 -24.2,7.3 -7.8,0 -16.1,-1.6 -21.4,-4.6 l 3.7,-14 c 3.8,2.2 10.3,4.5 17.3,4.5 8.8,0 15.5,-4.7 15.5,-15.7 v -3.9 h -0.2 c -3.5,5 -9.3,7.8 -16.1,7.8 -14.7,0 -25.2,-11.9 -25.2,-29.1 0,-19.1 12.4,-31.3 27,-31.3 8.2,0 13.3,3.5 16.3,8.4 h 0.2 l 0.6,-7.1 h 16 z m -19,24.2 c 0,-1.2 -0.1,-2.4 -0.4,-3.4 -1.3,-4.9 -4.9,-8.2 -10,-8.2 -6.7,0 -12.2,6.1 -12.2,16.9 0,8.9 4.4,15.8 12.2,15.8 4.7,0 8.5,-3.2 9.7,-7.5 0.5,-1.3 0.6,-3.3 0.6,-4.9 v -8.7 z"
   id="path200"
   inkscape:connector-curvature="0"
   style="fill:#004e87" />
		</g>
	</g>
	<g
   class="st8"
   id="g288"
   style="display:inline">
		<path
   class="st4"
   d="m 375.4,256.8 c 0,2 -0.7,3.6 -2.2,4.7 -1.5,1.1 -3.4,1.7 -5.9,1.7 -2.7,0 -4.8,-0.3 -6.3,-1 v -2.6 c 0.9,0.4 2,0.7 3.1,0.9 1.1,0.2 2.2,0.3 3.3,0.3 1.8,0 3.1,-0.3 4,-1 0.9,-0.7 1.3,-1.6 1.3,-2.8 0,-0.8 -0.2,-1.4 -0.5,-1.9 -0.3,-0.5 -0.8,-1 -1.6,-1.4 -0.7,-0.4 -1.9,-0.9 -3.4,-1.5 -2.1,-0.8 -3.6,-1.7 -4.6,-2.7 -0.9,-1 -1.4,-2.4 -1.4,-4.1 0,-1.8 0.7,-3.2 2,-4.2 1.3,-1 3.1,-1.6 5.3,-1.6 2.3,0 4.4,0.4 6.3,1.3 l -0.8,2.3 c -1.9,-0.8 -3.7,-1.2 -5.5,-1.2 -1.4,0 -2.5,0.3 -3.3,0.9 -0.8,0.6 -1.2,1.4 -1.2,2.5 0,0.8 0.1,1.4 0.4,1.9 0.3,0.5 0.8,1 1.5,1.4 0.7,0.4 1.8,0.9 3.2,1.4 2.4,0.9 4,1.8 4.9,2.8 0.9,1.1 1.4,2.4 1.4,3.9 z"
   id="path206"
   inkscape:connector-curvature="0"
   style="fill:#1d1d1b" />
		<path
   class="st4"
   d="m 386.9,263.2 c -2.5,0 -4.5,-0.8 -6,-2.3 -1.5,-1.5 -2.2,-3.7 -2.2,-6.4 0,-2.8 0.7,-5 2,-6.6 1.4,-1.6 3.2,-2.4 5.5,-2.4 2.1,0 3.8,0.7 5.1,2.1 1.3,1.4 1.9,3.3 1.9,5.6 v 1.6 h -11.8 c 0.1,2 0.6,3.5 1.5,4.6 1,1 2.3,1.6 4.1,1.6 1.8,0 3.7,-0.4 5.5,-1.2 v 2.3 c -0.9,0.4 -1.8,0.7 -2.6,0.9 -0.8,0.1 -1.8,0.2 -3,0.2 z m -0.7,-15.6 c -1.4,0 -2.5,0.4 -3.3,1.3 -0.8,0.9 -1.3,2.1 -1.4,3.7 h 9 c 0,-1.6 -0.4,-2.9 -1.1,-3.8 -0.8,-0.7 -1.8,-1.2 -3.2,-1.2 z"
   id="path208"
   inkscape:connector-curvature="0"
   style="fill:#1d1d1b" />
		<path
   class="st4"
   d="m 409.4,262.9 v -11.1 c 0,-1.4 -0.3,-2.4 -1,-3.1 -0.6,-0.7 -1.6,-1 -3,-1 -1.8,0 -3.1,0.5 -3.9,1.5 -0.8,1 -1.3,2.6 -1.3,4.8 v 9 h -2.6 v -17.1 h 2.1 l 0.4,2.3 h 0.1 c 0.5,-0.8 1.3,-1.5 2.2,-2 1,-0.5 2,-0.7 3.2,-0.7 2.1,0 3.6,0.5 4.7,1.5 1,1 1.6,2.6 1.6,4.8 V 263 h -2.5 z"
   id="path210"
   inkscape:connector-curvature="0"
   style="fill:#1d1d1b" />
		<path
   class="st4"
   d="m 428.3,258.2 c 0,1.6 -0.6,2.8 -1.8,3.7 -1.2,0.9 -2.9,1.3 -5,1.3 -2.3,0 -4,-0.4 -5.3,-1.1 v -2.4 c 0.8,0.4 1.7,0.7 2.7,1 0.9,0.2 1.9,0.4 2.7,0.4 1.4,0 2.4,-0.2 3.1,-0.6 0.7,-0.4 1.1,-1.1 1.1,-2 0,-0.7 -0.3,-1.2 -0.9,-1.7 -0.6,-0.5 -1.7,-1 -3.4,-1.7 -1.6,-0.6 -2.7,-1.1 -3.4,-1.6 -0.7,-0.4 -1.2,-0.9 -1.5,-1.5 -0.3,-0.6 -0.5,-1.2 -0.5,-2 0,-1.4 0.6,-2.5 1.7,-3.3 1.1,-0.8 2.7,-1.2 4.7,-1.2 1.8,0 3.6,0.4 5.4,1.1 l -0.9,2.1 c -1.7,-0.7 -3.3,-1.1 -4.7,-1.1 -1.2,0 -2.2,0.2 -2.8,0.6 -0.6,0.4 -0.9,0.9 -0.9,1.6 0,0.5 0.1,0.8 0.4,1.2 0.2,0.3 0.6,0.6 1.1,0.9 0.5,0.3 1.5,0.7 3,1.3 2,0.7 3.4,1.5 4.1,2.2 0.8,0.8 1.1,1.7 1.1,2.8 z"
   id="path212"
   inkscape:connector-curvature="0"
   style="fill:#1d1d1b" />
		<path
   class="st4"
   d="m 432.4,241.1 c 0,-0.6 0.1,-1 0.4,-1.3 0.3,-0.3 0.7,-0.4 1.1,-0.4 0.4,0 0.8,0.1 1.1,0.4 0.3,0.3 0.5,0.7 0.5,1.3 0,0.6 -0.2,1 -0.5,1.3 -0.3,0.3 -0.7,0.4 -1.1,0.4 -0.4,0 -0.8,-0.1 -1.1,-0.4 -0.3,-0.2 -0.4,-0.7 -0.4,-1.3 z m 2.8,21.8 h -2.6 v -17.1 h 2.6 z"
   id="path214"
   inkscape:connector-curvature="0"
   style="fill:#1d1d1b" />
		<path
   class="st4"
   d="m 448.6,245.5 c 2.3,0 4,0.8 5.2,2.3 1.2,1.5 1.9,3.7 1.9,6.5 0,2.8 -0.6,5 -1.9,6.6 -1.3,1.6 -3,2.3 -5.2,2.3 -1.1,0 -2.1,-0.2 -3.1,-0.6 -0.9,-0.4 -1.7,-1 -2.3,-1.9 H 443 l -0.5,2.2 h -1.9 v -24.3 h 2.6 v 5.9 c 0,1.3 0,2.5 -0.1,3.6 h 0.1 c 1.3,-1.7 3.1,-2.6 5.4,-2.6 z m -0.3,2.2 c -1.8,0 -3.1,0.5 -3.8,1.5 -0.8,1 -1.2,2.7 -1.2,5.1 0,2.4 0.4,4.1 1.2,5.2 0.8,1 2.1,1.6 3.9,1.6 1.6,0 2.8,-0.6 3.6,-1.7 0.8,-1.2 1.2,-2.8 1.2,-5 0,-2.2 -0.4,-3.9 -1.2,-5 -0.8,-1.1 -2.1,-1.7 -3.7,-1.7 z"
   id="path216"
   inkscape:connector-curvature="0"
   style="fill:#1d1d1b" />
		<path
   class="st4"
   d="m 460.1,241.1 c 0,-0.6 0.1,-1 0.4,-1.3 0.3,-0.3 0.7,-0.4 1.1,-0.4 0.4,0 0.8,0.1 1.1,0.4 0.3,0.3 0.5,0.7 0.5,1.3 0,0.6 -0.2,1 -0.5,1.3 -0.3,0.3 -0.7,0.4 -1.1,0.4 -0.4,0 -0.8,-0.1 -1.1,-0.4 -0.3,-0.2 -0.4,-0.7 -0.4,-1.3 z m 2.8,21.8 h -2.6 v -17.1 h 2.6 z"
   id="path218"
   inkscape:connector-curvature="0"
   style="fill:#1d1d1b" />
		<path
   class="st4"
   d="m 471,262.9 h -2.6 v -24.3 h 2.6 z"
   id="path220"
   inkscape:connector-curvature="0"
   style="fill:#1d1d1b" />
		<path
   class="st4"
   d="m 476.3,241.1 c 0,-0.6 0.1,-1 0.4,-1.3 0.3,-0.3 0.7,-0.4 1.1,-0.4 0.4,0 0.8,0.1 1.1,0.4 0.3,0.3 0.5,0.7 0.5,1.3 0,0.6 -0.2,1 -0.5,1.3 -0.3,0.3 -0.7,0.4 -1.1,0.4 -0.4,0 -0.8,-0.1 -1.1,-0.4 -0.3,-0.2 -0.4,-0.7 -0.4,-1.3 z m 2.8,21.8 h -2.6 v -17.1 h 2.6 z"
   id="path222"
   inkscape:connector-curvature="0"
   style="fill:#1d1d1b" />
		<path
   class="st4"
   d="m 495.7,258.2 c 0,1.6 -0.6,2.8 -1.8,3.7 -1.2,0.9 -2.9,1.3 -5,1.3 -2.3,0 -4,-0.4 -5.3,-1.1 v -2.4 c 0.8,0.4 1.7,0.7 2.7,1 0.9,0.2 1.9,0.4 2.7,0.4 1.4,0 2.4,-0.2 3.1,-0.6 0.7,-0.4 1.1,-1.1 1.1,-2 0,-0.7 -0.3,-1.2 -0.9,-1.7 -0.6,-0.5 -1.7,-1 -3.4,-1.7 -1.6,-0.6 -2.7,-1.1 -3.4,-1.6 -0.7,-0.4 -1.2,-0.9 -1.5,-1.5 -0.3,-0.6 -0.5,-1.2 -0.5,-2 0,-1.4 0.6,-2.5 1.7,-3.3 1.1,-0.8 2.7,-1.2 4.7,-1.2 1.8,0 3.6,0.4 5.4,1.1 l -0.9,2.1 c -1.7,-0.7 -3.3,-1.1 -4.7,-1.1 -1.2,0 -2.2,0.2 -2.8,0.6 -0.6,0.4 -0.9,0.9 -0.9,1.6 0,0.5 0.1,0.8 0.4,1.2 0.2,0.3 0.6,0.6 1.1,0.9 0.5,0.3 1.5,0.7 3,1.3 2,0.7 3.4,1.5 4.1,2.2 0.7,0.8 1.1,1.7 1.1,2.8 z"
   id="path224"
   inkscape:connector-curvature="0"
   style="fill:#1d1d1b" />
		<path
   class="st4"
   d="m 510.4,262.9 -0.5,-2.4 h -0.1 c -0.9,1.1 -1.7,1.8 -2.6,2.2 -0.9,0.4 -1.9,0.6 -3.2,0.6 -1.7,0 -3,-0.4 -4,-1.3 -1,-0.9 -1.4,-2.1 -1.4,-3.7 0,-3.5 2.8,-5.3 8.3,-5.4 l 2.9,-0.1 v -1.1 c 0,-1.3 -0.3,-2.3 -0.9,-3 -0.6,-0.6 -1.5,-1 -2.8,-1 -1.4,0 -3,0.4 -4.8,1.3 l -0.8,-2 c 0.8,-0.5 1.8,-0.8 2.8,-1.1 1,-0.3 2,-0.4 3,-0.4 2,0 3.6,0.5 4.5,1.4 1,0.9 1.5,2.4 1.5,4.4 V 263 h -1.9 z m -5.8,-1.8 c 1.6,0 2.9,-0.4 3.8,-1.3 0.9,-0.9 1.4,-2.1 1.4,-3.7 v -1.5 l -2.6,0.1 c -2.1,0.1 -3.6,0.4 -4.5,1 -0.9,0.6 -1.4,1.5 -1.4,2.7 0,0.9 0.3,1.7 0.9,2.1 0.5,0.3 1.3,0.6 2.4,0.6 z"
   id="path226"
   inkscape:connector-curvature="0"
   style="fill:#1d1d1b" />
		<path
   class="st4"
   d="m 523.2,261.1 c 0.5,0 0.9,0 1.3,-0.1 0.4,-0.1 0.8,-0.1 1,-0.2 v 2 c -0.3,0.1 -0.7,0.2 -1.2,0.3 -0.5,0.1 -1,0.1 -1.5,0.1 -3.3,0 -5,-1.7 -5,-5.2 v -10.2 h -2.5 v -1.3 l 2.5,-1.1 1.1,-3.7 h 1.5 v 4 h 5 v 2 h -5 v 10.1 c 0,1 0.2,1.8 0.7,2.4 0.6,0.6 1.3,0.9 2.1,0.9 z"
   id="path228"
   inkscape:connector-curvature="0"
   style="fill:#1d1d1b" />
		<path
   class="st4"
   d="m 528.8,241.1 c 0,-0.6 0.1,-1 0.4,-1.3 0.3,-0.3 0.7,-0.4 1.1,-0.4 0.4,0 0.8,0.1 1.1,0.4 0.3,0.3 0.5,0.7 0.5,1.3 0,0.6 -0.2,1 -0.5,1.3 -0.3,0.3 -0.7,0.4 -1.1,0.4 -0.4,0 -0.8,-0.1 -1.1,-0.4 -0.3,-0.2 -0.4,-0.7 -0.4,-1.3 z m 2.8,21.8 H 529 v -17.1 h 2.6 z"
   id="path230"
   inkscape:connector-curvature="0"
   style="fill:#1d1d1b" />
		<path
   class="st4"
   d="m 551.9,254.3 c 0,2.8 -0.7,5 -2.1,6.5 -1.4,1.6 -3.4,2.4 -5.8,2.4 -1.5,0 -2.9,-0.4 -4.1,-1.1 -1.2,-0.7 -2.1,-1.8 -2.8,-3.1 -0.6,-1.3 -1,-2.9 -1,-4.7 0,-2.8 0.7,-5 2.1,-6.5 1.4,-1.6 3.3,-2.3 5.8,-2.3 2.4,0 4.3,0.8 5.7,2.4 1.5,1.6 2.2,3.7 2.2,6.4 z m -13.1,0 c 0,2.2 0.4,3.9 1.3,5 0.9,1.1 2.2,1.7 3.9,1.7 1.7,0 3,-0.6 3.9,-1.7 0.9,-1.1 1.3,-2.8 1.3,-5 0,-2.2 -0.4,-3.8 -1.3,-5 -0.9,-1.1 -2.2,-1.7 -3.9,-1.7 -1.7,0 -3,0.6 -3.8,1.7 -0.9,1.2 -1.4,2.8 -1.4,5 z"
   id="path232"
   inkscape:connector-curvature="0"
   style="fill:#1d1d1b" />
		<path
   class="st4"
   d="m 568.2,262.9 v -11.1 c 0,-1.4 -0.3,-2.4 -1,-3.1 -0.6,-0.7 -1.6,-1 -3,-1 -1.8,0 -3.1,0.5 -3.9,1.5 -0.8,1 -1.3,2.6 -1.3,4.8 v 9 h -2.6 v -17.1 h 2.1 l 0.4,2.3 h 0.1 c 0.5,-0.8 1.3,-1.5 2.2,-2 1,-0.5 2,-0.7 3.2,-0.7 2.1,0 3.6,0.5 4.7,1.5 1,1 1.6,2.6 1.6,4.8 V 263 h -2.5 z"
   id="path234"
   inkscape:connector-curvature="0"
   style="fill:#1d1d1b" />
		<path
   class="st4"
   d="m 595,262.9 -0.5,-2.4 h -0.1 c -0.9,1.1 -1.7,1.8 -2.6,2.2 -0.9,0.4 -1.9,0.6 -3.2,0.6 -1.7,0 -3,-0.4 -4,-1.3 -1,-0.9 -1.4,-2.1 -1.4,-3.7 0,-3.5 2.8,-5.3 8.3,-5.4 l 2.9,-0.1 v -1.1 c 0,-1.3 -0.3,-2.3 -0.9,-3 -0.6,-0.6 -1.5,-1 -2.8,-1 -1.4,0 -3,0.4 -4.8,1.3 l -0.8,-2 c 0.8,-0.5 1.8,-0.8 2.8,-1.1 1,-0.3 2,-0.4 3,-0.4 2,0 3.6,0.5 4.5,1.4 1,0.9 1.5,2.4 1.5,4.4 V 263 H 595 Z m -5.9,-1.8 c 1.6,0 2.9,-0.4 3.8,-1.3 0.9,-0.9 1.4,-2.1 1.4,-3.7 v -1.5 l -2.6,0.1 c -2.1,0.1 -3.6,0.4 -4.5,1 -0.9,0.6 -1.4,1.5 -1.4,2.7 0,0.9 0.3,1.7 0.9,2.1 0.6,0.3 1.4,0.6 2.4,0.6 z m 3.1,-17.6 h -1.7 c -0.7,-0.5 -1.5,-1.3 -2.4,-2.3 -0.9,-1 -1.6,-1.8 -2,-2.5 v -0.3 h 3.2 c 0.3,0.7 0.8,1.6 1.4,2.5 0.6,0.9 1.1,1.7 1.6,2.2 v 0.4 z"
   id="path236"
   inkscape:connector-curvature="0"
   style="fill:#1d1d1b" />
		<path
   class="st4"
   d="m 613.2,262.9 h -2.6 v -24.3 h 2.6 z"
   id="path238"
   inkscape:connector-curvature="0"
   style="fill:#1d1d1b" />
		<path
   class="st4"
   d="m 629.2,262.9 -0.5,-2.4 h -0.1 c -0.9,1.1 -1.7,1.8 -2.6,2.2 -0.8,0.4 -1.9,0.6 -3.2,0.6 -1.7,0 -3,-0.4 -4,-1.3 -1,-0.9 -1.4,-2.1 -1.4,-3.7 0,-3.5 2.8,-5.3 8.3,-5.4 l 2.9,-0.1 v -1.1 c 0,-1.3 -0.3,-2.3 -0.9,-3 -0.6,-0.6 -1.5,-1 -2.8,-1 -1.4,0 -3,0.4 -4.8,1.3 l -0.8,-2 c 0.8,-0.5 1.8,-0.8 2.8,-1.1 1,-0.3 2,-0.4 3,-0.4 2,0 3.6,0.5 4.5,1.4 1,0.9 1.5,2.4 1.5,4.4 V 263 h -1.9 z m -5.9,-1.8 c 1.6,0 2.9,-0.4 3.8,-1.3 0.9,-0.9 1.4,-2.1 1.4,-3.7 v -1.5 l -2.6,0.1 c -2.1,0.1 -3.6,0.4 -4.5,1 -0.9,0.6 -1.4,1.5 -1.4,2.7 0,0.9 0.3,1.7 0.9,2.1 0.6,0.3 1.4,0.6 2.4,0.6 z"
   id="path240"
   inkscape:connector-curvature="0"
   style="fill:#1d1d1b" />
		<path
   class="st4"
   d="m 655.8,258.2 c 0,1.6 -0.6,2.8 -1.8,3.7 -1.2,0.9 -2.9,1.3 -5,1.3 -2.3,0 -4,-0.4 -5.3,-1.1 v -2.4 c 0.8,0.4 1.7,0.7 2.7,1 0.9,0.2 1.9,0.4 2.7,0.4 1.4,0 2.4,-0.2 3.1,-0.6 0.7,-0.4 1.1,-1.1 1.1,-2 0,-0.7 -0.3,-1.2 -0.9,-1.7 -0.6,-0.5 -1.7,-1 -3.4,-1.7 -1.6,-0.6 -2.7,-1.1 -3.4,-1.6 -0.7,-0.4 -1.2,-0.9 -1.5,-1.5 -0.3,-0.6 -0.5,-1.2 -0.5,-2 0,-1.4 0.6,-2.5 1.7,-3.3 1.1,-0.8 2.7,-1.2 4.7,-1.2 1.8,0 3.6,0.4 5.4,1.1 l -0.9,2.1 c -1.7,-0.7 -3.3,-1.1 -4.7,-1.1 -1.2,0 -2.2,0.2 -2.8,0.6 -0.6,0.4 -0.9,0.9 -0.9,1.6 0,0.5 0.1,0.8 0.4,1.2 0.2,0.3 0.6,0.6 1.1,0.9 0.5,0.3 1.5,0.7 3,1.3 2,0.7 3.4,1.5 4.1,2.2 0.8,0.8 1.1,1.7 1.1,2.8 z"
   id="path242"
   inkscape:connector-curvature="0"
   style="fill:#1d1d1b" />
		<path
   class="st4"
   d="m 667.3,263.2 c -2.5,0 -4.5,-0.8 -6,-2.3 -1.5,-1.5 -2.2,-3.7 -2.2,-6.4 0,-2.8 0.7,-5 2,-6.6 1.4,-1.6 3.2,-2.4 5.5,-2.4 2.1,0 3.8,0.7 5.1,2.1 1.3,1.4 1.9,3.3 1.9,5.6 v 1.6 h -11.8 c 0.1,2 0.6,3.5 1.5,4.6 1,1 2.3,1.6 4.1,1.6 1.8,0 3.7,-0.4 5.5,-1.2 v 2.3 c -0.9,0.4 -1.8,0.7 -2.6,0.9 -0.8,0.1 -1.8,0.2 -3,0.2 z m -0.7,-15.6 c -1.4,0 -2.5,0.4 -3.3,1.3 -0.8,0.9 -1.3,2.1 -1.4,3.7 h 9 c 0,-1.6 -0.4,-2.9 -1.1,-3.8 -0.8,-0.7 -1.8,-1.2 -3.2,-1.2 z m -1.9,-4.5 c 0.5,-0.6 1,-1.4 1.6,-2.3 0.6,-0.9 1,-1.7 1.4,-2.4 h 3.2 v 0.3 c -0.5,0.7 -1.1,1.5 -2,2.5 -0.9,1 -1.7,1.8 -2.4,2.3 h -1.7 v -0.4 z"
   id="path244"
   inkscape:connector-curvature="0"
   style="fill:#1d1d1b" />
		<path
   class="st4"
   d="m 684.9,263.2 c -2.5,0 -4.4,-0.8 -5.8,-2.3 -1.4,-1.5 -2,-3.7 -2,-6.5 0,-2.9 0.7,-5.1 2.1,-6.6 1.4,-1.6 3.3,-2.3 5.9,-2.3 0.8,0 1.6,0.1 2.5,0.3 0.8,0.2 1.5,0.4 1.9,0.6 l -0.8,2.2 c -0.6,-0.2 -1.2,-0.4 -1.9,-0.6 -0.7,-0.2 -1.3,-0.2 -1.8,-0.2 -3.5,0 -5.2,2.2 -5.2,6.7 0,2.1 0.4,3.7 1.3,4.8 0.8,1.1 2.1,1.7 3.8,1.7 1.4,0 2.9,-0.3 4.4,-0.9 v 2.3 c -1.2,0.5 -2.7,0.8 -4.4,0.8 z"
   id="path246"
   inkscape:connector-curvature="0"
   style="fill:#1d1d1b" />
		<path
   class="st4"
   d="m 695.7,245.8 v 11.1 c 0,1.4 0.3,2.4 1,3.1 0.6,0.7 1.6,1 3,1 1.8,0 3.1,-0.5 3.9,-1.5 0.8,-1 1.2,-2.6 1.2,-4.8 v -9 h 2.6 v 17.1 h -2.1 l -0.4,-2.3 h -0.1 c -0.5,0.8 -1.3,1.5 -2.2,1.9 -0.9,0.4 -2,0.7 -3.2,0.7 -2.1,0 -3.6,-0.5 -4.7,-1.5 -1,-1 -1.6,-2.6 -1.6,-4.8 v -11.2 h 2.6 z"
   id="path248"
   inkscape:connector-curvature="0"
   style="fill:#1d1d1b" />
		<path
   class="st4"
   d="m 720.8,245.5 c 0.8,0 1.4,0.1 2,0.2 l -0.4,2.4 c -0.7,-0.2 -1.3,-0.2 -1.9,-0.2 -1.4,0 -2.6,0.6 -3.6,1.7 -1,1.1 -1.5,2.5 -1.5,4.2 v 9.2 h -2.6 v -17.1 h 2.1 l 0.3,3.2 h 0.1 c 0.6,-1.1 1.4,-2 2.3,-2.6 1.1,-0.7 2.1,-1 3.2,-1 z"
   id="path250"
   inkscape:connector-curvature="0"
   style="fill:#1d1d1b" />
		<path
   class="st4"
   d="m 725.8,241.1 c 0,-0.6 0.1,-1 0.4,-1.3 0.3,-0.3 0.7,-0.4 1.1,-0.4 0.4,0 0.8,0.1 1.1,0.4 0.3,0.3 0.5,0.7 0.5,1.3 0,0.6 -0.2,1 -0.5,1.3 -0.3,0.3 -0.7,0.4 -1.1,0.4 -0.4,0 -0.8,-0.1 -1.1,-0.4 -0.3,-0.2 -0.4,-0.7 -0.4,-1.3 z m 2.8,21.8 H 726 v -17.1 h 2.6 z"
   id="path252"
   inkscape:connector-curvature="0"
   style="fill:#1d1d1b" />
		<path
   class="st4"
   d="m 739.7,261.1 c 0.5,0 0.9,0 1.3,-0.1 0.4,-0.1 0.8,-0.1 1,-0.2 v 2 c -0.3,0.1 -0.7,0.2 -1.2,0.3 -0.5,0.1 -1,0.1 -1.5,0.1 -3.3,0 -5,-1.7 -5,-5.2 v -10.2 h -2.5 v -1.3 l 2.5,-1.1 1.1,-3.7 h 1.5 v 4 h 5 v 2 h -5 v 10.1 c 0,1 0.2,1.8 0.7,2.4 0.5,0.6 1.2,0.9 2.1,0.9 z"
   id="path254"
   inkscape:connector-curvature="0"
   style="fill:#1d1d1b" />
		<path
   class="st4"
   d="m 752.7,263.2 c -2.5,0 -4.5,-0.8 -6,-2.3 -1.5,-1.5 -2.2,-3.7 -2.2,-6.4 0,-2.8 0.7,-5 2,-6.6 1.4,-1.6 3.2,-2.4 5.5,-2.4 2.1,0 3.8,0.7 5.1,2.1 1.3,1.4 1.9,3.3 1.9,5.6 v 1.6 h -11.8 c 0.1,2 0.6,3.5 1.5,4.6 1,1 2.3,1.6 4.1,1.6 1.8,0 3.7,-0.4 5.5,-1.2 v 2.3 c -0.9,0.4 -1.8,0.7 -2.6,0.9 -0.9,0.1 -1.9,0.2 -3,0.2 z M 752,247.6 c -1.4,0 -2.5,0.4 -3.3,1.3 -0.8,0.9 -1.3,2.1 -1.4,3.7 h 9 c 0,-1.6 -0.4,-2.9 -1.1,-3.8 -0.8,-0.7 -1.9,-1.2 -3.2,-1.2 z m -2,-4.5 c 0.5,-0.6 1,-1.4 1.6,-2.3 0.6,-0.9 1,-1.7 1.4,-2.4 h 3.2 v 0.3 c -0.5,0.7 -1.1,1.5 -2,2.5 -0.9,1 -1.7,1.8 -2.4,2.3 H 750 Z"
   id="path256"
   inkscape:connector-curvature="0"
   style="fill:#1d1d1b" />
		<path
   class="st4"
   d="M 456.2,299.1 H 456 c -1.2,1.7 -3,2.6 -5.4,2.6 -2.2,0 -4,-0.8 -5.2,-2.3 -1.2,-1.5 -1.9,-3.7 -1.9,-6.5 0,-2.8 0.6,-5 1.9,-6.6 1.3,-1.6 3,-2.3 5.2,-2.3 2.3,0 4.1,0.8 5.3,2.5 h 0.2 l -0.1,-1.2 v -1.3 -7 h 2.6 v 24.3 h -2.1 z m -5.2,0.4 c 1.8,0 3.1,-0.5 3.9,-1.4 0.8,-1 1.2,-2.5 1.2,-4.7 v -0.5 c 0,-2.4 -0.4,-4.2 -1.2,-5.2 -0.8,-1 -2.1,-1.6 -3.9,-1.6 -1.5,0 -2.7,0.6 -3.5,1.8 -0.8,1.2 -1.2,2.9 -1.2,5 0,2.2 0.4,3.8 1.2,5 0.7,1 1.9,1.6 3.5,1.6 z"
   id="path258"
   inkscape:connector-curvature="0"
   style="fill:#1d1d1b" />
		<path
   class="st4"
   d="m 471.4,301.7 c -2.5,0 -4.5,-0.8 -6,-2.3 -1.5,-1.5 -2.2,-3.7 -2.2,-6.4 0,-2.8 0.7,-5 2,-6.6 1.4,-1.6 3.2,-2.4 5.5,-2.4 2.1,0 3.8,0.7 5.1,2.1 1.3,1.4 1.9,3.3 1.9,5.6 v 1.6 h -11.8 c 0.1,2 0.6,3.5 1.5,4.6 1,1 2.3,1.6 4.1,1.6 1.8,0 3.7,-0.4 5.5,-1.2 v 2.3 c -0.9,0.4 -1.8,0.7 -2.6,0.9 -0.9,0.1 -1.9,0.2 -3,0.2 z m -0.7,-15.6 c -1.4,0 -2.5,0.4 -3.3,1.3 -0.8,0.9 -1.3,2.1 -1.4,3.7 h 9 c 0,-1.6 -0.4,-2.9 -1.1,-3.8 -0.9,-0.8 -1.9,-1.2 -3.2,-1.2 z"
   id="path260"
   inkscape:connector-curvature="0"
   style="fill:#1d1d1b" />
		<path
   class="st4"
   d="m 493,301.4 h -2.6 V 277 h 2.6 z"
   id="path262"
   inkscape:connector-curvature="0"
   style="fill:#1d1d1b" />
		<path
   class="st4"
   d="m 500.6,278.5 0.2,0.3 c -0.3,1 -0.7,2.3 -1.2,3.6 -0.5,1.4 -1,2.7 -1.6,3.9 h -1.9 c 0.7,-3 1.3,-5.6 1.6,-7.8 z"
   id="path264"
   inkscape:connector-curvature="0"
   style="fill:#1d1d1b" />
		<path
   class="st4"
   d="m 503.7,279.6 c 0,-0.6 0.1,-1 0.4,-1.3 0.3,-0.3 0.7,-0.4 1.1,-0.4 0.4,0 0.8,0.1 1.1,0.4 0.3,0.3 0.5,0.7 0.5,1.3 0,0.6 -0.2,1 -0.5,1.3 -0.3,0.3 -0.7,0.4 -1.1,0.4 -0.4,0 -0.8,-0.1 -1.1,-0.4 -0.2,-0.3 -0.4,-0.7 -0.4,-1.3 z m 2.8,21.8 h -2.6 v -17.1 h 2.6 z"
   id="path266"
   inkscape:connector-curvature="0"
   style="fill:#1d1d1b" />
		<path
   class="st4"
   d="m 523.8,301.4 v -11.1 c 0,-1.4 -0.3,-2.4 -1,-3.1 -0.6,-0.7 -1.6,-1 -3,-1 -1.8,0 -3.1,0.5 -3.9,1.5 -0.8,1 -1.3,2.6 -1.3,4.8 v 9 H 512 v -17.1 h 2.1 l 0.4,2.3 h 0.1 c 0.5,-0.8 1.3,-1.5 2.2,-2 1,-0.5 2,-0.7 3.2,-0.7 2.1,0 3.6,0.5 4.7,1.5 1,1 1.6,2.6 1.6,4.8 v 11.2 h -2.5 z"
   id="path268"
   inkscape:connector-curvature="0"
   style="fill:#1d1d1b" />
		<path
   class="st4"
   d="M 539.4,286.2 H 535 v 15.1 h -2.6 v -15.1 h -3.1 V 285 l 3.1,-0.9 v -1 c 0,-4.2 1.8,-6.3 5.5,-6.3 0.9,0 2,0.2 3.2,0.5 l -0.7,2.1 c -1,-0.3 -1.9,-0.5 -2.6,-0.5 -1,0 -1.7,0.3 -2.2,1 -0.5,0.7 -0.7,1.7 -0.7,3.1 v 1.1 h 4.4 v 2.1 z"
   id="path270"
   inkscape:connector-curvature="0"
   style="fill:#1d1d1b" />
		<path
   class="st4"
   d="m 557.4,292.8 c 0,2.8 -0.7,5 -2.1,6.5 -1.4,1.6 -3.4,2.4 -5.8,2.4 -1.5,0 -2.9,-0.4 -4.1,-1.1 -1.2,-0.7 -2.1,-1.8 -2.8,-3.1 -0.7,-1.3 -1,-2.9 -1,-4.7 0,-2.8 0.7,-5 2.1,-6.5 1.4,-1.6 3.3,-2.3 5.8,-2.3 2.4,0 4.3,0.8 5.7,2.4 1.4,1.5 2.2,3.6 2.2,6.4 z m -13.1,0 c 0,2.2 0.4,3.9 1.3,5 0.9,1.1 2.2,1.7 3.9,1.7 1.7,0 3,-0.6 3.9,-1.7 0.9,-1.1 1.3,-2.8 1.3,-5 0,-2.2 -0.4,-3.8 -1.3,-5 -0.9,-1.1 -2.2,-1.7 -3.9,-1.7 -1.7,0 -3,0.6 -3.8,1.7 -1,1.1 -1.4,2.8 -1.4,5 z"
   id="path272"
   inkscape:connector-curvature="0"
   style="fill:#1d1d1b" />
		<path
   class="st4"
   d="m 569.7,283.9 c 0.8,0 1.4,0.1 2,0.2 l -0.4,2.4 c -0.7,-0.2 -1.3,-0.2 -1.9,-0.2 -1.4,0 -2.6,0.6 -3.6,1.7 -1,1.1 -1.5,2.5 -1.5,4.2 v 9.2 h -2.6 v -17.1 h 2.1 l 0.3,3.2 h 0.1 c 0.6,-1.1 1.4,-2 2.3,-2.6 1.2,-0.7 2.1,-1 3.2,-1 z"
   id="path274"
   inkscape:connector-curvature="0"
   style="fill:#1d1d1b" />
		<path
   class="st4"
   d="m 596.8,301.4 v -11.2 c 0,-1.4 -0.3,-2.4 -0.9,-3.1 -0.6,-0.7 -1.5,-1 -2.7,-1 -1.6,0 -2.8,0.5 -3.6,1.4 -0.8,0.9 -1.2,2.4 -1.2,4.3 v 9.6 h -2.6 v -11.2 c 0,-1.4 -0.3,-2.4 -0.9,-3.1 -0.6,-0.7 -1.5,-1 -2.7,-1 -1.6,0 -2.8,0.5 -3.6,1.5 -0.8,1 -1.1,2.6 -1.1,4.8 v 9 H 575 v -17.1 h 2.1 l 0.4,2.3 h 0.1 c 0.5,-0.8 1.2,-1.5 2.1,-2 0.9,-0.5 1.9,-0.7 3,-0.7 2.7,0 4.4,1 5.3,2.9 h 0.1 c 0.5,-0.9 1.3,-1.6 2.2,-2.1 0.9,-0.5 2.1,-0.8 3.3,-0.8 1.9,0 3.4,0.5 4.4,1.5 1,1 1.4,2.6 1.4,4.8 v 11.2 z"
   id="path276"
   inkscape:connector-curvature="0"
   style="fill:#1d1d1b" />
		<path
   class="st4"
   d="m 615.3,301.4 -0.5,-2.4 h -0.1 c -0.9,1.1 -1.7,1.8 -2.6,2.2 -0.8,0.4 -1.9,0.6 -3.2,0.6 -1.7,0 -3,-0.4 -4,-1.3 -1,-0.9 -1.4,-2.1 -1.4,-3.7 0,-3.5 2.8,-5.3 8.3,-5.4 l 2.9,-0.1 V 290 c 0,-1.3 -0.3,-2.3 -0.9,-3 -0.6,-0.6 -1.5,-1 -2.8,-1 -1.4,0 -3,0.4 -4.8,1.3 l -0.8,-2 c 0.8,-0.5 1.8,-0.8 2.8,-1.1 1,-0.3 2,-0.4 3,-0.4 2,0 3.6,0.5 4.5,1.4 1,0.9 1.5,2.4 1.5,4.4 v 11.7 h -1.9 z m -5.9,-1.9 c 1.6,0 2.9,-0.4 3.8,-1.3 0.9,-0.9 1.4,-2.1 1.4,-3.7 V 293 H 612 c -2.1,0.1 -3.6,0.4 -4.5,1 -0.9,0.6 -1.4,1.5 -1.4,2.7 0,0.9 0.3,1.7 0.9,2.1 0.6,0.5 1.4,0.7 2.4,0.7 z"
   id="path278"
   inkscape:connector-curvature="0"
   style="fill:#1d1d1b" />
		<path
   class="st4"
   d="m 628.1,299.5 c 0.5,0 0.9,0 1.3,-0.1 0.4,-0.1 0.8,-0.1 1,-0.2 v 2 c -0.3,0.1 -0.7,0.2 -1.2,0.3 -0.5,0.1 -1,0.1 -1.5,0.1 -3.3,0 -5,-1.7 -5,-5.2 v -10.2 h -2.5 V 285 l 2.5,-1.1 1.1,-3.7 h 1.5 v 4 h 5 v 2 h -5 v 10.1 c 0,1 0.2,1.8 0.7,2.4 0.6,0.5 1.3,0.8 2.1,0.8 z"
   id="path280"
   inkscape:connector-curvature="0"
   style="fill:#1d1d1b" />
		<path
   class="st4"
   d="m 633.7,279.6 c 0,-0.6 0.1,-1 0.4,-1.3 0.3,-0.3 0.7,-0.4 1.1,-0.4 0.4,0 0.8,0.1 1.1,0.4 0.3,0.3 0.5,0.7 0.5,1.3 0,0.6 -0.2,1 -0.5,1.3 -0.3,0.3 -0.7,0.4 -1.1,0.4 -0.4,0 -0.8,-0.1 -1.1,-0.4 -0.3,-0.3 -0.4,-0.7 -0.4,-1.3 z m 2.8,21.8 h -2.6 v -17.1 h 2.6 z"
   id="path282"
   inkscape:connector-curvature="0"
   style="fill:#1d1d1b" />
		<path
   class="st4"
   d="m 656.8,292.8 c 0,2.8 -0.7,5 -2.1,6.5 -1.4,1.6 -3.4,2.4 -5.8,2.4 -1.5,0 -2.9,-0.4 -4.1,-1.1 -1.2,-0.7 -2.1,-1.8 -2.8,-3.1 -0.7,-1.3 -1,-2.9 -1,-4.7 0,-2.8 0.7,-5 2.1,-6.5 1.4,-1.6 3.3,-2.3 5.8,-2.3 2.4,0 4.3,0.8 5.7,2.4 1.5,1.5 2.2,3.6 2.2,6.4 z m -13.1,0 c 0,2.2 0.4,3.9 1.3,5 0.9,1.1 2.2,1.7 3.9,1.7 1.7,0 3,-0.6 3.9,-1.7 0.9,-1.1 1.3,-2.8 1.3,-5 0,-2.2 -0.4,-3.8 -1.3,-5 -0.9,-1.1 -2.2,-1.7 -3.9,-1.7 -1.7,0 -3,0.6 -3.8,1.7 -0.8,1.1 -1.4,2.8 -1.4,5 z"
   id="path284"
   inkscape:connector-curvature="0"
   style="fill:#1d1d1b" />
		<path
   class="st4"
   d="m 673.1,301.4 v -11.1 c 0,-1.4 -0.3,-2.4 -1,-3.1 -0.6,-0.7 -1.6,-1 -3,-1 -1.8,0 -3.1,0.5 -3.9,1.5 -0.8,1 -1.3,2.6 -1.3,4.8 v 9 h -2.6 v -17.1 h 2.1 l 0.4,2.3 h 0.1 c 0.5,-0.8 1.3,-1.5 2.2,-2 1,-0.5 2,-0.7 3.2,-0.7 2.1,0 3.6,0.5 4.7,1.5 1,1 1.6,2.6 1.6,4.8 v 11.2 h -2.5 z"
   id="path286"
   inkscape:connector-curvature="0"
   style="fill:#1d1d1b" />
	</g>
	<line
   class="st9"
   x1="283.79999"
   y1="213.60001"
   x2="836.20001"
   y2="213.60001"
   id="line290"
   style="display:inline;fill:none;stroke:#828281;stroke-width:2.13520002;stroke-miterlimit:10" />
	<path
   class="st10"
   d="m 39.5,153.7 c 0,-2.7 0.1,-5.5 0.3,-8.1 17.5,-30.8 59.5,-53.1 109.7,-53.1 14.1,0 27.3,2.1 41,5.1 L 173.9,68.9 c 3.8,1.8 7.4,3.8 10.8,6.1 19.7,30.4 18.7,79.5 -7.2,124.3 -7,12.2 -18.7,32.8 -18.7,32.8 0,0 -1.3,2.2 -3.1,5.3 C 125.2,230.7 92,206.5 71,170.2 64,157.9 59.2,145.4 54.9,132 l -15.3,26.6 c -0.1,-1.6 -0.1,-3.3 -0.1,-4.9"
   id="path292"
   inkscape:connector-curvature="0"
   style="display:inline;fill:#ffd400" />
	<path
   class="st7"
   d="m 27.6,178.5 v -0.7 c 0,-48.9 54.6,-88.6 121.9,-88.6 11.9,0 23.5,1.2 34.4,3.6 L 160.7,52.6 157.8,47.7 151.1,36 132.7,4.2 114.4,36 102.9,55.4 108.6,37 C 54.3,48.2 13.4,96.3 13.4,153.9 c 0,13.4 2.2,26.3 6.3,38.3 z"
   id="path294"
   inkscape:connector-curvature="0"
   style="display:inline;fill:#0066b1" />
	<path
   class="st7"
   d="M 154.1,240.1 C 122.2,233.4 89.5,208.8 68.1,171.7 62.1,161.4 57.4,150.8 54,140.2 L 31.1,180 28,185.3 21.3,196.9 3,228.7 h 36.6 l 22.6,0.2 -18.8,4.2 c 23.5,26.4 57.2,40.6 91.5,40 z"
   id="path296"
   inkscape:connector-curvature="0"
   style="display:inline;fill:#0066b1" />
	<g
   class="st8"
   id="g328"
   style="display:inline">
		<g
   id="g322">
			<path
   class="st1"
   d="m 238.7,217.5 h -56.6 c -1.2,0 -2.1,1 -2.1,2.1 v 80.2 c 0,1.2 1,2.1 2.1,2.1 h 56.6 c 1.2,0 2.1,-1 2.1,-2.1 v -80.2 c 0.1,-1.2 -0.9,-2.1 -2.1,-2.1 z m -2.1,80.2 h -52.3 v -75.9 h 52.3 z"
   id="path298"
   inkscape:connector-curvature="0"
   style="fill:#ffd400" />
			<rect
   x="189.5"
   y="226.8"
   class="st1"
   width="41.799999"
   height="2.0999999"
   id="rect300"
   style="fill:#ffd400" />
			<rect
   x="189.5"
   y="233.2"
   class="st1"
   width="41.799999"
   height="2.0999999"
   id="rect302"
   style="fill:#ffd400" />
			<rect
   x="189.5"
   y="239.5"
   class="st1"
   width="41.799999"
   height="2.0999999"
   id="rect304"
   style="fill:#ffd400" />
			<rect
   x="189.5"
   y="245.8"
   class="st1"
   width="41.799999"
   height="2.0999999"
   id="rect306"
   style="fill:#ffd400" />
			<rect
   x="189.5"
   y="252.10001"
   class="st1"
   width="41.799999"
   height="2.0999999"
   id="rect308"
   style="fill:#ffd400" />
			<rect
   x="189.5"
   y="258.5"
   class="st1"
   width="41.799999"
   height="2.0999999"
   id="rect310"
   style="fill:#ffd400" />
			<rect
   x="189.5"
   y="264.79999"
   class="st1"
   width="41.799999"
   height="2.0999999"
   id="rect312"
   style="fill:#ffd400" />
			<rect
   x="189.5"
   y="271.10001"
   class="st1"
   width="41.799999"
   height="2.0999999"
   id="rect314"
   style="fill:#ffd400" />
			<rect
   x="189.5"
   y="277.5"
   class="st1"
   width="41.799999"
   height="2.0999999"
   id="rect316"
   style="fill:#ffd400" />
			<rect
   x="189.5"
   y="283.79999"
   class="st1"
   width="41.799999"
   height="2.0999999"
   id="rect318"
   style="fill:#ffd400" />
			<rect
   x="189.5"
   y="290.10001"
   class="st1"
   width="41.799999"
   height="2.0999999"
   id="rect320"
   style="fill:#ffd400" />
		</g>
		<g
   id="g326">
			<path
   class="st1"
   d="m 248.7,292.6 v -41.7 h 9.6 v 41.7 z m 9.6,9.6 v -6.4 h -9.6 v 6.4 z m -0.9,-54.6 -3.9,-13.3 -3.9,13.3 z"
   id="path324"
   inkscape:connector-curvature="0"
   style="fill:#ffd400" />
		</g>
	</g>
</g>
<g
   class="st6"
   id="g458"
   style="display:none">
	<path
   class="st7"
   d="m 27.6,178.1 v -0.7 c 0,-48.9 54.6,-88.6 121.9,-88.6 11.9,0 23.5,1.2 34.4,3.6 L 160.7,52.2 157.8,47.3 151.1,35.7 132.7,3.9 114.4,35.6 102.9,55 108.6,36.6 c -54.3,11.2 -95.2,59.3 -95.2,117 0,13.4 2.2,26.3 6.3,38.3 z"
   id="path332"
   inkscape:connector-curvature="0"
   style="display:inline;fill:#0066b1" />
	<path
   class="st7"
   d="M 154.1,239.8 C 122.2,233.1 89.5,208.5 68.1,171.4 62.1,161.1 57.4,150.5 54,139.9 L 31.1,179.7 28,185 21.3,196.6 3,228.4 h 36.6 l 22.6,0.2 -18.8,4.2 c 23.5,26.4 57.2,40.6 91.5,40 z"
   id="path334"
   inkscape:connector-curvature="0"
   style="display:inline;fill:#0066b1" />
	<g
   class="st8"
   id="g348"
   style="display:inline">
		<g
   id="g346">
			<path
   class="st2"
   d="m 299.7,74.8 c -6.6,0 -11.6,-1.8 -15.1,-5.4 -3.4,-3.6 -5.1,-8.7 -5.1,-15.4 0,-6.7 1.8,-11.9 5.5,-15.6 3.7,-3.7 8.9,-5.5 15.8,-5.5 4.7,0 9.1,1 13.3,3.1 L 310,46.2 c -1.7,-0.7 -3.3,-1.3 -4.7,-1.8 -1.4,-0.4 -2.9,-0.7 -4.5,-0.7 -2.3,0 -4,0.9 -5.3,2.7 -1.2,1.8 -1.9,4.2 -1.9,7.5 0,6.5 2.4,9.7 7.2,9.7 4.1,0 8,-1.2 11.8,-3.6 v 11.1 c -3.5,2.5 -7.8,3.7 -12.9,3.7 z"
   id="path336"
   inkscape:connector-curvature="0"
   style="fill:#002042" />
			<path
   class="st2"
   d="m 347.1,74.1 -2.7,-5.4 h -0.3 c -1.9,2.3 -3.8,3.9 -5.8,4.8 -2,0.9 -4.5,1.3 -7.6,1.3 -3.8,0 -6.8,-1.1 -9,-3.4 -2.2,-2.3 -3.3,-5.5 -3.3,-9.6 0,-4.3 1.5,-7.5 4.5,-9.6 3,-2.1 7.3,-3.3 13.1,-3.6 l 6.8,-0.2 v -0.6 c 0,-3.3 -1.6,-5 -4.9,-5 -3,0 -6.7,1 -11.3,3 l -4,-9.2 c 4.7,-2.4 10.7,-3.6 17.9,-3.6 5.2,0 9.2,1.3 12.1,3.9 2.8,2.6 4.3,6.2 4.3,10.8 v 26.6 h -9.8 z m -10.3,-9.2 c 1.7,0 3.1,-0.5 4.3,-1.6 1.2,-1.1 1.8,-2.5 1.8,-4.2 V 56 l -3.2,0.1 c -4.6,0.2 -6.9,1.9 -6.9,5.1 0,2.5 1.3,3.7 4,3.7 z"
   id="path338"
   inkscape:connector-curvature="0"
   style="fill:#002042" />
			<path
   class="st2"
   d="m 396.7,61.6 c 0,4.3 -1.5,7.6 -4.4,9.8 -3,2.2 -7.2,3.3 -12.7,3.3 -3,0 -5.6,-0.2 -7.8,-0.5 -2.2,-0.3 -4.5,-0.9 -6.8,-1.8 V 61.3 c 2.2,0.9 4.5,1.7 7.1,2.4 2.6,0.6 4.9,0.9 6.9,0.9 3,0 4.5,-0.7 4.5,-2.1 0,-0.7 -0.4,-1.3 -1.3,-1.9 -0.8,-0.6 -3.3,-1.7 -7.4,-3.3 -3.7,-1.5 -6.3,-3.3 -7.8,-5.2 -1.5,-1.9 -2.2,-4.4 -2.2,-7.4 0,-3.8 1.5,-6.7 4.4,-8.8 2.9,-2.1 7,-3.1 12.3,-3.1 2.7,0 5.2,0.3 7.5,0.9 2.4,0.6 4.8,1.4 7.3,2.5 l -3.8,9 c -1.9,-0.8 -3.8,-1.5 -5.9,-2.1 -2.1,-0.6 -3.8,-0.9 -5.1,-0.9 -2.3,0 -3.4,0.6 -3.4,1.7 0,0.7 0.4,1.3 1.2,1.8 0.8,0.5 3.1,1.5 6.9,3 2.8,1.2 4.9,2.3 6.3,3.4 1.4,1.1 2.4,2.4 3.1,3.9 0.8,1.6 1.1,3.5 1.1,5.6 z"
   id="path340"
   inkscape:connector-curvature="0"
   style="fill:#002042" />
			<path
   class="st2"
   d="m 423.1,74.8 c -6.7,0 -12,-1.8 -15.7,-5.4 -3.7,-3.6 -5.6,-8.7 -5.6,-15.3 0,-6.8 1.7,-12.1 5.2,-15.7 3.5,-3.7 8.4,-5.5 14.8,-5.5 6.1,0 10.8,1.6 14.1,4.8 3.3,3.2 5,7.8 5,13.7 v 6.2 h -25 c 0.1,2.3 0.9,4 2.5,5.3 1.6,1.3 3.7,1.9 6.4,1.9 2.5,0 4.7,-0.2 6.8,-0.7 2.1,-0.5 4.3,-1.3 6.7,-2.4 v 10 c -2.2,1.1 -4.5,1.9 -6.8,2.3 -2.3,0.6 -5.1,0.8 -8.4,0.8 z m -0.8,-32.4 c -1.6,0 -3,0.5 -4.1,1.6 -1.1,1 -1.8,2.7 -2,4.9 h 12 c 0,-2 -0.6,-3.5 -1.7,-4.7 -1,-1.3 -2.4,-1.8 -4.2,-1.8 z"
   id="path342"
   inkscape:connector-curvature="0"
   style="fill:#002042" />
			<path
   class="st2"
   d="m 479.2,61.6 c 0,4.3 -1.5,7.6 -4.4,9.8 -3,2.2 -7.2,3.3 -12.7,3.3 -3,0 -5.6,-0.2 -7.8,-0.5 -2.2,-0.3 -4.5,-0.9 -6.8,-1.8 V 61.3 c 2.2,0.9 4.5,1.7 7.1,2.4 2.6,0.6 4.9,0.9 6.9,0.9 3,0 4.5,-0.7 4.5,-2.1 0,-0.7 -0.4,-1.3 -1.3,-1.9 -0.8,-0.6 -3.3,-1.7 -7.4,-3.3 -3.7,-1.5 -6.3,-3.3 -7.8,-5.2 -1.5,-1.9 -2.2,-4.4 -2.2,-7.4 0,-3.8 1.4,-6.7 4.4,-8.8 2.9,-2.1 7,-3.1 12.3,-3.1 2.7,0 5.2,0.3 7.5,0.9 2.3,0.6 4.8,1.4 7.3,2.5 l -3.8,9 c -1.9,-0.8 -3.8,-1.5 -5.9,-2.1 -2.1,-0.6 -3.8,-0.9 -5.1,-0.9 -2.3,0 -3.4,0.6 -3.4,1.7 0,0.7 0.4,1.3 1.2,1.8 0.8,0.5 3.1,1.5 6.9,3 2.8,1.2 5,2.3 6.3,3.4 1.4,1.1 2.4,2.4 3.1,3.9 0.8,1.6 1.1,3.5 1.1,5.6 z"
   id="path344"
   inkscape:connector-curvature="0"
   style="fill:#002042" />
		</g>
	</g>
	<g
   class="st8"
   id="g364"
   style="display:inline">
		<g
   id="g362">
			<path
   class="st3"
   d="m 356.9,141.1 c -0.4,-9.9 -0.7,-21.8 -0.7,-33.7 h -0.4 c -2.6,10.5 -6,22.2 -9.1,31.8 l -10,32 h -14.5 l -8.8,-31.8 c -2.7,-9.6 -5.5,-21.3 -7.4,-32 h -0.2 c -0.5,11.1 -0.9,23.7 -1.5,34 l -1.5,31.2 h -17.2 l 5.2,-82 h 24.7 l 8,27.4 c 2.6,9.5 5.1,19.7 6.9,29.3 h 0.4 c 2.3,-9.5 5.1,-20.3 7.8,-29.5 l 8.8,-27.3 h 24.2 l 4.5,82 H 358 Z"
   id="path350"
   inkscape:connector-curvature="0"
   style="fill:#004e87" />
			<path
   class="st3"
   d="m 462.6,130.7 c 0,26.9 -16.3,43.2 -40.3,43.2 -24.3,0 -38.6,-18.4 -38.6,-41.7 0,-24.6 15.7,-43 39.9,-43 25.2,0 39,18.8 39,41.5 z m -59.3,1.1 c 0,16.1 7.5,27.4 20,27.4 12.5,0 19.7,-11.9 19.7,-27.9 0,-14.7 -7.1,-27.4 -19.8,-27.4 -12.6,0 -19.9,11.9 -19.9,27.9 z"
   id="path352"
   inkscape:connector-curvature="0"
   style="fill:#004e87" />
			<path
   class="st3"
   d="m 471.7,172.5 v -82 h 21.7 l 17,30.1 c 4.9,8.6 9.7,18.9 13.4,28.1 h 0.4 c -1.2,-10.8 -1.6,-21.9 -1.6,-34.2 v -24 h 17 v 82 h -19.5 l -17.5,-31.6 c -4.9,-8.8 -10.2,-19.4 -14.2,-29 L 488,112 c 0.5,10.8 0.7,22.4 0.7,35.8 v 24.7 z"
   id="path354"
   inkscape:connector-curvature="0"
   style="fill:#004e87" />
			<path
   class="st3"
   d="m 571.7,151.5 -5.8,21.1 h -19.2 l 25.1,-82 h 24.3 l 25.4,82 h -20 l -6.3,-21.1 z m 20.8,-13.9 -5.1,-17.4 c -1.5,-4.9 -2.9,-11 -4.1,-15.8 h -0.2 c -1.2,4.9 -2.4,11.1 -3.8,15.8 l -4.9,17.4 z"
   id="path356"
   inkscape:connector-curvature="0"
   style="fill:#004e87" />
			<path
   class="st3"
   d="m 629.4,91.6 c 6,-1 14.9,-1.7 24.7,-1.7 12.2,0 20.7,1.8 26.5,6.5 4.9,3.9 7.5,9.6 7.5,17.2 0,10.5 -7.4,17.7 -14.5,20.2 v 0.4 c 5.7,2.3 8.9,7.8 11,15.3 2.6,9.3 5.1,20 6.7,23.1 h -19 c -1.3,-2.3 -3.3,-9 -5.7,-19.1 -2.2,-10.2 -5.7,-13 -13.3,-13.1 h -5.6 v 32.3 H 629.3 V 91.6 Z m 18.4,35.3 h 7.3 c 9.3,0 14.7,-4.6 14.7,-11.8 0,-7.5 -5.1,-11.3 -13.6,-11.4 -4.5,0 -7.1,0.4 -8.4,0.6 z"
   id="path358"
   inkscape:connector-curvature="0"
   style="fill:#004e87" />
			<path
   class="st3"
   d="m 758.3,170.2 c -3.4,1.7 -11.1,3.5 -21.1,3.5 -28.4,0 -43,-17.6 -43,-41 0,-28 20,-43.6 44.8,-43.6 9.6,0 16.9,1.9 20.2,3.7 l -3.8,14.7 c -3.8,-1.6 -9,-3 -15.6,-3 -14.7,0 -26.2,8.9 -26.2,27.1 0,16.4 9.7,26.8 26.3,26.8 5.6,0 11.8,-1.2 15.5,-2.7 z"
   id="path360"
   inkscape:connector-curvature="0"
   style="fill:#004e87" />
		</g>
	</g>
	<g
   class="st8"
   id="g442"
   style="display:inline">
		<path
   class="st4"
   d="m 346.8,250.6 h 7.8 v 11.1 c -1.2,0.4 -2.4,0.7 -3.7,0.9 -1.3,0.2 -2.7,0.3 -4.3,0.3 -3.5,0 -6.2,-1 -8.1,-3.1 -1.9,-2.1 -2.9,-4.9 -2.9,-8.7 0,-2.4 0.5,-4.5 1.4,-6.2 1,-1.8 2.3,-3.2 4.1,-4.1 1.8,-0.9 3.9,-1.4 6.3,-1.4 2.4,0 4.7,0.4 6.8,1.3 l -1,2.3 c -2.1,-0.9 -4,-1.3 -6,-1.3 -2.8,0 -5,0.8 -6.5,2.5 -1.6,1.7 -2.3,4 -2.3,6.9 0,3.1 0.8,5.4 2.3,7 1.5,1.6 3.7,2.4 6.6,2.4 1.6,0 3.1,-0.2 4.6,-0.5 v -7 h -5.1 z"
   id="path366"
   inkscape:connector-curvature="0"
   style="fill:#1d1d1b" />
		<path
   class="st4"
   d="m 374.5,254 c 0,2.8 -0.7,5 -2.1,6.5 -1.4,1.6 -3.4,2.4 -5.8,2.4 -1.5,0 -2.9,-0.4 -4.1,-1.1 -1.2,-0.7 -2.1,-1.8 -2.8,-3.1 -0.7,-1.3 -1,-2.9 -1,-4.7 0,-2.8 0.7,-5 2.1,-6.5 1.4,-1.6 3.3,-2.3 5.8,-2.3 2.4,0 4.3,0.8 5.7,2.4 1.5,1.5 2.2,3.6 2.2,6.4 z m -13.1,0 c 0,2.2 0.4,3.9 1.3,5 0.9,1.1 2.2,1.7 3.9,1.7 1.7,0 3,-0.6 3.9,-1.7 0.9,-1.1 1.3,-2.8 1.3,-5 0,-2.2 -0.4,-3.8 -1.3,-5 -0.9,-1.1 -2.2,-1.7 -3.9,-1.7 -1.7,0 -3,0.6 -3.8,1.7 -0.9,1.1 -1.4,2.7 -1.4,5 z"
   id="path368"
   inkscape:connector-curvature="0"
   style="fill:#1d1d1b" />
		<path
   class="st4"
   d="m 381.5,245.4 v 11.1 c 0,1.4 0.3,2.4 1,3.1 0.6,0.7 1.6,1 3,1 1.8,0 3.1,-0.5 3.9,-1.5 0.8,-1 1.2,-2.6 1.2,-4.8 v -9 h 2.6 v 17.1 H 391 l -0.4,-2.3 h -0.1 c -0.5,0.8 -1.3,1.5 -2.2,1.9 -0.9,0.4 -2,0.7 -3.2,0.7 -2.1,0 -3.6,-0.5 -4.7,-1.5 -1,-1 -1.6,-2.6 -1.6,-4.8 v -11.2 h 2.7 z"
   id="path370"
   inkscape:connector-curvature="0"
   style="fill:#1d1d1b" />
		<path
   class="st4"
   d="m 402.4,262.5 -6.5,-17.1 h 2.8 l 3.7,10.2 c 0.8,2.4 1.3,3.9 1.5,4.6 h 0.1 c 0.1,-0.6 0.5,-1.7 1.1,-3.4 0.6,-1.7 2,-5.5 4.1,-11.4 h 2.8 l -6.5,17.1 z"
   id="path372"
   inkscape:connector-curvature="0"
   style="fill:#1d1d1b" />
		<path
   class="st4"
   d="m 422,262.9 c -2.5,0 -4.5,-0.8 -6,-2.3 -1.5,-1.5 -2.2,-3.7 -2.2,-6.4 0,-2.8 0.7,-5 2,-6.6 1.4,-1.6 3.2,-2.4 5.5,-2.4 2.1,0 3.8,0.7 5.1,2.1 1.3,1.4 1.9,3.3 1.9,5.6 v 1.6 h -11.8 c 0.1,2 0.6,3.5 1.5,4.6 1,1 2.3,1.6 4.1,1.6 1.8,0 3.7,-0.4 5.5,-1.2 v 2.3 c -0.9,0.4 -1.8,0.7 -2.6,0.9 -0.9,0.1 -1.9,0.2 -3,0.2 z m -0.7,-15.6 c -1.4,0 -2.5,0.4 -3.3,1.3 -0.8,0.9 -1.3,2.1 -1.4,3.7 h 9 c 0,-1.6 -0.4,-2.9 -1.1,-3.8 -0.8,-0.8 -1.9,-1.2 -3.2,-1.2 z"
   id="path374"
   inkscape:connector-curvature="0"
   style="fill:#1d1d1b" />
		<path
   class="st4"
   d="m 440.5,245.1 c 0.8,0 1.4,0.1 2,0.2 l -0.4,2.4 c -0.7,-0.2 -1.3,-0.2 -1.9,-0.2 -1.4,0 -2.6,0.6 -3.6,1.7 -1,1.1 -1.5,2.5 -1.5,4.2 v 9.2 h -2.6 v -17.1 h 2.1 l 0.3,3.2 h 0.1 c 0.6,-1.1 1.4,-2 2.3,-2.6 0.9,-0.6 2.2,-1 3.2,-1 z"
   id="path376"
   inkscape:connector-curvature="0"
   style="fill:#1d1d1b" />
		<path
   class="st4"
   d="m 457.5,262.5 v -11.1 c 0,-1.4 -0.3,-2.4 -1,-3.1 -0.6,-0.7 -1.6,-1 -3,-1 -1.8,0 -3.1,0.5 -3.9,1.5 -0.8,1 -1.3,2.6 -1.3,4.8 v 9 h -2.6 v -17.1 h 2.1 l 0.4,2.3 h 0.1 c 0.5,-0.8 1.3,-1.5 2.2,-2 1,-0.5 2,-0.7 3.2,-0.7 2.1,0 3.6,0.5 4.7,1.5 1,1 1.6,2.6 1.6,4.8 v 11.2 h -2.5 z"
   id="path378"
   inkscape:connector-curvature="0"
   style="fill:#1d1d1b" />
		<path
   class="st4"
   d="m 476,262.5 -0.5,-2.4 h -0.1 c -0.9,1.1 -1.7,1.8 -2.6,2.2 -0.8,0.4 -1.9,0.6 -3.2,0.6 -1.7,0 -3,-0.4 -4,-1.3 -1,-0.9 -1.4,-2.1 -1.4,-3.7 0,-3.5 2.8,-5.3 8.3,-5.4 l 2.9,-0.1 v -1.1 c 0,-1.3 -0.3,-2.3 -0.9,-3 -0.6,-0.6 -1.5,-1 -2.8,-1 -1.4,0 -3,0.4 -4.8,1.3 l -0.8,-2 c 0.8,-0.5 1.8,-0.8 2.8,-1.1 1,-0.3 2,-0.4 3,-0.4 2,0 3.6,0.5 4.5,1.4 1,0.9 1.5,2.4 1.5,4.4 v 11.7 H 476 Z m -5.9,-1.8 c 1.6,0 2.9,-0.4 3.8,-1.3 0.9,-0.9 1.4,-2.1 1.4,-3.7 v -1.5 l -2.6,0.1 c -2.1,0.1 -3.6,0.4 -4.5,1 -0.9,0.6 -1.4,1.5 -1.4,2.7 0,0.9 0.3,1.7 0.9,2.1 0.6,0.4 1.4,0.6 2.4,0.6 z"
   id="path380"
   inkscape:connector-curvature="0"
   style="fill:#1d1d1b" />
		<path
   class="st4"
   d="m 495,262.5 v -11.1 c 0,-1.4 -0.3,-2.4 -1,-3.1 -0.6,-0.7 -1.6,-1 -3,-1 -1.8,0 -3.1,0.5 -3.9,1.5 -0.8,1 -1.3,2.6 -1.3,4.8 v 9 h -2.6 v -17.1 h 2.1 l 0.4,2.3 h 0.1 c 0.5,-0.8 1.3,-1.5 2.2,-2 1,-0.5 2,-0.7 3.2,-0.7 2.1,0 3.6,0.5 4.7,1.5 1,1 1.6,2.6 1.6,4.8 v 11.2 H 495 Z"
   id="path382"
   inkscape:connector-curvature="0"
   style="fill:#1d1d1b" />
		<path
   class="st4"
   d="m 509.8,262.9 c -2.5,0 -4.4,-0.8 -5.8,-2.3 -1.4,-1.5 -2,-3.7 -2,-6.5 0,-2.9 0.7,-5.1 2.1,-6.6 1.4,-1.6 3.4,-2.3 5.9,-2.3 0.8,0 1.6,0.1 2.5,0.3 0.8,0.2 1.5,0.4 1.9,0.6 l -0.8,2.2 c -0.6,-0.2 -1.2,-0.4 -1.9,-0.6 -0.7,-0.2 -1.3,-0.2 -1.8,-0.2 -3.5,0 -5.2,2.2 -5.2,6.7 0,2.1 0.4,3.7 1.3,4.8 0.8,1.1 2.1,1.7 3.8,1.7 1.4,0 2.9,-0.3 4.4,-0.9 v 2.3 c -1.3,0.5 -2.7,0.8 -4.4,0.8 z"
   id="path384"
   inkscape:connector-curvature="0"
   style="fill:#1d1d1b" />
		<path
   class="st4"
   d="m 525.4,262.9 c -2.5,0 -4.5,-0.8 -6,-2.3 -1.5,-1.5 -2.2,-3.7 -2.2,-6.4 0,-2.8 0.7,-5 2,-6.6 1.4,-1.6 3.2,-2.4 5.5,-2.4 2.1,0 3.8,0.7 5.1,2.1 1.3,1.4 1.9,3.3 1.9,5.6 v 1.6 h -11.8 c 0.1,2 0.6,3.5 1.5,4.6 1,1 2.3,1.6 4.1,1.6 1.8,0 3.7,-0.4 5.5,-1.2 v 2.3 c -0.9,0.4 -1.8,0.7 -2.6,0.9 -0.9,0.1 -1.8,0.2 -3,0.2 z m -0.7,-15.6 c -1.4,0 -2.5,0.4 -3.3,1.3 -0.8,0.9 -1.3,2.1 -1.4,3.7 h 9 c 0,-1.6 -0.4,-2.9 -1.1,-3.8 -0.8,-0.8 -1.9,-1.2 -3.2,-1.2 z"
   id="path386"
   inkscape:connector-curvature="0"
   style="fill:#1d1d1b" />
		<path
   class="st4"
   d="M 556.1,260.2 H 556 c -1.2,1.7 -3,2.6 -5.4,2.6 -2.2,0 -4,-0.8 -5.2,-2.3 -1.2,-1.5 -1.9,-3.7 -1.9,-6.5 0,-2.8 0.6,-5 1.9,-6.6 1.3,-1.6 3,-2.3 5.2,-2.3 2.3,0 4.1,0.8 5.3,2.5 h 0.2 l -0.1,-1.2 -0.1,-1.2 v -7 h 2.6 v 24.3 h -2.1 z m -5.2,0.5 c 1.8,0 3.1,-0.5 3.9,-1.4 0.8,-1 1.2,-2.5 1.2,-4.7 V 254 c 0,-2.4 -0.4,-4.2 -1.2,-5.2 -0.8,-1 -2.1,-1.6 -3.9,-1.6 -1.5,0 -2.7,0.6 -3.5,1.8 -0.8,1.2 -1.2,2.9 -1.2,5 0,2.2 0.4,3.8 1.2,5 0.8,1.1 2,1.7 3.5,1.7 z"
   id="path388"
   inkscape:connector-curvature="0"
   style="fill:#1d1d1b" />
		<path
   class="st4"
   d="m 571.3,262.9 c -2.5,0 -4.5,-0.8 -6,-2.3 -1.5,-1.5 -2.2,-3.7 -2.2,-6.4 0,-2.8 0.7,-5 2,-6.6 1.4,-1.6 3.2,-2.4 5.5,-2.4 2.1,0 3.8,0.7 5.1,2.1 1.3,1.4 1.9,3.3 1.9,5.6 v 1.6 h -11.8 c 0.1,2 0.6,3.5 1.5,4.6 1,1 2.3,1.6 4.1,1.6 1.8,0 3.7,-0.4 5.5,-1.2 v 2.3 c -0.9,0.4 -1.8,0.7 -2.6,0.9 -0.8,0.1 -1.8,0.2 -3,0.2 z m -0.7,-15.6 c -1.4,0 -2.5,0.4 -3.3,1.3 -0.8,0.9 -1.3,2.1 -1.4,3.7 h 9 c 0,-1.6 -0.4,-2.9 -1.1,-3.8 -0.8,-0.8 -1.8,-1.2 -3.2,-1.2 z"
   id="path390"
   inkscape:connector-curvature="0"
   style="fill:#1d1d1b" />
		<path
   class="st4"
   d="m 593,262.5 h -2.6 v -24.3 h 2.6 z"
   id="path392"
   inkscape:connector-curvature="0"
   style="fill:#1d1d1b" />
		<path
   class="st4"
   d="m 609,262.5 -0.5,-2.4 h -0.1 c -0.9,1.1 -1.7,1.8 -2.6,2.2 -0.8,0.4 -1.9,0.6 -3.2,0.6 -1.7,0 -3,-0.4 -4,-1.3 -1,-0.9 -1.4,-2.1 -1.4,-3.7 0,-3.5 2.8,-5.3 8.3,-5.4 l 2.9,-0.1 v -1.1 c 0,-1.3 -0.3,-2.3 -0.9,-3 -0.6,-0.6 -1.5,-1 -2.8,-1 -1.4,0 -3,0.4 -4.8,1.3 l -0.8,-2 c 0.8,-0.5 1.8,-0.8 2.8,-1.1 1,-0.3 2,-0.4 3,-0.4 2,0 3.6,0.5 4.5,1.4 1,0.9 1.5,2.4 1.5,4.4 v 11.7 H 609 Z m -5.9,-1.8 c 1.6,0 2.9,-0.4 3.8,-1.3 0.9,-0.9 1.4,-2.1 1.4,-3.7 v -1.5 l -2.6,0.1 c -2.1,0.1 -3.6,0.4 -4.5,1 -0.9,0.6 -1.4,1.5 -1.4,2.7 0,0.9 0.3,1.7 0.9,2.1 0.6,0.4 1.4,0.6 2.4,0.6 z"
   id="path394"
   inkscape:connector-curvature="0"
   style="fill:#1d1d1b" />
		<path
   class="st4"
   d="m 635.6,257.9 c 0,1.6 -0.6,2.8 -1.8,3.7 -1.2,0.9 -2.9,1.3 -5,1.3 -2.3,0 -4,-0.4 -5.3,-1.1 v -2.4 c 0.8,0.4 1.7,0.7 2.7,1 0.9,0.2 1.9,0.4 2.7,0.4 1.4,0 2.4,-0.2 3.1,-0.6 0.7,-0.4 1.1,-1.1 1.1,-2 0,-0.7 -0.3,-1.2 -0.9,-1.7 -0.6,-0.5 -1.7,-1 -3.4,-1.7 -1.6,-0.6 -2.7,-1.1 -3.4,-1.6 -0.7,-0.4 -1.2,-0.9 -1.5,-1.5 -0.3,-0.6 -0.5,-1.2 -0.5,-2 0,-1.4 0.6,-2.5 1.7,-3.3 1.1,-0.8 2.7,-1.2 4.7,-1.2 1.8,0 3.6,0.4 5.4,1.1 l -0.9,2.1 c -1.7,-0.7 -3.3,-1.1 -4.7,-1.1 -1.2,0 -2.2,0.2 -2.8,0.6 -0.6,0.4 -0.9,0.9 -0.9,1.6 0,0.5 0.1,0.8 0.4,1.2 0.2,0.3 0.6,0.6 1.1,0.9 0.5,0.3 1.5,0.7 3,1.3 2,0.7 3.4,1.5 4.1,2.2 0.8,0.7 1.1,1.6 1.1,2.8 z"
   id="path396"
   inkscape:connector-curvature="0"
   style="fill:#1d1d1b" />
		<path
   class="st4"
   d="m 647.1,262.9 c -2.5,0 -4.5,-0.8 -6,-2.3 -1.5,-1.5 -2.2,-3.7 -2.2,-6.4 0,-2.8 0.7,-5 2,-6.6 1.4,-1.6 3.2,-2.4 5.5,-2.4 2.1,0 3.8,0.7 5.1,2.1 1.3,1.4 1.9,3.3 1.9,5.6 v 1.6 h -11.8 c 0.1,2 0.6,3.5 1.5,4.6 1,1 2.3,1.6 4.1,1.6 1.8,0 3.7,-0.4 5.5,-1.2 v 2.3 c -0.9,0.4 -1.8,0.7 -2.6,0.9 -0.8,0.1 -1.8,0.2 -3,0.2 z m -0.7,-15.6 c -1.4,0 -2.5,0.4 -3.3,1.3 -0.8,0.9 -1.3,2.1 -1.4,3.7 h 9 c 0,-1.6 -0.4,-2.9 -1.1,-3.8 -0.8,-0.8 -1.8,-1.2 -3.2,-1.2 z m -1.9,-4.6 c 0.5,-0.6 1,-1.4 1.6,-2.3 0.6,-0.9 1,-1.7 1.4,-2.4 h 3.2 v 0.3 c -0.5,0.7 -1.1,1.5 -2,2.5 -0.9,1 -1.7,1.8 -2.4,2.3 h -1.7 v -0.4 z"
   id="path398"
   inkscape:connector-curvature="0"
   style="fill:#1d1d1b" />
		<path
   class="st4"
   d="m 664.7,262.9 c -2.5,0 -4.4,-0.8 -5.8,-2.3 -1.4,-1.5 -2,-3.7 -2,-6.5 0,-2.9 0.7,-5.1 2.1,-6.6 1.4,-1.6 3.3,-2.3 5.9,-2.3 0.8,0 1.6,0.1 2.5,0.3 0.8,0.2 1.5,0.4 1.9,0.6 l -0.8,2.2 c -0.6,-0.2 -1.2,-0.4 -1.9,-0.6 -0.7,-0.2 -1.3,-0.2 -1.8,-0.2 -3.5,0 -5.2,2.2 -5.2,6.7 0,2.1 0.4,3.7 1.3,4.8 0.8,1.1 2.1,1.7 3.8,1.7 1.4,0 2.9,-0.3 4.4,-0.9 v 2.3 c -1.2,0.5 -2.7,0.8 -4.4,0.8 z"
   id="path400"
   inkscape:connector-curvature="0"
   style="fill:#1d1d1b" />
		<path
   class="st4"
   d="m 675.5,245.4 v 11.1 c 0,1.4 0.3,2.4 1,3.1 0.6,0.7 1.6,1 3,1 1.8,0 3.1,-0.5 3.9,-1.5 0.8,-1 1.2,-2.6 1.2,-4.8 v -9 h 2.6 v 17.1 h -2.1 l -0.4,-2.3 h -0.1 c -0.5,0.8 -1.3,1.5 -2.2,1.9 -0.9,0.4 -2,0.7 -3.2,0.7 -2.1,0 -3.6,-0.5 -4.7,-1.5 -1,-1 -1.6,-2.6 -1.6,-4.8 v -11.2 h 2.6 z"
   id="path402"
   inkscape:connector-curvature="0"
   style="fill:#1d1d1b" />
		<path
   class="st4"
   d="m 700.6,245.1 c 0.8,0 1.4,0.1 2,0.2 l -0.4,2.4 c -0.7,-0.2 -1.3,-0.2 -1.9,-0.2 -1.4,0 -2.6,0.6 -3.6,1.7 -1,1.1 -1.5,2.5 -1.5,4.2 v 9.2 h -2.6 v -17.1 h 2.1 l 0.3,3.2 h 0.1 c 0.6,-1.1 1.4,-2 2.3,-2.6 1.1,-0.7 2.1,-1 3.2,-1 z"
   id="path404"
   inkscape:connector-curvature="0"
   style="fill:#1d1d1b" />
		<path
   class="st4"
   d="m 705.6,240.8 c 0,-0.6 0.1,-1 0.4,-1.3 0.3,-0.3 0.7,-0.4 1.1,-0.4 0.4,0 0.8,0.1 1.1,0.4 0.3,0.3 0.5,0.7 0.5,1.3 0,0.6 -0.2,1 -0.5,1.3 -0.3,0.3 -0.7,0.4 -1.1,0.4 -0.4,0 -0.8,-0.1 -1.1,-0.4 -0.3,-0.3 -0.4,-0.8 -0.4,-1.3 z m 2.8,21.7 h -2.6 v -17.1 h 2.6 z"
   id="path406"
   inkscape:connector-curvature="0"
   style="fill:#1d1d1b" />
		<path
   class="st4"
   d="m 719.5,260.7 c 0.5,0 0.9,0 1.3,-0.1 0.4,-0.1 0.8,-0.1 1,-0.2 v 2 c -0.3,0.1 -0.7,0.2 -1.2,0.3 -0.5,0.1 -1,0.1 -1.5,0.1 -3.3,0 -5,-1.7 -5,-5.2 v -10.2 h -2.5 v -1.3 l 2.5,-1.1 1.1,-3.7 h 1.5 v 4 h 5 v 2 h -5 v 10.1 c 0,1 0.2,1.8 0.7,2.4 0.5,0.6 1.2,0.9 2.1,0.9 z"
   id="path408"
   inkscape:connector-curvature="0"
   style="fill:#1d1d1b" />
		<path
   class="st4"
   d="m 732.5,262.9 c -2.5,0 -4.5,-0.8 -6,-2.3 -1.5,-1.5 -2.2,-3.7 -2.2,-6.4 0,-2.8 0.7,-5 2,-6.6 1.4,-1.6 3.2,-2.4 5.5,-2.4 2.1,0 3.8,0.7 5.1,2.1 1.3,1.4 1.9,3.3 1.9,5.6 v 1.6 H 727 c 0.1,2 0.6,3.5 1.5,4.6 1,1 2.3,1.6 4.1,1.6 1.8,0 3.7,-0.4 5.5,-1.2 v 2.3 c -0.9,0.4 -1.8,0.7 -2.6,0.9 -0.9,0.1 -1.9,0.2 -3,0.2 z m -0.7,-15.6 c -1.4,0 -2.5,0.4 -3.3,1.3 -0.8,0.9 -1.3,2.1 -1.4,3.7 h 9 c 0,-1.6 -0.4,-2.9 -1.1,-3.8 -0.8,-0.8 -1.9,-1.2 -3.2,-1.2 z m -2,-4.6 c 0.5,-0.6 1,-1.4 1.6,-2.3 0.6,-0.9 1,-1.7 1.4,-2.4 h 3.2 v 0.3 c -0.5,0.7 -1.1,1.5 -2,2.5 -0.9,1 -1.7,1.8 -2.4,2.3 h -1.7 v -0.4 z"
   id="path410"
   inkscape:connector-curvature="0"
   style="fill:#1d1d1b" />
		<path
   class="st4"
   d="M 763.2,260.2 H 763 c -1.2,1.7 -3,2.6 -5.4,2.6 -2.2,0 -4,-0.8 -5.2,-2.3 -1.2,-1.5 -1.9,-3.7 -1.9,-6.5 0,-2.8 0.6,-5 1.9,-6.6 1.3,-1.6 3,-2.3 5.2,-2.3 2.3,0 4.1,0.8 5.3,2.5 h 0.2 l -0.1,-1.2 -0.1,-1.2 v -7 h 2.6 v 24.3 h -2.1 z m -5.2,0.5 c 1.8,0 3.1,-0.5 3.9,-1.4 0.8,-1 1.2,-2.5 1.2,-4.7 V 254 c 0,-2.4 -0.4,-4.2 -1.2,-5.2 -0.8,-1 -2.1,-1.6 -3.9,-1.6 -1.5,0 -2.7,0.6 -3.5,1.8 -0.8,1.2 -1.2,2.9 -1.2,5 0,2.2 0.4,3.8 1.2,5 0.8,1.1 1.9,1.7 3.5,1.7 z"
   id="path412"
   inkscape:connector-curvature="0"
   style="fill:#1d1d1b" />
		<path
   class="st4"
   d="m 778.4,262.9 c -2.5,0 -4.5,-0.8 -6,-2.3 -1.5,-1.5 -2.2,-3.7 -2.2,-6.4 0,-2.8 0.7,-5 2,-6.6 1.4,-1.6 3.2,-2.4 5.5,-2.4 2.1,0 3.8,0.7 5.1,2.1 1.3,1.4 1.9,3.3 1.9,5.6 v 1.6 h -11.8 c 0.1,2 0.6,3.5 1.5,4.6 1,1 2.3,1.6 4.1,1.6 1.8,0 3.7,-0.4 5.5,-1.2 v 2.3 c -0.9,0.4 -1.8,0.7 -2.6,0.9 -0.9,0.1 -1.9,0.2 -3,0.2 z m -0.7,-15.6 c -1.4,0 -2.5,0.4 -3.3,1.3 -0.8,0.9 -1.3,2.1 -1.4,3.7 h 9 c 0,-1.6 -0.4,-2.9 -1.1,-3.8 -0.8,-0.8 -1.9,-1.2 -3.2,-1.2 z"
   id="path414"
   inkscape:connector-curvature="0"
   style="fill:#1d1d1b" />
		<path
   class="st4"
   d="m 470,301 h -2.6 v -24.3 h 2.6 z"
   id="path416"
   inkscape:connector-curvature="0"
   style="fill:#1d1d1b" />
		<path
   class="st4"
   d="m 477.6,278.1 0.2,0.3 c -0.3,1 -0.7,2.3 -1.2,3.6 -0.5,1.4 -1,2.7 -1.6,3.9 h -1.9 c 0.7,-3 1.3,-5.6 1.6,-7.8 z"
   id="path418"
   inkscape:connector-curvature="0"
   style="fill:#1d1d1b" />
		<path
   class="st4"
   d="m 480.8,279.2 c 0,-0.6 0.1,-1 0.4,-1.3 0.3,-0.3 0.7,-0.4 1.1,-0.4 0.4,0 0.8,0.1 1.1,0.4 0.3,0.3 0.5,0.7 0.5,1.3 0,0.6 -0.2,1 -0.5,1.3 -0.3,0.3 -0.7,0.4 -1.1,0.4 -0.4,0 -0.8,-0.1 -1.1,-0.4 -0.3,-0.3 -0.4,-0.7 -0.4,-1.3 z m 2.8,21.8 H 481 v -17.1 h 2.6 z"
   id="path420"
   inkscape:connector-curvature="0"
   style="fill:#1d1d1b" />
		<path
   class="st4"
   d="m 500.8,301 v -11.1 c 0,-1.4 -0.3,-2.4 -1,-3.1 -0.6,-0.7 -1.6,-1 -3,-1 -1.8,0 -3.1,0.5 -3.9,1.5 -0.8,1 -1.3,2.6 -1.3,4.8 v 9 H 489 V 284 h 2.1 l 0.4,2.3 h 0.1 c 0.5,-0.8 1.3,-1.5 2.2,-2 1,-0.5 2,-0.7 3.2,-0.7 2.1,0 3.6,0.5 4.7,1.5 1,1 1.6,2.6 1.6,4.8 V 301 Z"
   id="path422"
   inkscape:connector-curvature="0"
   style="fill:#1d1d1b" />
		<path
   class="st4"
   d="m 516.5,285.9 h -4.4 V 301 h -2.6 v -15.1 h -3.1 v -1.2 l 3.1,-0.9 v -1 c 0,-4.2 1.8,-6.3 5.5,-6.3 0.9,0 2,0.2 3.2,0.5 l -0.7,2.1 c -1,-0.3 -1.9,-0.5 -2.6,-0.5 -1,0 -1.7,0.3 -2.2,1 -0.5,0.7 -0.7,1.7 -0.7,3.1 v 1.1 h 4.4 v 2.1 z"
   id="path424"
   inkscape:connector-curvature="0"
   style="fill:#1d1d1b" />
		<path
   class="st4"
   d="m 534.4,292.4 c 0,2.8 -0.7,5 -2.1,6.5 -1.4,1.6 -3.4,2.4 -5.8,2.4 -1.5,0 -2.9,-0.4 -4.1,-1.1 -1.2,-0.7 -2.1,-1.8 -2.8,-3.1 -0.6,-1.3 -1,-2.9 -1,-4.7 0,-2.8 0.7,-5 2.1,-6.5 1.4,-1.6 3.3,-2.3 5.8,-2.3 2.4,0 4.3,0.8 5.7,2.4 1.5,1.5 2.2,3.7 2.2,6.4 z m -13.1,0 c 0,2.2 0.4,3.9 1.3,5 0.9,1.1 2.2,1.7 3.9,1.7 1.7,0 3,-0.6 3.9,-1.7 0.9,-1.1 1.3,-2.8 1.3,-5 0,-2.2 -0.4,-3.8 -1.3,-5 -0.9,-1.1 -2.2,-1.7 -3.9,-1.7 -1.7,0 -3,0.6 -3.8,1.7 -0.9,1.1 -1.4,2.8 -1.4,5 z"
   id="path426"
   inkscape:connector-curvature="0"
   style="fill:#1d1d1b" />
		<path
   class="st4"
   d="m 546.8,283.5 c 0.8,0 1.4,0.1 2,0.2 l -0.4,2.4 c -0.7,-0.2 -1.3,-0.2 -1.9,-0.2 -1.4,0 -2.6,0.6 -3.6,1.7 -1,1.1 -1.5,2.5 -1.5,4.2 v 9.2 h -2.6 v -17.1 h 2.1 l 0.3,3.2 h 0.1 c 0.6,-1.1 1.4,-2 2.3,-2.6 1.1,-0.7 2.1,-1 3.2,-1 z"
   id="path428"
   inkscape:connector-curvature="0"
   style="fill:#1d1d1b" />
		<path
   class="st4"
   d="m 573.9,301 v -11.2 c 0,-1.4 -0.3,-2.4 -0.9,-3.1 -0.6,-0.7 -1.5,-1 -2.7,-1 -1.6,0 -2.8,0.5 -3.6,1.4 -0.8,0.9 -1.2,2.4 -1.2,4.3 v 9.6 h -2.6 v -11.2 c 0,-1.4 -0.3,-2.4 -0.9,-3.1 -0.6,-0.7 -1.5,-1 -2.7,-1 -1.6,0 -2.8,0.5 -3.6,1.5 -0.8,1 -1.1,2.6 -1.1,4.8 v 9 H 552 v -17.1 h 2.1 l 0.4,2.3 h 0.1 c 0.5,-0.8 1.2,-1.5 2.1,-2 0.9,-0.5 1.9,-0.7 3,-0.7 2.7,0 4.4,1 5.3,2.9 h 0.1 c 0.5,-0.9 1.3,-1.6 2.2,-2.1 1,-0.5 2.1,-0.8 3.3,-0.8 1.9,0 3.4,0.5 4.4,1.5 1,1 1.4,2.6 1.4,4.8 V 301 Z"
   id="path430"
   inkscape:connector-curvature="0"
   style="fill:#1d1d1b" />
		<path
   class="st4"
   d="m 592.4,301 -0.5,-2.4 h -0.1 c -0.9,1.1 -1.7,1.8 -2.6,2.2 -0.8,0.4 -1.9,0.6 -3.2,0.6 -1.7,0 -3,-0.4 -4,-1.3 -1,-0.9 -1.4,-2.1 -1.4,-3.7 0,-3.5 2.8,-5.3 8.3,-5.4 l 2.9,-0.1 v -1.1 c 0,-1.3 -0.3,-2.3 -0.9,-3 -0.6,-0.6 -1.5,-1 -2.8,-1 -1.4,0 -3,0.4 -4.8,1.3 l -0.8,-2 c 0.8,-0.5 1.8,-0.8 2.8,-1.1 1,-0.3 2,-0.4 3,-0.4 2,0 3.6,0.5 4.5,1.4 1,0.9 1.5,2.4 1.5,4.4 V 301 Z m -5.9,-1.9 c 1.6,0 2.9,-0.4 3.8,-1.3 0.9,-0.9 1.4,-2.1 1.4,-3.7 v -1.5 l -2.6,0.1 c -2.1,0.1 -3.6,0.4 -4.5,1 -0.9,0.6 -1.4,1.5 -1.4,2.7 0,0.9 0.3,1.7 0.9,2.1 0.6,0.4 1.4,0.6 2.4,0.6 z"
   id="path432"
   inkscape:connector-curvature="0"
   style="fill:#1d1d1b" />
		<path
   class="st4"
   d="m 605.2,299.1 c 0.5,0 0.9,0 1.3,-0.1 0.4,-0.1 0.8,-0.1 1,-0.2 v 2 c -0.3,0.1 -0.7,0.2 -1.2,0.3 -0.5,0.1 -1,0.1 -1.5,0.1 -3.3,0 -5,-1.7 -5,-5.2 v -10.2 h -2.5 v -1.3 l 2.5,-1.1 1.1,-3.7 h 1.5 v 4 h 5 v 2 h -5 v 10.1 c 0,1 0.2,1.8 0.7,2.4 0.5,0.7 1.2,0.9 2.1,0.9 z"
   id="path434"
   inkscape:connector-curvature="0"
   style="fill:#1d1d1b" />
		<path
   class="st4"
   d="m 610.7,279.2 c 0,-0.6 0.1,-1 0.4,-1.3 0.3,-0.3 0.7,-0.4 1.1,-0.4 0.4,0 0.8,0.1 1.1,0.4 0.3,0.3 0.5,0.7 0.5,1.3 0,0.6 -0.2,1 -0.5,1.3 -0.3,0.3 -0.7,0.4 -1.1,0.4 -0.4,0 -0.8,-0.1 -1.1,-0.4 -0.2,-0.3 -0.4,-0.7 -0.4,-1.3 z m 2.8,21.8 h -2.6 v -17.1 h 2.6 z"
   id="path436"
   inkscape:connector-curvature="0"
   style="fill:#1d1d1b" />
		<path
   class="st4"
   d="m 633.8,292.4 c 0,2.8 -0.7,5 -2.1,6.5 -1.4,1.6 -3.4,2.4 -5.8,2.4 -1.5,0 -2.9,-0.4 -4.1,-1.1 -1.2,-0.7 -2.1,-1.8 -2.8,-3.1 -0.6,-1.3 -1,-2.9 -1,-4.7 0,-2.8 0.7,-5 2.1,-6.5 1.4,-1.6 3.3,-2.3 5.8,-2.3 2.4,0 4.3,0.8 5.7,2.4 1.5,1.5 2.2,3.7 2.2,6.4 z m -13,0 c 0,2.2 0.4,3.9 1.3,5 0.9,1.1 2.2,1.7 3.9,1.7 1.7,0 3,-0.6 3.9,-1.7 0.9,-1.1 1.3,-2.8 1.3,-5 0,-2.2 -0.4,-3.8 -1.3,-5 -0.9,-1.1 -2.2,-1.7 -3.9,-1.7 -1.7,0 -3,0.6 -3.8,1.7 -1,1.1 -1.4,2.8 -1.4,5 z"
   id="path438"
   inkscape:connector-curvature="0"
   style="fill:#1d1d1b" />
		<path
   class="st4"
   d="m 650.1,301 v -11.1 c 0,-1.4 -0.3,-2.4 -1,-3.1 -0.6,-0.7 -1.6,-1 -3,-1 -1.8,0 -3.1,0.5 -3.9,1.5 -0.8,1 -1.3,2.6 -1.3,4.8 v 9 h -2.6 V 284 h 2.1 l 0.4,2.3 h 0.1 c 0.5,-0.8 1.3,-1.5 2.2,-2 1,-0.5 2,-0.7 3.2,-0.7 2.1,0 3.6,0.5 4.7,1.5 1,1 1.6,2.6 1.6,4.8 V 301 Z"
   id="path440"
   inkscape:connector-curvature="0"
   style="fill:#1d1d1b" />
	</g>
	<path
   class="st7"
   d="m 246.1,192.3 v 0 L 233.3,170.2 247.9,185 C 261.9,133.9 240.4,77.9 192.4,50.2 180.8,43.6 168.5,39 156,36.5 l 7.9,13.7 0.8,0.4 c 42.2,24.4 49.4,91 16.1,149.2 l -16.6,28.6 v 0 l -6.9,11.9 -18.8,32.4 -23.1,39.7 h 200.2 z"
   id="path444"
   inkscape:connector-curvature="0"
   style="display:inline;fill:#0066b1" />
	<line
   class="st9"
   x1="283.79999"
   y1="213.2"
   x2="836.20001"
   y2="213.2"
   id="line446"
   style="display:inline;fill:none;stroke:#828281;stroke-width:2.13520002;stroke-miterlimit:10" />
	<path
   class="st10"
   d="m 39.5,153.3 c 0,-2.7 0.1,-5.5 0.3,-8.1 17.5,-30.8 59.5,-53.1 109.7,-53.1 14.1,0 27.3,2.1 41,5.1 L 173.9,68.5 c 3.8,1.8 7.4,3.8 10.8,6.1 19.7,30.4 18.7,79.5 -7.2,124.3 -7,12.2 -18.7,32.8 -18.7,32.8 0,0 -1.3,2.2 -3.1,5.3 C 125.2,230.3 92,206.1 71,169.8 64,157.5 59.2,145 54.9,131.7 l -15.3,26.6 c -0.1,-1.7 -0.1,-3.3 -0.1,-5"
   id="path448"
   inkscape:connector-curvature="0"
   style="display:inline;fill:#ffd400" />
	<g
   class="st8"
   id="g456"
   style="display:inline">
		<path
   class="st1"
   d="m 248.6,286.3 h -67.5 l -7,-30 c -4.9,-0.2 -8.8,-4.3 -8.8,-9.2 0,-5.1 4.1,-9.2 9.2,-9.2 5.1,0 9.2,4.1 9.2,9.2 0,2.4 -1,4.8 -2.7,6.5 11.2,12.1 20.4,11.2 29,-3.2 -2.2,-1.7 -3.5,-4.4 -3.5,-7.3 0,-5.1 4.1,-9.2 9.2,-9.2 5.1,0 9.2,4.1 9.2,9.2 0,3.1 -1.5,5.9 -4,7.6 7.4,14.1 16.8,14.9 29.1,2.9 -1.5,-1.7 -2.3,-3.8 -2.3,-6.1 0,-5.1 4.1,-9.2 9.2,-9.2 5.1,0 9.2,4.1 9.2,9.2 0,5.1 -4.1,9.2 -9.1,9.2 z m -64.3,-4.1 h 61.1 l 7.1,-25.4 c -15,14.3 -27.8,12 -36.3,-6.1 l -0.8,-1.6 -0.9,1.6 c -10,18.2 -22.7,20.4 -36.1,6.3 z m 70.5,-29.9 0.9,0.2 c 3.2,0.7 6.1,-1.8 6.1,-5 0,-2.8 -2.3,-5.1 -5.1,-5.1 -2.8,0 -5.1,2.3 -5.1,5.1 0,1.7 0.9,3.3 2.3,4.3 z M 174.4,242 c -2.8,0 -5.1,2.3 -5.1,5.1 0,2.8 2.3,5.1 5.1,5.1 0.3,0 0.6,0 0.9,-0.1 l 0.8,-0.1 0.8,-0.5 c 1.6,-0.9 2.6,-2.6 2.6,-4.4 0,-2.8 -2.3,-5.1 -5.1,-5.1 z m 41.2,-4 c -2.8,0 -5.1,2.3 -5.1,5.1 0,2 1.2,3.8 3,4.6 l 1.8,0.8 1.9,-0.7 c 2,-0.7 3.3,-2.6 3.3,-4.7 0.2,-2.8 -2.1,-5.1 -4.9,-5.1 z"
   id="path450"
   inkscape:connector-curvature="0"
   style="fill:#ffd400" />
		<path
   class="st1"
   d="m 246.2,294.6 h -62.8 c -1.1,0 -2.1,-0.9 -2.1,-2.1 v 0 c 0,-1.1 0.9,-2.1 2.1,-2.1 h 62.8 c 1.1,0 2.1,0.9 2.1,2.1 v 0 c 0,1.2 -0.9,2.1 -2.1,2.1 z"
   id="path452"
   inkscape:connector-curvature="0"
   style="fill:#ffd400" />
		<path
   class="st1"
   d="m 246.2,303.3 h -62.8 c -1.1,0 -2.1,-0.9 -2.1,-2.1 v 0 c 0,-1.1 0.9,-2.1 2.1,-2.1 h 62.8 c 1.1,0 2.1,0.9 2.1,2.1 v 0 c 0,1.2 -0.9,2.1 -2.1,2.1 z"
   id="path454"
   inkscape:connector-curvature="0"
   style="fill:#ffd400" />
	</g>
</g>
<g
   class="st6"
   id="g604"
   style="display:none">
	<path
   class="st7"
   d="m 246.1,192.3 v 0 L 233.3,170.2 247.9,185 C 261.9,133.9 240.4,77.9 192.4,50.2 180.8,43.5 168.5,38.9 156,36.5 l 7.9,13.7 0.8,0.4 c 42.2,24.4 49.4,91 16.1,149.2 l -16.6,28.6 v 0 l -6.9,11.9 -18.8,32.4 -23.1,39.7 h 200.2 z"
   id="path460"
   inkscape:connector-curvature="0"
   style="display:inline;fill:#0066b1" />
	<g
   class="st8"
   id="g474"
   style="display:inline">
		<g
   id="g472">
			<path
   class="st2"
   d="m 299.8,74.8 c -6.6,0 -11.6,-1.8 -15.1,-5.4 -3.4,-3.6 -5.1,-8.7 -5.1,-15.4 0,-6.7 1.8,-11.9 5.5,-15.6 3.7,-3.7 8.9,-5.5 15.8,-5.5 4.7,0 9.1,1 13.3,3.1 L 310,46.2 c -1.7,-0.7 -3.3,-1.3 -4.7,-1.8 -1.4,-0.4 -2.9,-0.7 -4.5,-0.7 -2.3,0 -4,0.9 -5.3,2.7 -1.2,1.8 -1.9,4.2 -1.9,7.5 0,6.5 2.4,9.7 7.2,9.7 4.1,0 8,-1.2 11.8,-3.6 v 11.1 c -3.4,2.5 -7.8,3.7 -12.8,3.7 z"
   id="path462"
   inkscape:connector-curvature="0"
   style="fill:#002042" />
			<path
   class="st2"
   d="m 347.2,74.1 -2.7,-5.4 h -0.3 c -1.9,2.3 -3.8,3.9 -5.8,4.8 -2,0.9 -4.5,1.3 -7.6,1.3 -3.8,0 -6.8,-1.1 -9,-3.4 -2.2,-2.3 -3.3,-5.5 -3.3,-9.6 0,-4.3 1.5,-7.5 4.5,-9.6 3,-2.1 7.3,-3.3 13.1,-3.6 l 6.8,-0.2 v -0.6 c 0,-3.3 -1.6,-5 -4.9,-5 -3,0 -6.7,1 -11.3,3 l -4,-9.2 c 4.7,-2.4 10.7,-3.6 17.9,-3.6 5.2,0 9.2,1.3 12.1,3.9 2.8,2.6 4.3,6.2 4.3,10.8 v 26.6 h -9.8 z m -10.4,-9.2 c 1.7,0 3.1,-0.5 4.3,-1.6 1.2,-1.1 1.8,-2.5 1.8,-4.2 V 56 l -3.2,0.1 c -4.6,0.2 -6.9,1.9 -6.9,5.1 0.1,2.5 1.4,3.7 4,3.7 z"
   id="path464"
   inkscape:connector-curvature="0"
   style="fill:#002042" />
			<path
   class="st2"
   d="m 396.8,61.6 c 0,4.3 -1.5,7.6 -4.4,9.8 -3,2.2 -7.2,3.3 -12.7,3.3 -3,0 -5.6,-0.2 -7.8,-0.5 -2.2,-0.3 -4.5,-0.9 -6.8,-1.8 V 61.3 c 2.2,0.9 4.5,1.7 7.1,2.4 2.6,0.6 4.9,0.9 6.9,0.9 3,0 4.5,-0.7 4.5,-2.1 0,-0.7 -0.4,-1.3 -1.3,-1.9 -0.8,-0.6 -3.3,-1.7 -7.4,-3.3 -3.7,-1.5 -6.3,-3.3 -7.8,-5.2 -1.5,-1.9 -2.2,-4.4 -2.2,-7.4 0,-3.8 1.5,-6.7 4.4,-8.8 2.9,-2.1 7,-3.1 12.3,-3.1 2.7,0 5.2,0.3 7.5,0.9 2.4,0.6 4.8,1.4 7.3,2.5 l -3.8,9 c -1.9,-0.8 -3.8,-1.5 -5.9,-2.1 -2.1,-0.6 -3.8,-0.9 -5.1,-0.9 -2.3,0 -3.4,0.6 -3.4,1.7 0,0.7 0.4,1.3 1.2,1.8 0.8,0.5 3.1,1.5 6.9,3 2.8,1.2 4.9,2.3 6.3,3.4 1.4,1.1 2.4,2.4 3.1,3.9 0.8,1.6 1.1,3.5 1.1,5.6 z"
   id="path466"
   inkscape:connector-curvature="0"
   style="fill:#002042" />
			<path
   class="st2"
   d="m 423.2,74.8 c -6.7,0 -12,-1.8 -15.7,-5.4 -3.7,-3.6 -5.6,-8.7 -5.6,-15.3 0,-6.8 1.7,-12.1 5.2,-15.7 3.5,-3.7 8.4,-5.5 14.8,-5.5 6.1,0 10.8,1.6 14.1,4.8 3.3,3.2 5,7.8 5,13.7 v 6.2 h -25 c 0.1,2.3 0.9,4 2.5,5.3 1.6,1.3 3.7,1.9 6.4,1.9 2.5,0 4.7,-0.2 6.8,-0.7 2.1,-0.5 4.3,-1.3 6.7,-2.4 v 10 c -2.2,1.1 -4.5,1.9 -6.8,2.3 -2.4,0.6 -5.2,0.8 -8.4,0.8 z m -0.8,-32.4 c -1.6,0 -3,0.5 -4.1,1.6 -1.1,1 -1.8,2.7 -2,4.9 h 12 c 0,-2 -0.6,-3.5 -1.7,-4.7 -1,-1.3 -2.4,-1.8 -4.2,-1.8 z"
   id="path468"
   inkscape:connector-curvature="0"
   style="fill:#002042" />
			<path
   class="st2"
   d="m 479.3,61.6 c 0,4.3 -1.5,7.6 -4.4,9.8 -3,2.2 -7.2,3.3 -12.7,3.3 -3,0 -5.6,-0.2 -7.8,-0.5 -2.2,-0.3 -4.5,-0.9 -6.8,-1.8 V 61.3 c 2.2,0.9 4.5,1.7 7.1,2.4 2.6,0.6 4.9,0.9 6.9,0.9 3,0 4.5,-0.7 4.5,-2.1 0,-0.7 -0.4,-1.3 -1.3,-1.9 -0.8,-0.6 -3.3,-1.7 -7.4,-3.3 -3.7,-1.5 -6.3,-3.3 -7.8,-5.2 -1.5,-1.9 -2.2,-4.4 -2.2,-7.4 0,-3.8 1.4,-6.7 4.4,-8.8 2.9,-2.1 7,-3.1 12.3,-3.1 2.7,0 5.2,0.3 7.5,0.9 2.3,0.6 4.8,1.4 7.3,2.5 l -3.8,9 c -1.9,-0.8 -3.8,-1.5 -5.9,-2.1 -2.1,-0.6 -3.8,-0.9 -5.1,-0.9 -2.3,0 -3.4,0.6 -3.4,1.7 0,0.7 0.4,1.3 1.2,1.8 0.8,0.5 3.1,1.5 6.9,3 2.8,1.2 5,2.3 6.3,3.4 1.4,1.1 2.4,2.4 3.1,3.9 0.8,1.6 1.1,3.5 1.1,5.6 z"
   id="path470"
   inkscape:connector-curvature="0"
   style="fill:#002042" />
		</g>
	</g>
	<g
   class="st8"
   id="g498"
   style="display:inline">
		<g
   id="g496">
			<path
   class="st3"
   d="m 287.6,91.6 c 6.8,-1.1 15.7,-1.7 25.1,-1.7 15.6,0 25.7,2.8 33.6,8.8 8.5,6.3 13.9,16.4 13.9,30.9 0,15.7 -5.7,26.5 -13.6,33.2 -8.6,7.2 -21.8,10.6 -37.9,10.6 -9.6,0 -16.4,-0.6 -21.1,-1.2 z m 18.6,66.9 c 1.6,0.4 4.1,0.4 6.5,0.4 16.8,0.1 27.8,-9.1 27.8,-28.7 0.1,-17 -9.9,-26 -25.8,-26 -4.1,0 -6.8,0.4 -8.4,0.7 v 53.6 z"
   id="path476"
   inkscape:connector-curvature="0"
   style="fill:#004e87" />
			<path
   class="st3"
   d="m 388.3,96.5 c 0,5.1 -3.9,9.2 -10,9.2 -5.8,0 -9.7,-4.1 -9.6,-9.2 -0.1,-5.4 3.8,-9.4 9.7,-9.4 5.9,0 9.7,4 9.9,9.4 z m -19.1,76 V 113 h 18.5 v 59.5 z"
   id="path478"
   inkscape:connector-curvature="0"
   style="fill:#004e87" />
			<path
   class="st3"
   d="m 433.3,172.5 -1.1,-6 h -0.4 c -3.9,4.7 -10,7.3 -17,7.3 -12.1,0 -19.2,-8.8 -19.2,-18.3 0,-15.5 13.9,-22.9 34.9,-22.8 V 132 c 0,-3.2 -1.7,-7.7 -10.8,-7.7 -6.1,0 -12.5,2.1 -16.4,4.5 l -3.4,-11.9 c 4.1,-2.3 12.3,-5.2 23.1,-5.2 19.8,0 26.2,11.7 26.2,25.7 v 20.7 c 0,5.7 0.2,11.2 0.9,14.5 h -16.8 z m -2.2,-28.1 c -9.7,-0.1 -17.3,2.2 -17.3,9.4 0,4.7 3.2,7.1 7.3,7.1 4.6,0 8.4,-3 9.6,-6.8 0.2,-1 0.4,-2.1 0.4,-3.2 z"
   id="path480"
   inkscape:connector-curvature="0"
   style="fill:#004e87" />
			<path
   class="st3"
   d="m 517.5,113 c -0.2,3.8 -0.5,8.8 -0.5,17.6 v 33.2 c 0,11.4 -2.3,20.8 -9,26.8 -6.6,5.6 -15.5,7.3 -24.2,7.3 -7.8,0 -16.1,-1.6 -21.4,-4.6 l 3.7,-14 c 3.8,2.2 10.3,4.5 17.3,4.5 8.8,0 15.5,-4.7 15.5,-15.7 v -3.9 h -0.2 c -3.5,5 -9.3,7.8 -16.1,7.8 -14.7,0 -25.2,-11.9 -25.2,-29.1 0,-19.1 12.4,-31.3 27,-31.3 8.2,0 13.3,3.5 16.3,8.4 h 0.2 l 0.6,-7.1 h 16 z m -19,24.2 c 0,-1.2 -0.1,-2.4 -0.4,-3.4 -1.3,-4.9 -4.9,-8.2 -10,-8.2 -6.7,0 -12.2,6.1 -12.2,16.9 0,8.9 4.4,15.8 12.2,15.8 4.7,0 8.5,-3.2 9.7,-7.5 0.5,-1.3 0.6,-3.3 0.6,-4.9 v -8.7 z"
   id="path482"
   inkscape:connector-curvature="0"
   style="fill:#004e87" />
			<path
   class="st3"
   d="m 528.8,132 c 0,-7.4 -0.2,-13.8 -0.5,-19 h 16.1 l 0.9,8.2 h 0.4 c 2.4,-3.8 8.5,-9.5 18.4,-9.5 12.2,0 21.3,8 21.3,25.6 v 35.3 h -18.5 v -33 c 0,-7.7 -2.7,-12.9 -9.4,-12.9 -5.1,0 -8.2,3.5 -9.4,6.9 -0.5,1.1 -0.7,2.9 -0.7,4.6 v 34.3 H 528.9 V 132 Z"
   id="path484"
   inkscape:connector-curvature="0"
   style="fill:#004e87" />
			<path
   class="st3"
   d="m 655.9,142.1 c 0,21.8 -15.5,31.8 -31.4,31.8 -17.4,0 -30.8,-11.4 -30.8,-30.7 0,-19.3 12.7,-31.5 31.8,-31.5 18.2,0 30.4,12.5 30.4,30.4 z m -43.1,0.6 c 0,10.2 4.3,17.9 12.2,17.9 7.2,0 11.8,-7.2 11.8,-17.9 0,-8.9 -3.4,-17.9 -11.8,-17.9 -8.9,0 -12.2,9.2 -12.2,17.9 z"
   id="path486"
   inkscape:connector-curvature="0"
   style="fill:#004e87" />
			<path
   class="st3"
   d="m 664.2,156.4 c 3.4,2.1 10.5,4.5 15.9,4.5 5.6,0 7.9,-1.9 7.9,-5 0,-3.1 -1.8,-4.5 -8.8,-6.8 -12.3,-4.1 -17,-10.8 -16.9,-17.9 0,-11.1 9.5,-19.5 24.2,-19.5 6.9,0 13.1,1.6 16.8,3.4 l -3.3,12.8 c -2.7,-1.5 -7.8,-3.4 -12.9,-3.4 -4.5,0 -7.1,1.8 -7.1,4.9 0,2.8 2.3,4.3 9.6,6.8 11.3,3.9 16.1,9.6 16.2,18.4 0,11.1 -8.8,19.2 -25.8,19.2 -7.8,0 -14.7,-1.7 -19.2,-4.1 z"
   id="path488"
   inkscape:connector-curvature="0"
   style="fill:#004e87" />
			<path
   class="st3"
   d="m 734.8,96 v 17 H 748 v 13.6 h -13.3 v 21.5 c 0,7.2 1.7,10.5 7.3,10.5 2.3,0 4.1,-0.2 5.5,-0.5 l 0.1,14 c -2.4,1 -6.8,1.6 -12.1,1.6 -6,0 -11,-2.1 -13.9,-5.1 -3.4,-3.5 -5.1,-9.2 -5.1,-17.6 v -24.3 h -7.9 V 113 h 7.9 v -12.9 z"
   id="path490"
   inkscape:connector-curvature="0"
   style="fill:#004e87" />
			<path
   class="st3"
   d="m 774.8,96.5 c 0,5.1 -3.9,9.2 -10,9.2 -5.8,0 -9.7,-4.1 -9.6,-9.2 -0.1,-5.4 3.8,-9.4 9.7,-9.4 5.9,0 9.8,4 9.9,9.4 z m -19.1,76 V 113 h 18.5 v 59.5 z"
   id="path492"
   inkscape:connector-curvature="0"
   style="fill:#004e87" />
			<path
   class="st3"
   d="m 830.7,171.1 c -3.3,1.5 -9.5,2.7 -16.6,2.7 -19.2,0 -31.5,-11.7 -31.5,-30.4 0,-17.4 11.9,-31.6 34.1,-31.6 4.9,0 10.2,0.9 14.1,2.3 l -2.9,13.8 c -2.2,-1 -5.5,-1.8 -10.3,-1.8 -9.7,0 -16.1,6.9 -15.9,16.7 0,11 7.3,16.7 16.3,16.7 4.4,0 7.8,-0.7 10.6,-1.8 z"
   id="path494"
   inkscape:connector-curvature="0"
   style="fill:#004e87" />
		</g>
	</g>
	<g
   class="st8"
   id="g570"
   style="display:inline">
		<path
   class="st4"
   d="m 399.7,241.7 c -2.5,0 -4.5,0.8 -6,2.5 -1.5,1.7 -2.2,4 -2.2,6.9 0,3 0.7,5.3 2.1,6.9 1.4,1.6 3.4,2.4 6,2.4 1.6,0 3.4,-0.3 5.5,-0.9 v 2.3 c -1.6,0.6 -3.5,0.9 -5.9,0.9 -3.4,0 -6,-1 -7.8,-3.1 -1.8,-2 -2.7,-4.9 -2.7,-8.7 0,-2.4 0.4,-4.4 1.3,-6.2 0.9,-1.8 2.2,-3.1 3.8,-4.1 1.7,-1 3.6,-1.4 5.9,-1.4 2.4,0 4.5,0.4 6.3,1.3 l -1.1,2.3 c -1.7,-0.7 -3.5,-1.1 -5.2,-1.1 z"
   id="path500"
   inkscape:connector-curvature="0"
   style="fill:#1d1d1b" />
		<path
   class="st4"
   d="m 421.5,262.5 v -11.1 c 0,-1.4 -0.3,-2.4 -1,-3.1 -0.6,-0.7 -1.6,-1 -3,-1 -1.8,0 -3.1,0.5 -3.9,1.5 -0.8,1 -1.2,2.6 -1.2,4.8 v 9 h -2.6 v -24.3 h 2.6 v 7.4 c 0,0.9 0,1.6 -0.1,2.2 h 0.2 c 0.5,-0.8 1.2,-1.5 2.2,-1.9 0.9,-0.5 2,-0.7 3.2,-0.7 2.1,0 3.7,0.5 4.7,1.5 1,1 1.6,2.6 1.6,4.7 v 11.2 h -2.7 z"
   id="path502"
   inkscape:connector-curvature="0"
   style="fill:#1d1d1b" />
		<path
   class="st4"
   d="m 436.6,262.9 c -2.5,0 -4.5,-0.8 -6,-2.3 -1.5,-1.5 -2.2,-3.7 -2.2,-6.4 0,-2.8 0.7,-5 2,-6.6 1.4,-1.6 3.2,-2.4 5.5,-2.4 2.1,0 3.8,0.7 5.1,2.1 1.3,1.4 1.9,3.3 1.9,5.6 v 1.6 h -11.8 c 0.1,2 0.6,3.5 1.5,4.6 1,1 2.3,1.6 4.1,1.6 1.8,0 3.7,-0.4 5.5,-1.2 v 2.3 c -0.9,0.4 -1.8,0.7 -2.6,0.9 -0.8,0.1 -1.8,0.2 -3,0.2 z m -0.7,-15.6 c -1.4,0 -2.5,0.4 -3.3,1.3 -0.8,0.9 -1.3,2.1 -1.4,3.7 h 9 c 0,-1.6 -0.4,-2.9 -1.1,-3.8 -0.8,-0.8 -1.8,-1.2 -3.2,-1.2 z"
   id="path504"
   inkscape:connector-curvature="0"
   style="fill:#1d1d1b" />
		<path
   class="st4"
   d="m 454.2,262.9 c -2.5,0 -4.4,-0.8 -5.8,-2.3 -1.4,-1.5 -2,-3.7 -2,-6.5 0,-2.9 0.7,-5.1 2.1,-6.6 1.4,-1.6 3.3,-2.3 5.9,-2.3 0.8,0 1.6,0.1 2.5,0.3 0.8,0.2 1.5,0.4 1.9,0.6 l -0.8,2.2 c -0.6,-0.2 -1.2,-0.4 -1.9,-0.6 -0.7,-0.2 -1.3,-0.2 -1.8,-0.2 -3.5,0 -5.2,2.2 -5.2,6.7 0,2.1 0.4,3.7 1.3,4.8 0.8,1.1 2.1,1.7 3.8,1.7 1.4,0 2.9,-0.3 4.4,-0.9 v 2.3 c -1.2,0.5 -2.7,0.8 -4.4,0.8 z"
   id="path506"
   inkscape:connector-curvature="0"
   style="fill:#1d1d1b" />
		<path
   class="st4"
   d="m 465.2,253.8 c 0.4,-0.6 1.1,-1.5 2,-2.5 l 5.5,-5.9 h 3.1 l -6.9,7.3 7.4,9.8 h -3.1 l -6.1,-8.1 -2,1.7 v 6.4 h -2.6 v -24.3 h 2.6 v 12.9 c 0,0.6 0,1.5 -0.1,2.7 z"
   id="path508"
   inkscape:connector-curvature="0"
   style="fill:#1d1d1b" />
		<path
   class="st4"
   d="m 478,255.1 v -2.4 h 7.7 v 2.4 z"
   id="path510"
   inkscape:connector-curvature="0"
   style="fill:#1d1d1b" />
		<path
   class="st4"
   d="m 492.2,245.4 v 11.1 c 0,1.4 0.3,2.4 1,3.1 0.6,0.7 1.6,1 3,1 1.8,0 3.1,-0.5 3.9,-1.5 0.8,-1 1.2,-2.6 1.2,-4.8 v -9 h 2.6 v 17.1 h -2.1 l -0.4,-2.3 h -0.1 c -0.5,0.8 -1.3,1.5 -2.2,1.9 -0.9,0.4 -2,0.7 -3.2,0.7 -2.1,0 -3.6,-0.5 -4.7,-1.5 -1,-1 -1.6,-2.6 -1.6,-4.8 v -11.2 h 2.6 z"
   id="path512"
   inkscape:connector-curvature="0"
   style="fill:#1d1d1b" />
		<path
   class="st4"
   d="m 517.4,262.9 c -1.1,0 -2.1,-0.2 -3.1,-0.6 -0.9,-0.4 -1.7,-1 -2.3,-1.9 h -0.2 c 0.1,1 0.2,1.9 0.2,2.8 v 7.1 h -2.6 v -24.8 h 2.1 l 0.4,2.3 h 0.1 c 0.7,-0.9 1.4,-1.6 2.3,-2 0.9,-0.4 1.9,-0.6 3,-0.6 2.3,0 4,0.8 5.3,2.3 1.2,1.6 1.9,3.7 1.9,6.5 0,2.8 -0.6,5 -1.9,6.6 -1.3,1.5 -3,2.3 -5.2,2.3 z M 517,247.3 c -1.8,0 -3,0.5 -3.8,1.5 -0.8,1 -1.2,2.5 -1.2,4.6 v 0.6 c 0,2.4 0.4,4.1 1.2,5.2 0.8,1 2.1,1.6 3.9,1.6 1.5,0 2.6,-0.6 3.5,-1.8 0.8,-1.2 1.3,-2.9 1.3,-5 0,-2.1 -0.4,-3.8 -1.3,-4.9 -0.9,-1.2 -2.1,-1.8 -3.6,-1.8 z"
   id="path514"
   inkscape:connector-curvature="0"
   style="fill:#1d1d1b" />
		<path
   class="st4"
   d="m 549,260.2 h -0.1 c -1.2,1.7 -3,2.6 -5.4,2.6 -2.2,0 -4,-0.8 -5.2,-2.3 -1.2,-1.5 -1.9,-3.7 -1.9,-6.5 0,-2.8 0.6,-5 1.9,-6.6 1.3,-1.6 3,-2.3 5.2,-2.3 2.3,0 4.1,0.8 5.3,2.5 h 0.2 l -0.1,-1.2 -0.1,-1.2 v -7 h 2.6 v 24.3 h -2.1 z m -5.2,0.5 c 1.8,0 3.1,-0.5 3.9,-1.4 0.8,-1 1.2,-2.5 1.2,-4.7 V 254 c 0,-2.4 -0.4,-4.2 -1.2,-5.2 -0.8,-1 -2.1,-1.6 -3.9,-1.6 -1.5,0 -2.7,0.6 -3.5,1.8 -0.8,1.2 -1.2,2.9 -1.2,5 0,2.2 0.4,3.8 1.2,5 0.8,1.1 1.9,1.7 3.5,1.7 z"
   id="path516"
   inkscape:connector-curvature="0"
   style="fill:#1d1d1b" />
		<path
   class="st4"
   d="m 564.2,262.9 c -2.5,0 -4.5,-0.8 -6,-2.3 -1.5,-1.5 -2.2,-3.7 -2.2,-6.4 0,-2.8 0.7,-5 2,-6.6 1.4,-1.6 3.2,-2.4 5.5,-2.4 2.1,0 3.8,0.7 5.1,2.1 1.3,1.4 1.9,3.3 1.9,5.6 v 1.6 h -11.8 c 0.1,2 0.6,3.5 1.5,4.6 1,1 2.3,1.6 4.1,1.6 1.8,0 3.7,-0.4 5.5,-1.2 v 2.3 c -0.9,0.4 -1.8,0.7 -2.6,0.9 -0.9,0.1 -1.8,0.2 -3,0.2 z m -0.7,-15.6 c -1.4,0 -2.5,0.4 -3.3,1.3 -0.8,0.9 -1.3,2.1 -1.4,3.7 h 9 c 0,-1.6 -0.4,-2.9 -1.1,-3.8 -0.8,-0.8 -1.9,-1.2 -3.2,-1.2 z"
   id="path518"
   inkscape:connector-curvature="0"
   style="fill:#1d1d1b" />
		<path
   class="st4"
   d="m 585.8,262.5 h -2.6 v -24.3 h 2.6 z"
   id="path520"
   inkscape:connector-curvature="0"
   style="fill:#1d1d1b" />
		<path
   class="st4"
   d="m 601.9,262.5 -0.5,-2.4 h -0.1 c -0.9,1.1 -1.7,1.8 -2.6,2.2 -0.8,0.4 -1.9,0.6 -3.2,0.6 -1.7,0 -3,-0.4 -4,-1.3 -1,-0.9 -1.4,-2.1 -1.4,-3.7 0,-3.5 2.8,-5.3 8.3,-5.4 l 2.9,-0.1 v -1.1 c 0,-1.3 -0.3,-2.3 -0.9,-3 -0.6,-0.6 -1.5,-1 -2.8,-1 -1.4,0 -3,0.4 -4.8,1.3 l -0.8,-2 c 0.8,-0.5 1.8,-0.8 2.8,-1.1 1,-0.3 2,-0.4 3,-0.4 2,0 3.6,0.5 4.5,1.4 1,0.9 1.5,2.4 1.5,4.4 v 11.7 h -1.9 z m -5.9,-1.8 c 1.6,0 2.9,-0.4 3.8,-1.3 0.9,-0.9 1.4,-2.1 1.4,-3.7 v -1.5 l -2.6,0.1 c -2.1,0.1 -3.6,0.4 -4.5,1 -0.9,0.6 -1.4,1.5 -1.4,2.7 0,0.9 0.3,1.7 0.9,2.1 0.6,0.4 1.4,0.6 2.4,0.6 z"
   id="path522"
   inkscape:connector-curvature="0"
   style="fill:#1d1d1b" />
		<path
   class="st4"
   d="m 628.5,257.9 c 0,1.6 -0.6,2.8 -1.8,3.7 -1.2,0.9 -2.9,1.3 -5,1.3 -2.3,0 -4,-0.4 -5.3,-1.1 v -2.4 c 0.8,0.4 1.7,0.7 2.7,1 0.9,0.2 1.9,0.4 2.7,0.4 1.4,0 2.4,-0.2 3.1,-0.6 0.7,-0.4 1.1,-1.1 1.1,-2 0,-0.7 -0.3,-1.2 -0.9,-1.7 -0.6,-0.5 -1.7,-1 -3.4,-1.7 -1.6,-0.6 -2.7,-1.1 -3.4,-1.6 -0.7,-0.4 -1.2,-0.9 -1.5,-1.5 -0.3,-0.6 -0.5,-1.2 -0.5,-2 0,-1.4 0.6,-2.5 1.7,-3.3 1.1,-0.8 2.7,-1.2 4.7,-1.2 1.8,0 3.6,0.4 5.4,1.1 l -0.9,2.1 c -1.7,-0.7 -3.3,-1.1 -4.7,-1.1 -1.2,0 -2.2,0.2 -2.8,0.6 -0.6,0.4 -0.9,0.9 -0.9,1.6 0,0.5 0.1,0.8 0.4,1.2 0.2,0.3 0.6,0.6 1.1,0.9 0.5,0.3 1.5,0.7 3,1.3 2,0.7 3.4,1.5 4.1,2.2 0.8,0.7 1.1,1.6 1.1,2.8 z"
   id="path524"
   inkscape:connector-curvature="0"
   style="fill:#1d1d1b" />
		<path
   class="st4"
   d="m 640,262.9 c -2.5,0 -4.5,-0.8 -6,-2.3 -1.5,-1.5 -2.2,-3.7 -2.2,-6.4 0,-2.8 0.7,-5 2,-6.6 1.4,-1.6 3.2,-2.4 5.5,-2.4 2.1,0 3.8,0.7 5.1,2.1 1.3,1.4 1.9,3.3 1.9,5.6 v 1.6 h -11.8 c 0.1,2 0.6,3.5 1.5,4.6 1,1 2.3,1.6 4.1,1.6 1.8,0 3.7,-0.4 5.5,-1.2 v 2.3 c -0.9,0.4 -1.8,0.7 -2.6,0.9 -0.9,0.1 -1.8,0.2 -3,0.2 z m -0.7,-15.6 c -1.4,0 -2.5,0.4 -3.3,1.3 -0.8,0.9 -1.3,2.1 -1.4,3.7 h 9 c 0,-1.6 -0.4,-2.9 -1.1,-3.8 -0.8,-0.8 -1.9,-1.2 -3.2,-1.2 z m -1.9,-4.6 c 0.5,-0.6 1,-1.4 1.6,-2.3 0.6,-0.9 1,-1.7 1.4,-2.4 h 3.2 v 0.3 c -0.5,0.7 -1.1,1.5 -2,2.5 -0.9,1 -1.7,1.8 -2.4,2.3 h -1.7 v -0.4 z"
   id="path526"
   inkscape:connector-curvature="0"
   style="fill:#1d1d1b" />
		<path
   class="st4"
   d="m 657.6,262.9 c -2.5,0 -4.4,-0.8 -5.8,-2.3 -1.4,-1.5 -2,-3.7 -2,-6.5 0,-2.9 0.7,-5.1 2.1,-6.6 1.4,-1.5 3.3,-2.3 5.9,-2.3 0.8,0 1.6,0.1 2.5,0.3 0.8,0.2 1.5,0.4 1.9,0.6 l -0.8,2.2 c -0.6,-0.2 -1.2,-0.4 -1.9,-0.6 -0.7,-0.2 -1.3,-0.2 -1.8,-0.2 -3.5,0 -5.2,2.2 -5.2,6.7 0,2.1 0.4,3.7 1.3,4.8 0.8,1.1 2.1,1.7 3.8,1.7 1.4,0 2.9,-0.3 4.4,-0.9 v 2.3 c -1.2,0.5 -2.7,0.8 -4.4,0.8 z"
   id="path528"
   inkscape:connector-curvature="0"
   style="fill:#1d1d1b" />
		<path
   class="st4"
   d="m 668.4,245.4 v 11.1 c 0,1.4 0.3,2.4 1,3.1 0.6,0.7 1.6,1 3,1 1.8,0 3.1,-0.5 3.9,-1.5 0.8,-1 1.2,-2.6 1.2,-4.8 v -9 h 2.6 v 17.1 H 678 l -0.4,-2.3 h -0.1 c -0.5,0.8 -1.3,1.5 -2.2,1.9 -0.9,0.4 -2,0.7 -3.2,0.7 -2.1,0 -3.6,-0.5 -4.7,-1.5 -1.1,-1 -1.6,-2.6 -1.6,-4.8 v -11.2 h 2.6 z"
   id="path530"
   inkscape:connector-curvature="0"
   style="fill:#1d1d1b" />
		<path
   class="st4"
   d="m 693.4,245.1 c 0.8,0 1.4,0.1 2,0.2 l -0.4,2.4 c -0.7,-0.2 -1.3,-0.2 -1.9,-0.2 -1.4,0 -2.6,0.6 -3.6,1.7 -1,1.1 -1.5,2.5 -1.5,4.2 v 9.2 h -2.6 v -17.1 h 2.1 l 0.3,3.2 h 0.1 c 0.6,-1.1 1.4,-2 2.3,-2.6 1.2,-0.7 2.2,-1 3.2,-1 z"
   id="path532"
   inkscape:connector-curvature="0"
   style="fill:#1d1d1b" />
		<path
   class="st4"
   d="m 698.5,240.8 c 0,-0.6 0.1,-1 0.4,-1.3 0.3,-0.3 0.7,-0.4 1.1,-0.4 0.4,0 0.8,0.1 1.1,0.4 0.3,0.3 0.5,0.7 0.5,1.3 0,0.6 -0.2,1 -0.5,1.3 -0.3,0.3 -0.7,0.4 -1.1,0.4 -0.4,0 -0.8,-0.1 -1.1,-0.4 -0.3,-0.3 -0.4,-0.8 -0.4,-1.3 z m 2.8,21.7 h -2.6 v -17.1 h 2.6 z"
   id="path534"
   inkscape:connector-curvature="0"
   style="fill:#1d1d1b" />
		<path
   class="st4"
   d="m 712.3,260.7 c 0.5,0 0.9,0 1.3,-0.1 0.4,-0.1 0.8,-0.1 1,-0.2 v 2 c -0.3,0.1 -0.7,0.2 -1.2,0.3 -0.5,0.1 -1,0.1 -1.5,0.1 -3.3,0 -5,-1.7 -5,-5.2 v -10.2 h -2.5 v -1.3 l 2.5,-1.1 1.1,-3.7 h 1.5 v 4 h 5 v 2 h -5 v 10.1 c 0,1 0.2,1.8 0.7,2.4 0.6,0.6 1.3,0.9 2.1,0.9 z"
   id="path536"
   inkscape:connector-curvature="0"
   style="fill:#1d1d1b" />
		<path
   class="st4"
   d="m 725.4,262.9 c -2.5,0 -4.5,-0.8 -6,-2.3 -1.5,-1.5 -2.2,-3.7 -2.2,-6.4 0,-2.8 0.7,-5 2,-6.6 1.4,-1.6 3.2,-2.4 5.5,-2.4 2.1,0 3.8,0.7 5.1,2.1 1.3,1.4 1.9,3.3 1.9,5.6 v 1.6 h -11.8 c 0.1,2 0.6,3.5 1.5,4.6 1,1 2.3,1.6 4.1,1.6 1.8,0 3.7,-0.4 5.5,-1.2 v 2.3 c -0.9,0.4 -1.8,0.7 -2.6,0.9 -0.9,0.1 -1.9,0.2 -3,0.2 z m -0.8,-15.6 c -1.4,0 -2.5,0.4 -3.3,1.3 -0.8,0.9 -1.3,2.1 -1.4,3.7 h 9 c 0,-1.6 -0.4,-2.9 -1.1,-3.8 -0.8,-0.8 -1.8,-1.2 -3.2,-1.2 z m -1.9,-4.6 c 0.5,-0.6 1,-1.4 1.6,-2.3 0.6,-0.9 1,-1.7 1.4,-2.4 h 3.2 v 0.3 c -0.5,0.7 -1.1,1.5 -2,2.5 -0.9,1 -1.7,1.8 -2.4,2.3 h -1.7 v -0.4 z"
   id="path538"
   inkscape:connector-curvature="0"
   style="fill:#1d1d1b" />
		<path
   class="st4"
   d="m 456.2,298.7 h -0.1 c -1.2,1.7 -3,2.6 -5.4,2.6 -2.2,0 -4,-0.8 -5.2,-2.3 -1.2,-1.5 -1.9,-3.7 -1.9,-6.5 0,-2.8 0.6,-5 1.9,-6.6 1.3,-1.6 3,-2.3 5.2,-2.3 2.3,0 4.1,0.8 5.3,2.5 h 0.2 l -0.1,-1.2 -0.1,-1.2 v -7 h 2.6 V 301 h -2.1 z m -5.2,0.4 c 1.8,0 3.1,-0.5 3.9,-1.4 0.8,-1 1.2,-2.5 1.2,-4.7 v -0.5 c 0,-2.4 -0.4,-4.2 -1.2,-5.2 -0.8,-1 -2.1,-1.6 -3.9,-1.6 -1.5,0 -2.7,0.6 -3.5,1.8 -0.8,1.2 -1.2,2.9 -1.2,5 0,2.2 0.4,3.8 1.2,5 0.8,1.1 2,1.6 3.5,1.6 z"
   id="path540"
   inkscape:connector-curvature="0"
   style="fill:#1d1d1b" />
		<path
   class="st4"
   d="m 471.4,301.3 c -2.5,0 -4.5,-0.8 -6,-2.3 -1.5,-1.5 -2.2,-3.7 -2.2,-6.4 0,-2.8 0.7,-5 2,-6.6 1.4,-1.6 3.2,-2.4 5.5,-2.4 2.1,0 3.8,0.7 5.1,2.1 1.3,1.4 1.9,3.3 1.9,5.6 v 1.6 h -11.8 c 0.1,2 0.6,3.5 1.5,4.6 1,1 2.3,1.6 4.1,1.6 1.8,0 3.7,-0.4 5.5,-1.2 v 2.3 c -0.9,0.4 -1.8,0.7 -2.6,0.9 -0.8,0.1 -1.8,0.2 -3,0.2 z m -0.7,-15.6 c -1.4,0 -2.5,0.4 -3.3,1.3 -0.8,0.9 -1.3,2.1 -1.4,3.7 h 9 c 0,-1.6 -0.4,-2.9 -1.1,-3.8 -0.8,-0.8 -1.8,-1.2 -3.2,-1.2 z"
   id="path542"
   inkscape:connector-curvature="0"
   style="fill:#1d1d1b" />
		<path
   class="st4"
   d="m 493.1,301 h -2.6 v -24.3 h 2.6 z"
   id="path544"
   inkscape:connector-curvature="0"
   style="fill:#1d1d1b" />
		<path
   class="st4"
   d="m 500.6,278.1 0.2,0.3 c -0.3,1 -0.7,2.3 -1.2,3.6 -0.5,1.4 -1,2.7 -1.6,3.9 h -1.9 c 0.7,-3 1.3,-5.6 1.6,-7.8 z"
   id="path546"
   inkscape:connector-curvature="0"
   style="fill:#1d1d1b" />
		<path
   class="st4"
   d="m 503.8,279.2 c 0,-0.6 0.1,-1 0.4,-1.3 0.3,-0.3 0.7,-0.4 1.1,-0.4 0.4,0 0.8,0.1 1.1,0.4 0.3,0.3 0.5,0.7 0.5,1.3 0,0.6 -0.2,1 -0.5,1.3 -0.3,0.3 -0.7,0.4 -1.1,0.4 -0.4,0 -0.8,-0.1 -1.1,-0.4 -0.3,-0.3 -0.4,-0.7 -0.4,-1.3 z m 2.8,21.8 H 504 v -17.1 h 2.6 z"
   id="path548"
   inkscape:connector-curvature="0"
   style="fill:#1d1d1b" />
		<path
   class="st4"
   d="m 523.8,301 v -11.1 c 0,-1.4 -0.3,-2.4 -1,-3.1 -0.7,-0.7 -1.6,-1 -3,-1 -1.8,0 -3.1,0.5 -3.9,1.5 -0.8,1 -1.3,2.6 -1.3,4.8 v 9 H 512 V 284 h 2.1 l 0.4,2.3 h 0.1 c 0.5,-0.8 1.3,-1.5 2.2,-2 1,-0.5 2,-0.7 3.2,-0.7 2.1,0 3.6,0.5 4.7,1.5 1,1 1.6,2.6 1.6,4.8 V 301 Z"
   id="path550"
   inkscape:connector-curvature="0"
   style="fill:#1d1d1b" />
		<path
   class="st4"
   d="m 539.5,285.9 h -4.4 V 301 h -2.6 v -15.1 h -3.1 v -1.2 l 3.1,-0.9 v -1 c 0,-4.2 1.8,-6.3 5.5,-6.3 0.9,0 2,0.2 3.2,0.5 l -0.7,2.1 c -1,-0.3 -1.9,-0.5 -2.6,-0.5 -1,0 -1.7,0.3 -2.2,1 -0.5,0.7 -0.7,1.7 -0.7,3.1 v 1.1 h 4.4 v 2.1 z"
   id="path552"
   inkscape:connector-curvature="0"
   style="fill:#1d1d1b" />
		<path
   class="st4"
   d="m 557.4,292.4 c 0,2.8 -0.7,5 -2.1,6.5 -1.4,1.6 -3.4,2.4 -5.8,2.4 -1.5,0 -2.9,-0.4 -4.1,-1.1 -1.2,-0.7 -2.1,-1.8 -2.8,-3.1 -0.6,-1.3 -1,-2.9 -1,-4.7 0,-2.8 0.7,-5 2.1,-6.5 1.4,-1.6 3.3,-2.3 5.8,-2.3 2.4,0 4.3,0.8 5.7,2.4 1.5,1.5 2.2,3.7 2.2,6.4 z m -13,0 c 0,2.2 0.4,3.9 1.3,5 0.9,1.1 2.2,1.7 3.9,1.7 1.7,0 3,-0.6 3.9,-1.7 0.9,-1.1 1.3,-2.8 1.3,-5 0,-2.2 -0.4,-3.8 -1.3,-5 -0.9,-1.1 -2.2,-1.7 -3.9,-1.7 -1.7,0 -3,0.6 -3.8,1.7 -1,1.1 -1.4,2.8 -1.4,5 z"
   id="path554"
   inkscape:connector-curvature="0"
   style="fill:#1d1d1b" />
		<path
   class="st4"
   d="m 569.8,283.5 c 0.8,0 1.4,0.1 2,0.2 l -0.4,2.4 c -0.7,-0.2 -1.3,-0.2 -1.9,-0.2 -1.4,0 -2.6,0.6 -3.6,1.7 -1,1.1 -1.5,2.5 -1.5,4.2 V 301 H 562 v -17.1 h 2.1 l 0.3,3.2 h 0.1 c 0.6,-1.1 1.4,-2 2.3,-2.6 0.9,-0.7 1.9,-1 3,-1 z"
   id="path556"
   inkscape:connector-curvature="0"
   style="fill:#1d1d1b" />
		<path
   class="st4"
   d="m 596.9,301 v -11.2 c 0,-1.4 -0.3,-2.4 -0.9,-3.1 -0.6,-0.7 -1.5,-1 -2.7,-1 -1.6,0 -2.8,0.5 -3.6,1.4 -0.8,0.9 -1.2,2.4 -1.2,4.3 V 301 H 586 v -11.2 c 0,-1.4 -0.3,-2.4 -0.9,-3.1 -0.6,-0.7 -1.5,-1 -2.7,-1 -1.6,0 -2.8,0.5 -3.6,1.5 -0.8,1 -1.1,2.6 -1.1,4.8 v 9 H 575 v -17.1 h 2.1 l 0.4,2.3 h 0.1 c 0.5,-0.8 1.2,-1.5 2.1,-2 0.9,-0.5 1.9,-0.7 3,-0.7 2.7,0 4.4,1 5.3,2.9 h 0.1 c 0.5,-0.9 1.3,-1.6 2.2,-2.1 1,-0.5 2.1,-0.8 3.3,-0.8 1.9,0 3.4,0.5 4.4,1.5 1,1 1.4,2.6 1.4,4.8 V 301 Z"
   id="path558"
   inkscape:connector-curvature="0"
   style="fill:#1d1d1b" />
		<path
   class="st4"
   d="m 615.4,301 -0.5,-2.4 h -0.1 c -0.9,1.1 -1.7,1.8 -2.6,2.2 -0.8,0.4 -1.9,0.6 -3.2,0.6 -1.7,0 -3,-0.4 -4,-1.3 -1,-0.9 -1.4,-2.1 -1.4,-3.7 0,-3.5 2.8,-5.3 8.3,-5.4 l 2.9,-0.1 v -1.1 c 0,-1.3 -0.3,-2.3 -0.9,-3 -0.6,-0.6 -1.5,-1 -2.8,-1 -1.4,0 -3,0.4 -4.8,1.3 l -0.8,-2 c 0.8,-0.5 1.8,-0.8 2.8,-1.1 1,-0.3 2,-0.4 3,-0.4 2,0 3.6,0.5 4.5,1.4 1,0.9 1.5,2.4 1.5,4.4 V 301 Z m -5.9,-1.9 c 1.6,0 2.9,-0.4 3.8,-1.3 0.9,-0.9 1.4,-2.1 1.4,-3.7 v -1.5 l -2.6,0.1 c -2.1,0.1 -3.6,0.4 -4.5,1 -0.9,0.6 -1.4,1.5 -1.4,2.7 0,0.9 0.3,1.7 0.9,2.1 0.6,0.4 1.4,0.6 2.4,0.6 z"
   id="path560"
   inkscape:connector-curvature="0"
   style="fill:#1d1d1b" />
		<path
   class="st4"
   d="m 628.2,299.1 c 0.5,0 0.9,0 1.3,-0.1 0.4,-0.1 0.8,-0.1 1,-0.2 v 2 c -0.3,0.1 -0.7,0.2 -1.2,0.3 -0.5,0.1 -1,0.1 -1.5,0.1 -3.3,0 -5,-1.7 -5,-5.2 v -10.2 h -2.5 v -1.3 l 2.5,-1.1 1.1,-3.7 h 1.5 v 4 h 5 v 2 h -5 v 10.1 c 0,1 0.2,1.8 0.7,2.4 0.6,0.7 1.2,0.9 2.1,0.9 z"
   id="path562"
   inkscape:connector-curvature="0"
   style="fill:#1d1d1b" />
		<path
   class="st4"
   d="m 633.7,279.2 c 0,-0.6 0.1,-1 0.4,-1.3 0.3,-0.3 0.7,-0.4 1.1,-0.4 0.4,0 0.8,0.1 1.1,0.4 0.3,0.3 0.5,0.7 0.5,1.3 0,0.6 -0.2,1 -0.5,1.3 -0.3,0.3 -0.7,0.4 -1.1,0.4 -0.4,0 -0.8,-0.1 -1.1,-0.4 -0.2,-0.3 -0.4,-0.7 -0.4,-1.3 z m 2.8,21.8 H 634 v -17.1 h 2.6 V 301 Z"
   id="path564"
   inkscape:connector-curvature="0"
   style="fill:#1d1d1b" />
		<path
   class="st4"
   d="m 656.8,292.4 c 0,2.8 -0.7,5 -2.1,6.5 -1.4,1.6 -3.4,2.4 -5.8,2.4 -1.5,0 -2.9,-0.4 -4.1,-1.1 -1.2,-0.7 -2.1,-1.8 -2.8,-3.1 -0.6,-1.3 -1,-2.9 -1,-4.7 0,-2.8 0.7,-5 2.1,-6.5 1.4,-1.6 3.3,-2.3 5.8,-2.3 2.4,0 4.3,0.8 5.7,2.4 1.5,1.5 2.2,3.7 2.2,6.4 z m -13,0 c 0,2.2 0.4,3.9 1.3,5 0.9,1.1 2.2,1.7 3.9,1.7 1.7,0 3,-0.6 3.9,-1.7 0.9,-1.1 1.3,-2.8 1.3,-5 0,-2.2 -0.4,-3.8 -1.3,-5 -0.9,-1.1 -2.2,-1.7 -3.9,-1.7 -1.7,0 -3,0.6 -3.8,1.7 -1,1.1 -1.4,2.8 -1.4,5 z"
   id="path566"
   inkscape:connector-curvature="0"
   style="fill:#1d1d1b" />
		<path
   class="st4"
   d="m 673.1,301 v -11.1 c 0,-1.4 -0.3,-2.4 -1,-3.1 -0.6,-0.7 -1.6,-1 -3,-1 -1.8,0 -3.1,0.5 -3.9,1.5 -0.8,1 -1.3,2.6 -1.3,4.8 v 9 h -2.6 V 284 h 2.1 l 0.4,2.3 h 0.1 c 0.5,-0.8 1.3,-1.5 2.2,-2 1,-0.5 2,-0.7 3.2,-0.7 2.1,0 3.6,0.5 4.7,1.5 1,1 1.6,2.6 1.6,4.8 V 301 Z"
   id="path568"
   inkscape:connector-curvature="0"
   style="fill:#1d1d1b" />
	</g>
	<path
   class="st7"
   d="m 27.7,178.1 v -0.7 c 0,-48.9 54.6,-88.6 121.9,-88.6 11.9,0 23.5,1.2 34.4,3.6 L 160.8,52.2 157.9,47.3 151.2,35.7 132.8,3.9 114.5,35.6 103,55 108.7,36.6 c -54.4,11.2 -95.2,59.3 -95.2,117 0,13.4 2.2,26.3 6.3,38.3 z"
   id="path572"
   inkscape:connector-curvature="0"
   style="display:inline;fill:#0066b1" />
	<path
   class="st7"
   d="m 154.2,239.8 c -31.9,-6.7 -64.6,-31.3 -86,-68.4 -6,-10.3 -10.7,-20.9 -14.1,-31.5 l -22.9,39.8 -3.1,5.3 -6.7,11.6 -18.3,31.8 h 36.6 l 22.6,0.2 -18.8,4.2 c 23.5,26.4 57.2,40.6 91.5,40 z"
   id="path574"
   inkscape:connector-curvature="0"
   style="display:inline;fill:#0066b1" />
	<g
   class="st8"
   id="g598"
   style="display:inline">
		<g
   id="XMLID_67_">
			<g
   id="XMLID_68_">
				<path
   id="XMLID_72_"
   class="st1"
   d="M 193.9,258.4 V 255.6 229 c 0,-1.1 0.9,-2 2,-2 h 3.9 v -5.8 h -8.7 c -1.6,0 -3,1.3 -3,3 V 292 c 0,1.6 1.3,3 3,3 h 51.7 c 1.6,0 3,-1.3 3,-3 v -67.7 c 0,-1.6 -1.3,-3 -3,-3 h -8.7 v 5.8 h 3.9 c 1.1,0 2,0.9 2,2 v 26.5 2.7 3.9 24 c 0,1.1 -0.9,2 -2,2 h -42.2 c -1.1,0 -2,-0.9 -2,-2 V 262 Z"
   inkscape:connector-curvature="0"
   style="fill:#ffd400" />
				<path
   id="XMLID_69_"
   class="st1"
   d="m 206.3,229.4 h 21.5 c 1.6,0 3,-1.3 3,-3 v -5.1 -0.9 -0.1 c 0,-0.3 0,-0.6 -0.1,-0.9 -0.4,-1.2 -1.5,-2.1 -2.8,-2.1 H 224 c 0,-0.2 0,-0.3 0,-0.5 0,-0.4 0,-0.8 -0.1,-1.2 -0.1,-0.6 -0.3,-1.2 -0.5,-1.7 -1.1,-2.4 -3.5,-4 -6.3,-4 -2.8,0 -5.2,1.7 -6.3,4 -0.3,0.5 -0.4,1.1 -0.5,1.7 -0.1,0.4 -0.1,0.8 -0.1,1.2 0,0.2 0,0.3 0,0.5 h -3.8 c -1.3,0 -2.5,0.9 -2.8,2.1 -0.1,0.3 -0.1,0.6 -0.1,0.9 v 0.1 0.9 5.1 c -0.2,1.6 1.1,3 2.8,3 z m 8,-13.8 c 0.5,-1 1.5,-1.7 2.7,-1.7 1.2,0 2.2,0.7 2.7,1.7 0.2,0.4 0.3,0.8 0.3,1.2 0,0.2 0,0.3 0,0.5 -0.2,0.9 -0.7,1.7 -1.5,2.1 -0.4,0.2 -0.9,0.3 -1.4,0.3 -0.5,0 -1,-0.1 -1.4,-0.3 -0.8,-0.4 -1.4,-1.2 -1.5,-2.1 0,-0.2 0,-0.3 0,-0.5 -0.1,-0.4 0,-0.9 0.1,-1.2 z"
   inkscape:connector-curvature="0"
   style="fill:#ffd400" />
			</g>
		</g>
		<g
   id="g596">
			<line
   class="st11"
   x1="210.7"
   y1="241.60001"
   x2="236.3"
   y2="241.60001"
   id="line580"
   style="fill:none;stroke:#ffd400;stroke-width:2.13520002;stroke-miterlimit:10" />
			<rect
   x="198.10001"
   y="238.10001"
   class="st12"
   width="7"
   height="7"
   id="rect582"
   style="fill:none;stroke:#ffd400;stroke-width:1.70829999;stroke-miterlimit:10" />
			<line
   class="st11"
   x1="210.7"
   y1="253.3"
   x2="236.3"
   y2="253.3"
   id="line584"
   style="fill:none;stroke:#ffd400;stroke-width:2.13520002;stroke-miterlimit:10" />
			<rect
   x="198.10001"
   y="249.8"
   class="st12"
   width="7"
   height="7"
   id="rect586"
   style="fill:none;stroke:#ffd400;stroke-width:1.70829999;stroke-miterlimit:10" />
			<line
   class="st11"
   x1="210.7"
   y1="265.10001"
   x2="236.3"
   y2="265.10001"
   id="line588"
   style="fill:none;stroke:#ffd400;stroke-width:2.13520002;stroke-miterlimit:10" />
			<rect
   x="198.10001"
   y="261.60001"
   class="st12"
   width="7"
   height="7"
   id="rect590"
   style="fill:none;stroke:#ffd400;stroke-width:1.70829999;stroke-miterlimit:10" />
			<line
   class="st11"
   x1="210.7"
   y1="276.79999"
   x2="236.3"
   y2="276.79999"
   id="line592"
   style="fill:none;stroke:#ffd400;stroke-width:2.13520002;stroke-miterlimit:10" />
			<rect
   x="198.10001"
   y="273.29999"
   class="st12"
   width="7"
   height="7"
   id="rect594"
   style="fill:none;stroke:#ffd400;stroke-width:1.70829999;stroke-miterlimit:10" />
		</g>
	</g>
	<path
   class="st10"
   d="m 39.5,153.3 c 0,-2.7 0.1,-5.5 0.3,-8.1 17.5,-30.8 59.5,-53.1 109.7,-53.1 14.1,0 27.3,2.1 41,5.1 L 174,68.4 c 3.8,1.8 7.4,3.8 10.8,6.1 19.7,30.4 18.7,79.5 -7.2,124.3 -7,12.2 -18.7,32.8 -18.7,32.8 0,0 -1.3,2.2 -3.1,5.3 C 125.3,230.2 92.1,206 71.1,169.7 64.1,157.5 59.3,145 55,131.7 l -15.3,26.6 c -0.1,-1.7 -0.2,-3.3 -0.2,-5"
   id="path600"
   inkscape:connector-curvature="0"
   style="display:inline;fill:#ffd400" />
	<line
   class="st9"
   x1="283.89999"
   y1="213.2"
   x2="836.29999"
   y2="213.2"
   id="line602"
   style="display:inline;fill:none;stroke:#828281;stroke-width:2.13520002;stroke-miterlimit:10" />
</g>
</svg>