<svg xmlns="http://www.w3.org/2000/svg" viewBox="0 0 152.42 57.5"><defs><style>.cls-1{fill:#ffd400;}.cls-2{fill:#006fba;}.cls-3{fill:#011e3a;}.cls-4{fill:#231f20;}</style></defs><g id="Layer_2" data-name="Layer 2"><g id="Ebene_1" data-name="Ebene 1"><path class="cls-1" d="M7.79,31.94c0-.58,0-1.16.08-1.74,3.74-6.58,12.71-11.34,23.45-11.34A41.11,41.11,0,0,1,40.09,20L36.54,13.8a20.32,20.32,0,0,1,2.32,1.31c4.2,6.5,4,17-1.55,26.57a40.62,40.62,0,0,1-5.32,7h7a20,20,0,0,1-2.4,1.35c-7.68.27-16.52-5.15-22-14.63a41,41,0,0,1-3.45-8.14L7.82,33c0-.35,0-.7,0-1.06"/><path class="cls-2" d="M47.57,48h-14a35.77,35.77,0,0,0,4.33-6c7.2-12.47,5.69-26.81-3.37-32l-.17-.09L32.7,7A25.54,25.54,0,0,1,52,40l-2.79-3,2.37,4.2L55.44,48H47.57M0,48l3.93-6.81L5.36,38.7,6,37.56l4.9-8.5a35.89,35.89,0,0,0,3,6.75c7.2,12.46,20.37,18.32,29.43,13.09l.14-.08h3.39A25.53,25.53,0,0,1,8.64,49l4-.91L7.83,48ZM27.73,0l3.93,6.8,1.43,2.47.61,1.05,5,8.59a35.77,35.77,0,0,0-7.35-.76c-14.39,0-26,8.48-26,18.93v.16l-1.7,2.94A25.55,25.55,0,0,1,22.58,7l-1.23,3.94,2.47-4.16Z"/><path class="cls-3" d="M72,26.52A5.68,5.68,0,0,1,67.7,25a6.16,6.16,0,0,1-1.47-4.42,6.05,6.05,0,0,1,1.59-4.48,6.12,6.12,0,0,1,4.52-1.59,8.46,8.46,0,0,1,3.81.88l-1.18,3a10.61,10.61,0,0,0-1.35-.51,4.18,4.18,0,0,0-1.28-.19,1.71,1.71,0,0,0-1.5.76,3.64,3.64,0,0,0-.54,2.14c0,1.86.69,2.79,2.06,2.79a6.2,6.2,0,0,0,3.39-1v3.19A6.58,6.58,0,0,1,72,26.52Z"/><path class="cls-3" d="M85.63,26.31l-.77-1.53h-.08a4.59,4.59,0,0,1-1.65,1.37,5.39,5.39,0,0,1-2.17.37,3.41,3.41,0,0,1-2.59-1,3.82,3.82,0,0,1-.94-2.76A3.17,3.17,0,0,1,78.72,20a7.15,7.15,0,0,1,3.74-1l1.94-.06v-.16A1.26,1.26,0,0,0,83,17.32a8.5,8.5,0,0,0-3.23.86L78.6,15.54a11.08,11.08,0,0,1,5.12-1,5,5,0,0,1,3.46,1.11,4,4,0,0,1,1.23,3.09v7.62Zm-3-2.62a1.83,1.83,0,0,0,1.24-.46,1.53,1.53,0,0,0,.52-1.2v-.91l-.92.05c-1.32,0-2,.53-2,1.45C81.52,23.33,81.9,23.69,82.66,23.69Z"/><path class="cls-3" d="M100.11,22.74a3.31,3.31,0,0,1-1.27,2.83,6.06,6.06,0,0,1-3.65.95,16.31,16.31,0,0,1-2.25-.14,9.38,9.38,0,0,1-2-.51V22.66a12,12,0,0,0,2.05.68,8.48,8.48,0,0,0,2,.27c.87,0,1.31-.2,1.31-.6a.7.7,0,0,0-.37-.55,17.27,17.27,0,0,0-2.12-.94A5.18,5.18,0,0,1,91.61,20,3.34,3.34,0,0,1,91,17.91a3,3,0,0,1,1.25-2.52,6,6,0,0,1,3.54-.9,8.77,8.77,0,0,1,2.16.25,12.63,12.63,0,0,1,2.1.74l-1.09,2.58a12.5,12.5,0,0,0-1.69-.61,5.55,5.55,0,0,0-1.46-.25c-.65,0-1,.16-1,.48a.6.6,0,0,0,.34.51,18.73,18.73,0,0,0,2,.85A7.91,7.91,0,0,1,99,20a3,3,0,0,1,.88,1.13A3.92,3.92,0,0,1,100.11,22.74Z"/><path class="cls-3" d="M107.94,26.52a6.26,6.26,0,0,1-4.5-1.54,5.83,5.83,0,0,1-1.61-4.4,6.35,6.35,0,0,1,1.49-4.52,5.58,5.58,0,0,1,4.24-1.57,5.65,5.65,0,0,1,4.06,1.37,5.21,5.21,0,0,1,1.43,3.94v1.79h-7.17a2,2,0,0,0,.71,1.52,2.81,2.81,0,0,0,1.84.56,9,9,0,0,0,1.94-.2,10.14,10.14,0,0,0,1.92-.68v2.88a7,7,0,0,1-2,.66A12.82,12.82,0,0,1,107.94,26.52Zm-.23-9.3a1.72,1.72,0,0,0-1.19.44,2.18,2.18,0,0,0-.56,1.4h3.45a2,2,0,0,0-.48-1.34A1.58,1.58,0,0,0,107.71,17.22Z"/><path class="cls-3" d="M124.29,22.74A3.34,3.34,0,0,1,123,25.57a6.06,6.06,0,0,1-3.65.95,16.31,16.31,0,0,1-2.25-.14,9.22,9.22,0,0,1-2-.51V22.66a11.73,11.73,0,0,0,2,.68,8.48,8.48,0,0,0,2,.27c.87,0,1.3-.2,1.3-.6a.68.68,0,0,0-.36-.55,17.27,17.27,0,0,0-2.12-.94A5.18,5.18,0,0,1,115.79,20a3.34,3.34,0,0,1-.64-2.12,3,3,0,0,1,1.25-2.52,6,6,0,0,1,3.54-.9,8.77,8.77,0,0,1,2.16.25,12.63,12.63,0,0,1,2.1.74l-1.09,2.58a12.5,12.5,0,0,0-1.69-.61A5.55,5.55,0,0,0,120,17.2c-.66,0-1,.16-1,.48a.6.6,0,0,0,.34.51,19.18,19.18,0,0,0,2,.85,7.7,7.7,0,0,1,1.82,1,3,3,0,0,1,.89,1.13A4.1,4.1,0,0,1,124.29,22.74Z"/><path class="cls-3" d="M126,24.61a1.87,1.87,0,0,1,.56-1.45,2.28,2.28,0,0,1,1.63-.52,2.14,2.14,0,0,1,1.55.52,2.16,2.16,0,0,1,0,2.89,2.16,2.16,0,0,1-1.54.52,2.33,2.33,0,0,1-1.6-.51A1.83,1.83,0,0,1,126,24.61Z"/><path class="cls-3" d="M136.59,26.31h-4V10.36h4Z"/><path class="cls-3" d="M147.65,26.31l-.51-1.44h-.23a3.27,3.27,0,0,1-1.4,1.22,4.79,4.79,0,0,1-2.11.43,3.93,3.93,0,0,1-3-1.11,4.39,4.39,0,0,1-1.07-3.15V14.7h4V21a3.75,3.75,0,0,0,.32,1.73,1.12,1.12,0,0,0,1.07.58,1.53,1.53,0,0,0,1.47-.82,6.24,6.24,0,0,0,.44-2.75V14.7h4V26.31Z"/><path class="cls-4" d="M68.28,31.18a1.37,1.37,0,0,0-1.11.47,1.89,1.89,0,0,0-.41,1.28,1.94,1.94,0,0,0,.39,1.3,1.41,1.41,0,0,0,1.13.46,3.69,3.69,0,0,0,1-.16V35a3.2,3.2,0,0,1-1.1.16,1.86,1.86,0,0,1-1.46-.57,2.38,2.38,0,0,1-.51-1.63,2.64,2.64,0,0,1,.24-1.16,1.85,1.85,0,0,1,.72-.77,2.16,2.16,0,0,1,1.1-.27,2.59,2.59,0,0,1,1.18.25l-.21.42A2.32,2.32,0,0,0,68.28,31.18Z"/><path class="cls-4" d="M69.65,31.86h.52l.71,1.84a6.15,6.15,0,0,1,.28.9h0a3.65,3.65,0,0,1,.16-.51c.08-.24.34-1,.79-2.23h.52l-1.38,3.66a1.7,1.7,0,0,1-.48.77,1,1,0,0,1-.67.23,2.2,2.2,0,0,1-.44-.05v-.39a2,2,0,0,0,.36,0,.74.74,0,0,0,.72-.56l.18-.46Z"/><path class="cls-4" d="M74.68,31.81a1.21,1.21,0,0,1,1,.43A1.94,1.94,0,0,1,76,33.47a2,2,0,0,1-.35,1.23,1.19,1.19,0,0,1-1,.43,1.48,1.48,0,0,1-.57-.11,1.1,1.1,0,0,1-.44-.36h0l-.11.42h-.35V30.52h.49v1.1c0,.25,0,.47,0,.67h0A1.16,1.16,0,0,1,74.68,31.81Zm-.07.41a.84.84,0,0,0-.72.29,2.16,2.16,0,0,0,0,1.92.84.84,0,0,0,.72.3.75.75,0,0,0,.67-.33,1.74,1.74,0,0,0,.22-.94,1.63,1.63,0,0,0-.22-.93A.77.77,0,0,0,74.61,32.22Z"/><path class="cls-4" d="M78.22,35.13a1.48,1.48,0,0,1-1.13-.43,1.69,1.69,0,0,1-.41-1.2,1.91,1.91,0,0,1,.38-1.24,1.29,1.29,0,0,1,1-.45,1.24,1.24,0,0,1,1,.39,1.57,1.57,0,0,1,.35,1v.31H77.19a1.3,1.3,0,0,0,.28.86,1,1,0,0,0,.77.29,2.5,2.5,0,0,0,1-.22v.44a3.49,3.49,0,0,1-.49.16A3,3,0,0,1,78.22,35.13Zm-.13-2.92a.79.79,0,0,0-.62.26,1.17,1.17,0,0,0-.27.69h1.68a1,1,0,0,0-.21-.7A.72.72,0,0,0,78.09,32.21Z"/><path class="cls-4" d="M81.69,31.81a2.29,2.29,0,0,1,.39,0l-.07.45a1.56,1.56,0,0,0-.35,0,.85.85,0,0,0-.67.31,1.21,1.21,0,0,0-.28.79v1.73h-.48V31.86h.4l.05.6h0a1.35,1.35,0,0,1,.43-.48A.92.92,0,0,1,81.69,31.81Z"/><path class="cls-4" d="M85.3,35.08l-.59-1.89c0-.11-.11-.38-.21-.78h0c-.08.34-.15.6-.21.79l-.6,1.88H83.1l-.87-3.22h.51c.21.81.36,1.43.47,1.85a8.23,8.23,0,0,1,.19.85h0c0-.11.06-.26.1-.43s.09-.32.13-.42l.59-1.85h.53l.57,1.85a6.24,6.24,0,0,1,.22.84h0a1.39,1.39,0,0,1,.06-.32c0-.15.24-.94.61-2.37h.5l-.88,3.22Z"/><path class="cls-4" d="M90.12,33.47a1.77,1.77,0,0,1-.4,1.22,1.37,1.37,0,0,1-1.09.44,1.43,1.43,0,0,1-.77-.2,1.32,1.32,0,0,1-.51-.58,2,2,0,0,1-.18-.88,1.8,1.8,0,0,1,.39-1.23,1.56,1.56,0,0,1,2.16,0A1.81,1.81,0,0,1,90.12,33.47Zm-2.45,0a1.45,1.45,0,0,0,.25.93.83.83,0,0,0,.72.33.85.85,0,0,0,.72-.32,1.5,1.5,0,0,0,.25-.94,1.45,1.45,0,0,0-.25-.93.86.86,0,0,0-.73-.32.85.85,0,0,0-.72.31A1.53,1.53,0,0,0,87.67,33.47Z"/><path class="cls-4" d="M92.43,31.81a2.29,2.29,0,0,1,.39,0l-.07.45a1.56,1.56,0,0,0-.35,0,.87.87,0,0,0-.67.31,1.21,1.21,0,0,0-.28.79v1.73H91V31.86h.4l0,.6h0a1.35,1.35,0,0,1,.43-.48A.92.92,0,0,1,92.43,31.81Z"/><path class="cls-4" d="M93.9,35.08h-.48V30.52h.48Z"/><path class="cls-4" d="M97.12,34.64h0a1.12,1.12,0,0,1-1,.49,1.18,1.18,0,0,1-1-.43,1.83,1.83,0,0,1-.35-1.22,1.88,1.88,0,0,1,.35-1.23,1.3,1.3,0,0,1,2,0h0l0-.23,0-.23v-1.3h.49v4.56h-.4Zm-1,.09a.89.89,0,0,0,.72-.27,1.39,1.39,0,0,0,.22-.88v-.1a1.59,1.59,0,0,0-.22-1,.87.87,0,0,0-.73-.3.73.73,0,0,0-.65.34,1.64,1.64,0,0,0-.23.93,1.59,1.59,0,0,0,.23.93A.76.76,0,0,0,96.15,34.73Z"/><path class="cls-4" d="M102.94,35.08l-.54-1.37h-1.71l-.53,1.37h-.51l1.7-4.31h.42l1.68,4.31Zm-.69-1.82-.5-1.32c-.07-.17-.13-.38-.2-.62a5.08,5.08,0,0,1-.18.62l-.51,1.32Z"/><path class="cls-4" d="M106.59,35.08,106,33.19c0-.11-.11-.38-.21-.78h0c-.08.34-.15.6-.21.79l-.6,1.88h-.57l-.87-3.22H104c.21.81.36,1.43.47,1.85a8.23,8.23,0,0,1,.19.85h0c0-.11.06-.26.1-.43s.09-.32.13-.42l.59-1.85h.53l.57,1.85a6.24,6.24,0,0,1,.22.84h0a1.39,1.39,0,0,1,.06-.32c0-.15.24-.94.61-2.37h.5l-.88,3.22Z"/><path class="cls-4" d="M110.61,35.08l-.1-.46h0A1.35,1.35,0,0,1,110,35a1.51,1.51,0,0,1-.6.1,1,1,0,0,1-.74-.24.88.88,0,0,1-.28-.7q0-1,1.56-1l.54,0V33a.81.81,0,0,0-.16-.56.67.67,0,0,0-.52-.18,2.2,2.2,0,0,0-.91.25l-.15-.37a2.36,2.36,0,0,1,.52-.21,2.78,2.78,0,0,1,.57-.07,1.22,1.22,0,0,1,.85.26,1,1,0,0,1,.28.81v2.2Zm-1.1-.35a1,1,0,0,0,.71-.25.87.87,0,0,0,.26-.69V33.5l-.48,0a1.69,1.69,0,0,0-.84.18.54.54,0,0,0-.26.49.51.51,0,0,0,.16.4A.64.64,0,0,0,109.51,34.73Z"/><path class="cls-4" d="M113.44,31.81a2.17,2.17,0,0,1,.38,0l-.07.45a1.56,1.56,0,0,0-.35,0,.87.87,0,0,0-.67.31,1.2,1.2,0,0,0-.27.79v1.73H112V31.86h.4l.06.6h0a1.35,1.35,0,0,1,.43-.48A.93.93,0,0,1,113.44,31.81Z"/><path class="cls-4" d="M115.78,35.13a1.48,1.48,0,0,1-1.13-.43,1.69,1.69,0,0,1-.41-1.2,1.91,1.91,0,0,1,.38-1.24,1.29,1.29,0,0,1,1-.45,1.24,1.24,0,0,1,1,.39,1.57,1.57,0,0,1,.35,1v.31h-2.21a1.25,1.25,0,0,0,.28.86,1,1,0,0,0,.76.29,2.51,2.51,0,0,0,1-.22v.44a4,4,0,0,1-.49.16A3,3,0,0,1,115.78,35.13Zm-.14-2.92a.79.79,0,0,0-.61.26,1.06,1.06,0,0,0-.27.69h1.68a1,1,0,0,0-.21-.7A.74.74,0,0,0,115.64,32.21Z"/><path class="cls-4" d="M120,35.08V33a.85.85,0,0,0-.18-.59.69.69,0,0,0-.55-.19.92.92,0,0,0-.74.27,1.35,1.35,0,0,0-.24.9v1.69h-.48V31.86h.39l.08.44h0a1,1,0,0,1,.42-.36,1.32,1.32,0,0,1,.6-.13,1.22,1.22,0,0,1,.88.28,1.19,1.19,0,0,1,.29.89v2.1Z"/><path class="cls-4" d="M122.83,35.13a1.48,1.48,0,0,1-1.13-.43,1.69,1.69,0,0,1-.41-1.2,1.91,1.91,0,0,1,.38-1.24,1.29,1.29,0,0,1,1-.45,1.21,1.21,0,0,1,1,.39,1.52,1.52,0,0,1,.36,1v.31h-2.22a1.31,1.31,0,0,0,.29.86,1,1,0,0,0,.76.29,2.51,2.51,0,0,0,1-.22v.44a4,4,0,0,1-.49.16A3,3,0,0,1,122.83,35.13Zm-.14-2.92a.79.79,0,0,0-.61.26,1.06,1.06,0,0,0-.27.69h1.67a1,1,0,0,0-.2-.7A.74.74,0,0,0,122.69,32.21Z"/><path class="cls-4" d="M126.91,34.2a.81.81,0,0,1-.34.69,1.57,1.57,0,0,1-.94.24,2,2,0,0,1-1-.2v-.45a2.47,2.47,0,0,0,.5.19,2.22,2.22,0,0,0,.51.06,1.14,1.14,0,0,0,.58-.12.39.39,0,0,0,.21-.37.41.41,0,0,0-.17-.32,2.48,2.48,0,0,0-.63-.32,3.08,3.08,0,0,1-.64-.29.83.83,0,0,1-.28-.28.76.76,0,0,1-.09-.38A.73.73,0,0,1,125,32a1.49,1.49,0,0,1,.88-.22,2.58,2.58,0,0,1,1,.21l-.17.39a2.45,2.45,0,0,0-.88-.2,1,1,0,0,0-.52.11.33.33,0,0,0-.18.3.32.32,0,0,0,.07.22.54.54,0,0,0,.21.17,3.92,3.92,0,0,0,.56.24,2.25,2.25,0,0,1,.78.42A.76.76,0,0,1,126.91,34.2Z"/><path class="cls-4" d="M129.77,34.2a.79.79,0,0,1-.34.69,1.56,1.56,0,0,1-.93.24,2,2,0,0,1-1-.2v-.45a2.72,2.72,0,0,0,.5.19,2.22,2.22,0,0,0,.51.06,1.14,1.14,0,0,0,.58-.12.39.39,0,0,0,.21-.37.4.4,0,0,0-.16-.32,2.81,2.81,0,0,0-.64-.32,2.72,2.72,0,0,1-.63-.29.87.87,0,0,1-.29-.28.76.76,0,0,1-.09-.38.73.73,0,0,1,.32-.62,1.51,1.51,0,0,1,.88-.22,2.58,2.58,0,0,1,1,.21l-.17.39a2.4,2.4,0,0,0-.88-.2,1,1,0,0,0-.52.11.32.32,0,0,0-.17.3.38.38,0,0,0,.06.22.62.62,0,0,0,.21.17,3.69,3.69,0,0,0,.57.24,2.18,2.18,0,0,1,.77.42A.76.76,0,0,1,129.77,34.2Z"/><path class="cls-4" d="M134.09,35.08l-.09-.46h0a1.35,1.35,0,0,1-.48.41,1.45,1.45,0,0,1-.59.1,1.09,1.09,0,0,1-.75-.24.91.91,0,0,1-.27-.7c0-.65.52-1,1.55-1l.55,0V33a.87.87,0,0,0-.16-.56.68.68,0,0,0-.52-.18,2.2,2.2,0,0,0-.91.25l-.15-.37a2.18,2.18,0,0,1,.52-.21,2.78,2.78,0,0,1,.57-.07,1.23,1.23,0,0,1,.85.26,1.07,1.07,0,0,1,.27.81v2.2Zm-1.1-.35a1,1,0,0,0,.72-.25.9.9,0,0,0,.26-.69V33.5l-.49,0a1.69,1.69,0,0,0-.84.18.53.53,0,0,0-.25.49.48.48,0,0,0,.16.4A.6.6,0,0,0,133,34.73Z"/><path class="cls-4" d="M137.65,35.08V33a.85.85,0,0,0-.18-.59.72.72,0,0,0-.56-.19.91.91,0,0,0-.73.27,1.35,1.35,0,0,0-.24.9v1.69h-.48V31.86h.39l.08.44h0a1,1,0,0,1,.42-.36,1.32,1.32,0,0,1,.6-.13,1.22,1.22,0,0,1,.88.28,1.19,1.19,0,0,1,.29.89v2.1Z"/><path class="cls-4" d="M141.32,34.64h0a1.14,1.14,0,0,1-1,.49,1.18,1.18,0,0,1-1-.43,1.89,1.89,0,0,1-.35-1.22,1.94,1.94,0,0,1,.35-1.23,1.3,1.3,0,0,1,2,0h0l0-.23V30.52h.48v4.56h-.39Zm-1,.09a.89.89,0,0,0,.72-.27,1.38,1.38,0,0,0,.23-.88v-.1a1.59,1.59,0,0,0-.23-1,.85.85,0,0,0-.73-.3.73.73,0,0,0-.65.34,1.64,1.64,0,0,0-.23.93,1.59,1.59,0,0,0,.23.93A.76.76,0,0,0,140.35,34.73Z"/><path class="cls-4" d="M68.87,41.44a1.06,1.06,0,0,1-.41.88,1.81,1.81,0,0,1-1.12.31,2.82,2.82,0,0,1-1.17-.19V42a3.28,3.28,0,0,0,.58.17,2.54,2.54,0,0,0,.61.07,1.29,1.29,0,0,0,.75-.19.62.62,0,0,0,.25-.53.64.64,0,0,0-.09-.36.78.78,0,0,0-.3-.26,4,4,0,0,0-.63-.28,2.07,2.07,0,0,1-.86-.5,1.13,1.13,0,0,1-.25-.77,1,1,0,0,1,.37-.79,1.56,1.56,0,0,1,1-.29,2.86,2.86,0,0,1,1.18.24l-.16.43a2.58,2.58,0,0,0-1-.22,1,1,0,0,0-.62.17.55.55,0,0,0-.22.47.74.74,0,0,0,.08.36.79.79,0,0,0,.28.26,3.6,3.6,0,0,0,.6.27,2.45,2.45,0,0,1,.92.51A1,1,0,0,1,68.87,41.44Z"/><path class="cls-4" d="M71,42.63a1.48,1.48,0,0,1-1.13-.43,1.69,1.69,0,0,1-.41-1.2,1.91,1.91,0,0,1,.38-1.24,1.29,1.29,0,0,1,1-.45,1.21,1.21,0,0,1,.95.39,1.52,1.52,0,0,1,.36,1v.31H70a1.31,1.31,0,0,0,.29.86,1,1,0,0,0,.76.29,2.51,2.51,0,0,0,1-.22v.44a4,4,0,0,1-.49.16A3,3,0,0,1,71,42.63Zm-.14-2.92a.79.79,0,0,0-.61.26,1.06,1.06,0,0,0-.27.69h1.67a1,1,0,0,0-.2-.7A.74.74,0,0,0,70.89,39.71Z"/><path class="cls-4" d="M74.32,42.63a1.35,1.35,0,0,1-1.08-.43A1.72,1.72,0,0,1,72.86,41a1.84,1.84,0,0,1,.38-1.24,1.38,1.38,0,0,1,1.11-.44,1.8,1.8,0,0,1,.46,0,1.66,1.66,0,0,1,.37.11l-.15.42a2,2,0,0,0-.35-.11,1.48,1.48,0,0,0-.34,0c-.65,0-1,.41-1,1.24a1.47,1.47,0,0,0,.24.91.83.83,0,0,0,.71.32,2.27,2.27,0,0,0,.82-.17v.43A1.77,1.77,0,0,1,74.32,42.63Z"/><path class="cls-4" d="M76.35,39.36v2.09a.82.82,0,0,0,.18.58.72.72,0,0,0,.56.2.91.91,0,0,0,.73-.28,1.35,1.35,0,0,0,.24-.9V39.36h.48v3.22h-.4l-.07-.44h0a.93.93,0,0,1-.41.37,1.46,1.46,0,0,1-.6.12,1.24,1.24,0,0,1-.88-.27,1.18,1.18,0,0,1-.29-.89V39.36Z"/><path class="cls-4" d="M81,39.31a2.17,2.17,0,0,1,.38,0l-.06.45a1.65,1.65,0,0,0-.36,0,.83.83,0,0,0-.66.31,1.16,1.16,0,0,0-.28.79v1.73h-.49V39.36H80l0,.6h0a1.37,1.37,0,0,1,.44-.48A.9.9,0,0,1,81,39.31Z"/><path class="cls-4" d="M82,38.49a.33.33,0,0,1,.08-.24.32.32,0,0,1,.21-.08.28.28,0,0,1,.2.08.3.3,0,0,1,.09.24.32.32,0,0,1-.09.25.28.28,0,0,1-.2.08.32.32,0,0,1-.21-.08A.36.36,0,0,1,82,38.49Zm.53,4.09H82V39.36h.49Z"/><path class="cls-4" d="M84.58,42.23a1.06,1.06,0,0,0,.25,0l.19,0v.38l-.23.06a1.47,1.47,0,0,1-.28,0c-.62,0-.93-.32-.93-1V39.74h-.46v-.23l.46-.2.2-.69h.28v.74H85v.38h-.93v1.89a.67.67,0,0,0,.14.45A.49.49,0,0,0,84.58,42.23Z"/><path class="cls-4" d="M85.15,39.36h.52l.7,1.84a6.55,6.55,0,0,1,.29.9h0c0-.1.08-.27.16-.51s.35-1,.8-2.23h.52L86.78,43a1.89,1.89,0,0,1-.48.77,1,1,0,0,1-.67.23,2.2,2.2,0,0,1-.44-.05v-.39a2,2,0,0,0,.36,0,.76.76,0,0,0,.72-.56l.17-.46Z"/><path class="cls-4" d="M92.7,42.58H90.31V38.29H92.7v.44H90.81v1.38h1.78v.44H90.81v1.58H92.7Z"/><path class="cls-4" d="M95.78,42.58V40.5a.85.85,0,0,0-.18-.59.73.73,0,0,0-.56-.19.93.93,0,0,0-.74.27,1.35,1.35,0,0,0-.24.9v1.69h-.48V39.36H94l.08.44h0a1,1,0,0,1,.42-.36,1.29,1.29,0,0,1,.6-.13,1.21,1.21,0,0,1,.87.28,1.19,1.19,0,0,1,.29.89v2.1Z"/><path class="cls-4" d="M99.46,42.58V40.5a.85.85,0,0,0-.18-.59.73.73,0,0,0-.56-.19A.93.93,0,0,0,98,40a1.46,1.46,0,0,0-.23.91v1.68h-.49V38h.49V39.4a2.37,2.37,0,0,1,0,.41h0a1.05,1.05,0,0,1,.41-.37,1.48,1.48,0,0,1,.61-.13,1.27,1.27,0,0,1,.88.28,1.16,1.16,0,0,1,.29.89v2.1Z"/><path class="cls-4" d="M102.92,42.58l-.1-.46h0a1.35,1.35,0,0,1-.48.41,1.51,1.51,0,0,1-.6.1,1.09,1.09,0,0,1-.75-.24.91.91,0,0,1-.27-.7q0-1,1.56-1l.54,0v-.2a.81.81,0,0,0-.16-.56.67.67,0,0,0-.52-.18,2.2,2.2,0,0,0-.91.25l-.15-.37a2.18,2.18,0,0,1,.52-.21,2.78,2.78,0,0,1,.57-.07,1.22,1.22,0,0,1,.85.26,1,1,0,0,1,.28.81v2.2Zm-1.1-.35a1,1,0,0,0,.71-.25.87.87,0,0,0,.26-.69V41l-.48,0a1.69,1.69,0,0,0-.84.18.54.54,0,0,0-.26.49.51.51,0,0,0,.16.4A.64.64,0,0,0,101.82,42.23Z"/><path class="cls-4" d="M106.48,42.58V40.5a.85.85,0,0,0-.18-.59.73.73,0,0,0-.56-.19A.93.93,0,0,0,105,40a1.35,1.35,0,0,0-.23.9v1.69h-.49V39.36h.4l.07.44h0a1,1,0,0,1,.42-.36,1.32,1.32,0,0,1,.6-.13,1.2,1.2,0,0,1,.87.28,1.15,1.15,0,0,1,.29.89v2.1Z"/><path class="cls-4" d="M109.25,42.63a1.35,1.35,0,0,1-1.08-.43,1.73,1.73,0,0,1-.39-1.21,1.79,1.79,0,0,1,.39-1.24,1.38,1.38,0,0,1,1.11-.44,1.8,1.8,0,0,1,.46,0,1.41,1.41,0,0,1,.36.11l-.14.42a1.89,1.89,0,0,0-.36-.11,1.4,1.4,0,0,0-.33,0c-.66,0-1,.41-1,1.24a1.47,1.47,0,0,0,.24.91.83.83,0,0,0,.7.32,2.28,2.28,0,0,0,.83-.17v.43A1.8,1.8,0,0,1,109.25,42.63Z"/><path class="cls-4" d="M112.18,42.63a1.48,1.48,0,0,1-1.13-.43,1.69,1.69,0,0,1-.41-1.2,1.91,1.91,0,0,1,.38-1.24,1.29,1.29,0,0,1,1-.45,1.21,1.21,0,0,1,1,.39,1.52,1.52,0,0,1,.36,1v.31h-2.22a1.31,1.31,0,0,0,.29.86,1,1,0,0,0,.76.29,2.51,2.51,0,0,0,1-.22v.44a4,4,0,0,1-.49.16A3,3,0,0,1,112.18,42.63ZM112,39.71a.79.79,0,0,0-.61.26,1.06,1.06,0,0,0-.27.69h1.68a1,1,0,0,0-.21-.7A.74.74,0,0,0,112,39.71Z"/><path class="cls-4" d="M118.28,42.58V40.49a.87.87,0,0,0-.17-.58.62.62,0,0,0-.51-.19.84.84,0,0,0-.67.26,1.25,1.25,0,0,0-.21.8v1.8h-.49V40.49a.87.87,0,0,0-.16-.58.64.64,0,0,0-.52-.19.82.82,0,0,0-.67.27,1.51,1.51,0,0,0-.21.9v1.69h-.48V39.36h.39l.08.44h0a1,1,0,0,1,.39-.36,1.18,1.18,0,0,1,.56-.13,1,1,0,0,1,1,.54h0a1.08,1.08,0,0,1,.42-.4,1.26,1.26,0,0,1,.62-.14,1.06,1.06,0,0,1,.81.28,1.23,1.23,0,0,1,.27.89v2.1Z"/><path class="cls-4" d="M121.12,42.63A1.46,1.46,0,0,1,120,42.2a1.65,1.65,0,0,1-.41-1.2,1.91,1.91,0,0,1,.38-1.24,1.29,1.29,0,0,1,1-.45,1.21,1.21,0,0,1,1,.39,1.52,1.52,0,0,1,.35,1v.31h-2.21a1.31,1.31,0,0,0,.29.86,1,1,0,0,0,.76.29,2.51,2.51,0,0,0,1-.22v.44a4.6,4.6,0,0,1-.49.16A3.06,3.06,0,0,1,121.12,42.63ZM121,39.71a.81.81,0,0,0-.62.26,1.17,1.17,0,0,0-.27.69h1.68a1.1,1.1,0,0,0-.2-.7A.74.74,0,0,0,121,39.71Z"/><path class="cls-4" d="M125.33,42.58V40.5a.85.85,0,0,0-.18-.59.72.72,0,0,0-.56-.19,1,1,0,0,0-.74.27,1.41,1.41,0,0,0-.23.9v1.69h-.49V39.36h.4l.08.44h0a1,1,0,0,1,.42-.36,1.32,1.32,0,0,1,.6-.13,1.18,1.18,0,0,1,.87.28,1.15,1.15,0,0,1,.3.89v2.1Z"/><path class="cls-4" d="M127.85,42.23a1,1,0,0,0,.25,0,.69.69,0,0,0,.19,0v.38l-.23.06a1.42,1.42,0,0,1-.28,0c-.62,0-.93-.32-.93-1V39.74h-.46v-.23l.46-.2.21-.69h.28v.74h.93v.38h-.93v1.89a.67.67,0,0,0,.13.45A.5.5,0,0,0,127.85,42.23Z"/><path class="cls-4" d="M133,41.44a1,1,0,0,1-.41.88,1.76,1.76,0,0,1-1.11.31,2.79,2.79,0,0,1-1.17-.19V42a2.94,2.94,0,0,0,.57.17,2.62,2.62,0,0,0,.62.07,1.29,1.29,0,0,0,.75-.19.71.71,0,0,0,.16-.89.78.78,0,0,0-.3-.26,3.8,3.8,0,0,0-.64-.28,2,2,0,0,1-.85-.5,1.14,1.14,0,0,1-.26-.77,1,1,0,0,1,.37-.79,1.6,1.6,0,0,1,1-.29,2.78,2.78,0,0,1,1.17.24l-.15.43a2.62,2.62,0,0,0-1-.22,1,1,0,0,0-.62.17.55.55,0,0,0-.22.47.64.64,0,0,0,.08.36.71.71,0,0,0,.28.26,3.42,3.42,0,0,0,.59.27,2.43,2.43,0,0,1,.93.51A1,1,0,0,1,133,41.44Z"/><path class="cls-4" d="M135.14,42.63A1.46,1.46,0,0,1,134,42.2a1.65,1.65,0,0,1-.41-1.2,1.86,1.86,0,0,1,.38-1.24,1.28,1.28,0,0,1,1-.45,1.21,1.21,0,0,1,.95.39,1.52,1.52,0,0,1,.35,1v.31h-2.21a1.25,1.25,0,0,0,.29.86,1,1,0,0,0,.76.29,2.47,2.47,0,0,0,1-.22v.44a3.85,3.85,0,0,1-.48.16A3.06,3.06,0,0,1,135.14,42.63ZM135,39.71a.81.81,0,0,0-.62.26,1.17,1.17,0,0,0-.27.69h1.68a1.1,1.1,0,0,0-.2-.7A.75.75,0,0,0,135,39.71Z"/><path class="cls-4" d="M138.62,39.31a2.17,2.17,0,0,1,.38,0l-.07.45a1.56,1.56,0,0,0-.35,0,.83.83,0,0,0-.66.31,1.16,1.16,0,0,0-.28.79v1.73h-.49V39.36h.4l.06.6h0a1.35,1.35,0,0,1,.43-.48A1,1,0,0,1,138.62,39.31Z"/><path class="cls-4" d="M140.3,42.58l-1.21-3.22h.52l.69,1.91a7.29,7.29,0,0,1,.27.87h0a6.74,6.74,0,0,1,.2-.65c.12-.32.37-1,.77-2.13h.52l-1.22,3.22Z"/><path class="cls-4" d="M142.57,38.49a.29.29,0,0,1,.08-.24.29.29,0,0,1,.4,0,.3.3,0,0,1,.09.24.32.32,0,0,1-.09.25.29.29,0,0,1-.4,0A.32.32,0,0,1,142.57,38.49Zm.52,4.09h-.48V39.36h.48Z"/><path class="cls-4" d="M145.41,42.63a1.35,1.35,0,0,1-1.08-.43A1.72,1.72,0,0,1,144,41a1.79,1.79,0,0,1,.38-1.24,1.38,1.38,0,0,1,1.11-.44,1.8,1.8,0,0,1,.46,0,1.66,1.66,0,0,1,.37.11l-.15.42a1.89,1.89,0,0,0-.36-.11,1.35,1.35,0,0,0-.33,0c-.65,0-1,.41-1,1.24a1.47,1.47,0,0,0,.24.91.83.83,0,0,0,.71.32,2.27,2.27,0,0,0,.82-.17v.43A1.8,1.8,0,0,1,145.41,42.63Z"/><path class="cls-4" d="M148.34,42.63a1.48,1.48,0,0,1-1.13-.43,1.69,1.69,0,0,1-.41-1.2,1.91,1.91,0,0,1,.38-1.24,1.29,1.29,0,0,1,1-.45,1.24,1.24,0,0,1,1,.39,1.57,1.57,0,0,1,.35,1v.31h-2.21a1.3,1.3,0,0,0,.28.86,1,1,0,0,0,.76.29,2.51,2.51,0,0,0,1-.22v.44a4,4,0,0,1-.49.16A3,3,0,0,1,148.34,42.63Zm-.13-2.92a.79.79,0,0,0-.62.26,1.06,1.06,0,0,0-.27.69H149a1,1,0,0,0-.21-.7A.73.73,0,0,0,148.21,39.71Z"/><path class="cls-4" d="M152.42,41.7a.79.79,0,0,1-.34.69,1.56,1.56,0,0,1-.93.24,2,2,0,0,1-1-.2V42a2.47,2.47,0,0,0,.5.19,2.22,2.22,0,0,0,.51.06,1.14,1.14,0,0,0,.58-.12.39.39,0,0,0,.21-.37.4.4,0,0,0-.16-.32,2.81,2.81,0,0,0-.64-.32,3.08,3.08,0,0,1-.64-.29.93.93,0,0,1-.28-.28.76.76,0,0,1-.09-.38.73.73,0,0,1,.32-.62,1.51,1.51,0,0,1,.88-.22,2.58,2.58,0,0,1,1,.21l-.17.39a2.4,2.4,0,0,0-.88-.2,1,1,0,0,0-.52.11.33.33,0,0,0-.18.3.38.38,0,0,0,.07.22.62.62,0,0,0,.21.17,3.69,3.69,0,0,0,.57.24,2.18,2.18,0,0,1,.77.42A.76.76,0,0,1,152.42,41.7Z"/><path class="cls-4" d="M66.4,51.58V47.29h.91v3.54H69v.75Z"/><path class="cls-4" d="M73.28,47.29v2.77a1.64,1.64,0,0,1-.22.84,1.34,1.34,0,0,1-.61.54,2.15,2.15,0,0,1-1,.19,1.81,1.81,0,0,1-1.28-.42,1.49,1.49,0,0,1-.46-1.16V47.29h.91v2.62a1.12,1.12,0,0,0,.19.73,1,1,0,0,0,1.31,0,1.14,1.14,0,0,0,.2-.73V47.29Z"/><path class="cls-4" d="M77.79,51.58h-1l-1-1.62-1,1.62h-1l1.42-2.21-1.33-2.08h1l.92,1.54.91-1.54h1l-1.34,2.13Z"/><path class="cls-4" d="M80.79,51.58H78.33V47.29h2.46V48H79.23V49h1.45v.74H79.23v1.11h1.56Z"/><path class="cls-4" d="M83.5,51.58l-1-3.36h0c0,.68.06,1.13.06,1.36v2h-.81V47.29h1.23l1,3.28h0L85,47.29h1.24v4.29h-.85V49.22c0-.13,0-.46,0-1h0l-1.11,3.36Z"/><path class="cls-4" d="M87.34,47.29h1.34a2.62,2.62,0,0,1,1.32.26.91.91,0,0,1,.41.83,1.07,1.07,0,0,1-.18.63.72.72,0,0,1-.48.29v0a1,1,0,0,1,.59.34,1.25,1.25,0,0,1-.24,1.58,1.85,1.85,0,0,1-1.15.33H87.34Zm.91,1.7h.53a.9.9,0,0,0,.53-.12.41.41,0,0,0,.17-.37.39.39,0,0,0-.18-.36,1.19,1.19,0,0,0-.57-.1h-.48Zm0,.72v1.12h.59a.87.87,0,0,0,.56-.15.52.52,0,0,0,.18-.44c0-.35-.26-.53-.77-.53Z"/><path class="cls-4" d="M95.26,49.43a2.31,2.31,0,0,1-.52,1.63,2,2,0,0,1-1.52.57,2,2,0,0,1-1.51-.57,2.34,2.34,0,0,1-.53-1.64,2.32,2.32,0,0,1,.53-1.63,2,2,0,0,1,1.52-.57,2,2,0,0,1,1.51.57A2.34,2.34,0,0,1,95.26,49.43Zm-3.12,0a1.79,1.79,0,0,0,.27,1.08,1,1,0,0,0,.81.36c.73,0,1.09-.48,1.09-1.44S94,48,93.23,48a1,1,0,0,0-.82.36A1.85,1.85,0,0,0,92.14,49.43Z"/><path class="cls-4" d="M99.64,47.29v2.77a1.55,1.55,0,0,1-.22.84,1.34,1.34,0,0,1-.61.54,2.15,2.15,0,0,1-1,.19,1.81,1.81,0,0,1-1.28-.42,1.49,1.49,0,0,1-.46-1.16V47.29H97v2.62a1.06,1.06,0,0,0,.2.73.79.79,0,0,0,.65.23.83.83,0,0,0,.65-.23,1.14,1.14,0,0,0,.2-.73V47.29Z"/><path class="cls-4" d="M101.59,49.93v1.65h-.9V47.29h1.24a2.16,2.16,0,0,1,1.3.32,1.15,1.15,0,0,1,.41,1,1.13,1.13,0,0,1-.2.67,1.45,1.45,0,0,1-.59.46c.64,1,1.06,1.58,1.26,1.87h-1l-1-1.65Zm0-.74h.3a1.07,1.07,0,0,0,.63-.14.52.52,0,0,0,.21-.45.46.46,0,0,0-.21-.43,1.24,1.24,0,0,0-.65-.13h-.28Z"/><path class="cls-4" d="M106.27,49.17H108v2.22a4.9,4.9,0,0,1-.78.19,4.53,4.53,0,0,1-.74.05,1.88,1.88,0,0,1-1.48-.57,2.36,2.36,0,0,1-.51-1.63,2.15,2.15,0,0,1,.59-1.62,2.24,2.24,0,0,1,1.64-.58,3.33,3.33,0,0,1,1.28.26l-.31.73a2.07,2.07,0,0,0-1-.23,1.2,1.2,0,0,0-.94.39,1.54,1.54,0,0,0-.36,1.07,1.69,1.69,0,0,0,.29,1.06,1,1,0,0,0,.83.37,2.76,2.76,0,0,0,.57-.06v-.89h-.81Z"/></g></g></svg>