<svg xmlns="http://www.w3.org/2000/svg" viewBox="0 0 162.07 72.39"><defs><style>.cls-1{fill:#1d1d1b;}.cls-2{fill:#009fe3;}</style></defs><g id="Layer_2" data-name="Layer 2"><g id="Ebene_1" data-name="Ebene 1"><rect class="cls-1" x="87.04" y="38.04" width="5.16" height="34.05"/><path class="cls-1" d="M0,27.45a15.71,15.71,0,0,1,.13-2c.09-.62.22-1.29.39-2h4v1.65a14.61,14.61,0,0,0,.17,2.43,5.63,5.63,0,0,0,.55,1.79,2.67,2.67,0,0,0,1,1.09,3.12,3.12,0,0,0,1.59.37,3,3,0,0,0,2.25-.8,3.28,3.28,0,0,0,.77-2.37,9.39,9.39,0,0,0-.1-1.46,5.93,5.93,0,0,0-.39-1.33,8.35,8.35,0,0,0-.72-1.38,18.36,18.36,0,0,0-1.18-1.63l-5.38-6.4a15.66,15.66,0,0,1-2.21-3.7,10.18,10.18,0,0,1-.78-4A8.74,8.74,0,0,1,.67,4.6,7,7,0,0,1,2.19,2.16,6.92,6.92,0,0,1,4.66.57,9,9,0,0,1,8,0a9.55,9.55,0,0,1,3.76.64,6.53,6.53,0,0,1,2.41,1.67A6.26,6.26,0,0,1,15.4,4.63a9.21,9.21,0,0,1,.37,2.59,11.53,11.53,0,0,1-.17,2q-.16.93-.39,2h-4V9.67a9,9,0,0,0-.77-4.16A2.67,2.67,0,0,0,7.91,4.07a2.78,2.78,0,0,0-2.17.8A3.14,3.14,0,0,0,5,7a7.13,7.13,0,0,0,.11,1.29A5,5,0,0,0,5.45,9.4a6.23,6.23,0,0,0,.51.95c.2.3.43.62.68,1l6,7.26a20.41,20.41,0,0,1,2.51,4.1A10,10,0,0,1,16,26.81a8.9,8.9,0,0,1-.57,3.27,6.94,6.94,0,0,1-1.62,2.48,7.43,7.43,0,0,1-2.56,1.56,9.61,9.61,0,0,1-3.37.55,10.27,10.27,0,0,1-3.83-.62,6.53,6.53,0,0,1-2.44-1.63A5.81,5.81,0,0,1,.37,30.1,9.42,9.42,0,0,1,0,27.45"/><polygon class="cls-1" points="20.38 0.3 20.38 34.35 33.19 34.35 33.19 30.28 25.54 30.28 25.54 18.62 31.3 18.62 31.3 14.55 25.54 14.55 25.54 4.37 32.99 4.37 32.99 0.3 20.38 0.3"/><path class="cls-1" d="M44.26,34.65a12.08,12.08,0,0,1-1.73-.13A7,7,0,0,1,40.68,34a6.56,6.56,0,0,1-1.77-1.19,6.73,6.73,0,0,1-1.5-2,12.48,12.48,0,0,1-1-3.1,21.51,21.51,0,0,1-.39-4.4V11.2a21.21,21.21,0,0,1,.4-4.39,12.2,12.2,0,0,1,1.06-3.07,6.75,6.75,0,0,1,1.52-2A6.81,6.81,0,0,1,40.73.63,7,7,0,0,1,42.55.12,13,13,0,0,1,44.24,0a8.88,8.88,0,0,1,3.4.57,5.67,5.67,0,0,1,2.19,1.55A5.9,5.9,0,0,1,51,4.43a10.88,10.88,0,0,1,.35,2.79,18,18,0,0,1-.11,2q-.12.93-.33,2H46.73V9.55a11,11,0,0,0-.62-4.21A2,2,0,0,0,44.3,4,2.66,2.66,0,0,0,43,4.23a2.09,2.09,0,0,0-.89.94,5.78,5.78,0,0,0-.55,1.77,16,16,0,0,0-.19,2.73V25.22a19.37,19.37,0,0,0,.15,2.65,5.14,5.14,0,0,0,.49,1.7,2,2,0,0,0,.88.9,3,3,0,0,0,1.33.27,2.06,2.06,0,0,0,1-.23,2.23,2.23,0,0,0,.8-.71,4.07,4.07,0,0,0,.56-1.24,6.58,6.58,0,0,0,.21-1.76V23.46h4.73v3.16q0,4.1-1.88,6.05a7.13,7.13,0,0,1-5.38,2"/><path class="cls-1" d="M55.46.3h5.21v25a17.71,17.71,0,0,0,.16,2.65,4.64,4.64,0,0,0,.51,1.68,2,2,0,0,0,.89.9,2.94,2.94,0,0,0,1.31.27,3,3,0,0,0,1.32-.27,2.08,2.08,0,0,0,.94-.9,5,5,0,0,0,.56-1.68,15,15,0,0,0,.19-2.65V.3h5.14V23.88a19.42,19.42,0,0,1-.4,4.27,11.16,11.16,0,0,1-1.05,3A6.43,6.43,0,0,1,68.73,33,6.71,6.71,0,0,1,67,34.08a6.82,6.82,0,0,1-1.81.47,13.33,13.33,0,0,1-3.26,0A6.73,6.73,0,0,1,58.39,33a6.73,6.73,0,0,1-1.49-1.9,11.08,11.08,0,0,1-1-3,20.15,20.15,0,0,1-.39-4.28Z"/><path class="cls-1" d="M77.39.3H83c.63,0,1.34,0,2.1.08a11.43,11.43,0,0,1,2.29.39,9.07,9.07,0,0,1,2.22.92,6.58,6.58,0,0,1,1.89,1.7,8.5,8.5,0,0,1,1.32,2.7,13.34,13.34,0,0,1,.5,3.94v.85a15.44,15.44,0,0,1-1.11,6.34,7,7,0,0,1-3.29,3.51l5.46,13.62H88.92L84.39,21.61H82.46V34.35H77.39Zm5.84,17.58a7.64,7.64,0,0,0,2.3-.3,3.06,3.06,0,0,0,1.51-1,4.36,4.36,0,0,0,.84-1.88,13.68,13.68,0,0,0,.26-2.88V9.13a9.41,9.41,0,0,0-.24-2.27,3.6,3.6,0,0,0-.81-1.58,3.43,3.43,0,0,0-1.5-.91,7.88,7.88,0,0,0-2.36-.3h-.77V17.88Z"/><rect class="cls-1" x="98.29" y="0.3" width="5.16" height="34.05"/><polygon class="cls-1" points="106.94 0.3 106.94 4.37 112.42 4.37 112.42 34.35 117.58 34.35 117.58 4.37 123.05 4.37 123.05 0.3 106.94 0.3"/><polygon class="cls-1" points="137.46 0.3 133.34 16.59 133.1 16.59 128.93 0.3 123.73 0.3 130.58 23.01 130.58 34.35 135.75 34.35 135.75 23.01 142.65 0.3 137.46 0.3"/><rect class="cls-1" x="87.04" y="38.04" width="5.16" height="34.05"/><path class="cls-1" d="M98.13,38h4.18l8.26,22.79h.12c0-.54-.1-1.13-.16-1.78s-.13-1.39-.18-2.22-.1-1.77-.14-2.82-.06-2.23-.06-3.55V38h4.62V72.09h-4.22L102.33,49.9h-.16c0,.6.1,1.25.16,2s.13,1.51.18,2.46.1,2,.14,3.3.06,2.74.06,4.47v10H98.13Z"/><path class="cls-1" d="M119.5,68.52a4.43,4.43,0,0,1,.84-3,2.91,2.91,0,0,1,2.27-.92,2.84,2.84,0,0,1,2.31,1,4.52,4.52,0,0,1,.82,3,4.37,4.37,0,0,1-.83,2.84,3.12,3.12,0,0,1-4.57,0,4.27,4.27,0,0,1-.84-2.87"/><path class="cls-2" d="M1.42,38H8.15l3.27,13.18c.35,1.46.62,2.85.82,4.17s.39,2.57.58,3.74H13c.18-1.17.38-2.41.58-3.74s.47-2.71.81-4.17L17.74,38h6.6V72.09H19.52V60.83c0-1.73,0-3.39.05-5s.07-3.06.13-4.39.11-2.52.17-3.54.13-1.84.19-2.44h-.38L14.53,67.71H11.26L6.08,45.47H5.7c0,.6.11,1.41.18,2.44s.13,2.2.18,3.54.09,2.8.13,4.39,0,3.26,0,5V72.09H1.42Z"/><path class="cls-2" d="M33.91,38h5.94l6.3,34.05H40.93L40,66H33.77l-.9,6.1H27.63ZM39.39,62.1,37,45.14h-.22l-2.41,17Z"/><path class="cls-2" d="M49.44,38h5.37c.81,0,1.65,0,2.52.07a11,11,0,0,1,2.55.43,8.53,8.53,0,0,1,2.35,1.1,6.84,6.84,0,0,1,2,2.1,11.1,11.1,0,0,1,1.32,3.39,21.51,21.51,0,0,1,.49,5V60a21.72,21.72,0,0,1-.49,5,11.1,11.1,0,0,1-1.32,3.39,6.91,6.91,0,0,1-2,2.09,8.53,8.53,0,0,1-2.35,1.1,11.53,11.53,0,0,1-2.55.43c-.87,0-1.71.07-2.52.07H49.44Zm6.48,30.44a6.36,6.36,0,0,0,2.31-.36,2.86,2.86,0,0,0,1.43-1.26,6.83,6.83,0,0,0,.73-2.48,32.75,32.75,0,0,0,.2-3.95V49.86a33.06,33.06,0,0,0-.2-4,6.83,6.83,0,0,0-.73-2.47,2.88,2.88,0,0,0-1.43-1.27,6.38,6.38,0,0,0-2.31-.35H54.61V68.48Z"/><polygon class="cls-2" points="70.5 38.04 83.12 38.04 83.12 42.1 75.66 42.1 75.66 52.29 81.42 52.29 81.42 56.36 75.66 56.36 75.66 68.02 83.31 68.02 83.31 72.09 70.5 72.09 70.5 38.04"/><polygon class="cls-2" points="130.49 38.04 135.65 38.04 135.65 68.02 142.69 68.02 142.69 72.09 130.49 72.09 130.49 38.04"/><path class="cls-2" d="M145.84,38H151V63a17.71,17.71,0,0,0,.16,2.65,5.07,5.07,0,0,0,.51,1.68,2,2,0,0,0,.89.9,3,3,0,0,0,1.31.27,3.07,3.07,0,0,0,1.33-.27,2.06,2.06,0,0,0,.93-.9,4.78,4.78,0,0,0,.56-1.68,15,15,0,0,0,.19-2.65V38h5.15V61.62a20.12,20.12,0,0,1-.4,4.27,11.51,11.51,0,0,1-1.06,3,6.26,6.26,0,0,1-1.51,1.89,6.76,6.76,0,0,1-1.75,1.07,6.65,6.65,0,0,1-1.8.47,14.22,14.22,0,0,1-1.64.1,13.76,13.76,0,0,1-1.62-.1,6.59,6.59,0,0,1-1.79-.47,6.66,6.66,0,0,1-1.73-1.07,6.39,6.39,0,0,1-1.5-1.89,11.22,11.22,0,0,1-1-3,20.15,20.15,0,0,1-.39-4.28Z"/></g></g></svg>