<?xml version="1.0" encoding="UTF-8"?>
<svg id="Layer_2" data-name="Layer 2" xmlns="http://www.w3.org/2000/svg" viewBox="0 0 569.88 566.69">
  <g id="Layer_1-2" data-name="Layer 1">
    <path d="m516.15,51.16c-8.45,0-15.29-6.85-15.29-15.29s6.84-15.29,15.29-15.29,15.3,6.86,15.3,15.29-6.84,15.29-15.3,15.29h0Zm-54.08,0c-8.45,0-15.28-6.85-15.28-15.29s6.83-15.29,15.28-15.29,15.29,6.86,15.29,15.29-6.84,15.29-15.29,15.29h0Zm-54.08,0c-8.44,0-15.28-6.85-15.28-15.29s6.84-15.29,15.28-15.29,15.31,6.86,15.31,15.29-6.86,15.29-15.31,15.29h0ZM556.88,0H12.99C5.81,0,0,5.81,0,12.97v58.78h569.88V12.97c0-7.16-5.82-12.97-13-12.97h0Z" fill="#e30613" stroke-width="0"/>
    <path d="m0,347.52c0,7.19,5.81,13,12.99,13h162.86l3.74-2.73c-23.52-64.95-3.05-138.9,52.75-182.39,28.68-22.35,63.01-34.16,99.3-34.16,50.26,0,96.76,22.69,127.62,62.28,35.98,46.16,42.9,105.89,23.53,157h74.09c7.18,0,13-5.81,13-13V96.33H0v251.19h0Z" fill="#09f" stroke-width="0"/>
    <path d="m398.88,389.07c-47.51,37.04-116.27,28.5-153.28-18.99-37.03-47.51-28.5-116.27,19-153.28,47.5-37.01,116.25-28.5,153.28,18.99,37.01,47.49,28.49,116.27-19,153.28h0Zm-151.43-194.27c-52.96,41.27-67.35,113.69-37.47,171.22L15.83,508.01c-14.8,10.81-17.71,31.71-6.45,46.17,11.27,14.45,32.26,16.72,46.36,5.02l185.1-153.59c48.48,43.03,122.22,46.75,175.19,5.48,59.73-46.57,70.41-132.71,23.85-192.46-46.55-59.73-132.71-70.41-192.43-23.83h0Z" fill="#878786" stroke-width="0"/>
    <g>
      <polygon points="263.4 234.61 290.25 234.61 317.11 261.46 317.11 288.32 290.25 288.32 263.4 261.46 263.4 234.61" fill="#e30613" stroke-width="0"/>
      <polygon points="397.67 234.61 370.81 234.61 343.96 261.46 343.96 288.32 370.81 288.32 397.67 261.46 397.67 234.61" fill="#009fe3" stroke-width="0"/>
      <polygon points="343.96 315.17 370.81 315.17 397.67 342.02 397.67 368.88 370.81 368.88 343.96 342.02 343.96 315.17" fill="#e30613" stroke-width="0"/>
      <polygon points="317.11 315.17 290.25 315.17 263.4 342.02 263.4 368.88 290.25 368.88 317.11 342.02 317.11 315.17" fill="#009fe3" stroke-width="0"/>
    </g>
  </g>
</svg>
