<?xml version="1.0" encoding="UTF-8" standalone="no"?>
<!-- Generator: Adobe Illustrator 19.2.0, SVG Export Plug-In . SVG Version: 6.00 Build 0)  -->

<svg
   version="1.1"
   id="Layer_1"
   x="0px"
   y="0px"
   viewBox="0 0 1400.9 327.4"
   xml:space="preserve"
   sodipodi:docname="logo-Fit4OperatorSurvey.svg"
   width="1400.9"
   height="327.39999"
   inkscape:version="1.1.1 (3bf5ae0d25, 2021-09-20)"
   inkscape:export-filename="C:\Users\fabie\Downloads\logo-Fit4OperatorSurvey.png"
   inkscape:export-xdpi="96"
   inkscape:export-ydpi="96"
   xmlns:inkscape="http://www.inkscape.org/namespaces/inkscape"
   xmlns:sodipodi="http://sodipodi.sourceforge.net/DTD/sodipodi-0.dtd"
   xmlns="http://www.w3.org/2000/svg"
   xmlns:svg="http://www.w3.org/2000/svg"><defs
   id="defs173"><rect
   x="334.21362"
   y="245.08999"
   width="988.31742"
   height="47.744803"
   id="rect46097" /><rect
   x="268.9624"
   y="31.829868"
   width="231.56229"
   height="70.025711"
   id="rect5177" />
	
	
	
	
	
	
	
	
	
</defs><sodipodi:namedview
   id="namedview171"
   pagecolor="#ffffff"
   bordercolor="#666666"
   borderopacity="1.0"
   inkscape:pageshadow="2"
   inkscape:pageopacity="0.0"
   inkscape:pagecheckerboard="0"
   showgrid="false"
   inkscape:zoom="0.62834064"
   inkscape:cx="590.44406"
   inkscape:cy="105.83431"
   inkscape:window-width="1864"
   inkscape:window-height="1081"
   inkscape:window-x="53"
   inkscape:window-y="859"
   inkscape:window-maximized="0"
   inkscape:current-layer="Layer_1"
   width="1400.9px" />
<style
   type="text/css"
   id="style2">
	.st0{display:none;fill:#0066B1;}
	.st1{fill:#0066B1;}
	.st2{fill:#FFD400;}
	.st3{fill:#002042;}
	.st4{fill:#004E87;}
	.st5{fill:#1D1D1B;}
	.st6{fill:none;stroke:#828281;stroke-width:2.1205;stroke-miterlimit:10;}
	.st7{fill:none;stroke:#FFD400;stroke-width:2.1205;stroke-miterlimit:10;}
	.st8{fill:none;stroke:#FFD400;stroke-width:1.6965;stroke-miterlimit:10;}
</style>
<path
   class="st1"
   d="m 248.4,198.7 v 0 l -12.7,-21.9 14.5,14.7 C 264.1,140.8 242.8,85.1 195.1,57.6 183.5,51 171.3,46.5 158.9,44 l 7.8,13.6 0.8,0.4 c 41.9,24.2 49,90.4 16,148.2 L 167,234.6 v 0 l -6.8,11.8 -18.6,32.1 -22.9,39.5 h 198.8 z"
   id="path4" /><path
   class="st2"
   d="m 43.2,160 c 0,-2.7 0.1,-5.4 0.3,-8.1 17.4,-30.6 59.1,-52.7 109,-52.7 14,0 27.1,2.1 40.7,5 L 176.7,75.6 c 3.7,1.8 7.3,3.8 10.8,6.1 19.5,30.2 18.5,78.9 -7.2,123.4 -7,12.1 -18.6,32.6 -18.6,32.6 0,0 -1.3,2.2 -3,5.3 -30.3,-6.6 -63.3,-30.7 -84.1,-66.8 -7,-12.1 -11.7,-24.6 -16,-37.8 l -15.2,26.4 c -0.2,-1.6 -0.2,-3.2 -0.2,-4.8"
   id="path6" /><path
   class="st1"
   d="m 31.5,184.6 v -0.7 c 0,-48.6 54.2,-88 121.1,-88 11.8,0 23.3,1.2 34.1,3.5 L 163.6,59.5 160.8,54.6 154.2,43.1 135.9,11.5 117.7,43 106.3,62.3 112,44 c -54,11.1 -94.5,58.9 -94.5,116.1 0,13.3 2.2,26.1 6.2,38 z"
   id="path8" /><path
   class="st1"
   d="M 157.1,245.8 C 125.4,239.1 93,214.7 71.7,177.9 65.8,167.6 61.1,157.1 57.7,146.6 l -22.8,39.5 -3,5.3 -6.6,11.5 L 7,234.5 h 36.4 l 22.4,0.2 -18.6,4.3 c 23.3,26.3 56.8,40.4 90.9,39.7 z"
   id="path10" /><g
   id="g60"
   transform="translate(0,22)">
		<g
   id="g58">
			
			
			
			
			
			
			
			
			
			
		<text
   xml:space="preserve"
   style="font-style:normal;font-weight:normal;font-size:112px;line-height:1.25;font-family:sans-serif;fill:#004e87;fill-opacity:1;stroke:none"
   x="288.0603"
   y="149.60039"
   id="text1681"><tspan
     sodipodi:role="line"
     id="tspan1679"
     x="288.0603"
     y="149.60039"
     style="font-style:normal;font-variant:normal;font-weight:bold;font-stretch:normal;font-size:112px;font-family:Gadugi;-inkscape-font-specification:'Gadugi Bold';fill:#004e87;fill-opacity:1">Fit4OperatorSurvey</tspan></text><text
   xml:space="preserve"
   id="text5175"
   style="font-style:normal;font-weight:normal;font-size:40px;line-height:1.25;font-family:sans-serif;white-space:pre;shape-inside:url(#rect5177);fill:#000000;fill-opacity:1;stroke:none" /></g>
	</g><g
   id="g164">
		
		
		
		
		
		
		
		
		
		
		
		
		
		
		
		
		
		
		
		
		
		
		
		
		
		
		
		
		
		
		
		
		
		
		
		
		
		
		
		
		
		
		
		
		
		
		
		
		
		
		
	<text
   xml:space="preserve"
   id="text46095"
   style="font-style:normal;font-weight:normal;font-size:37.3333px;line-height:1.25;font-family:sans-serif;white-space:pre;shape-inside:url(#rect46097);fill:#000000;fill-opacity:1;stroke:none"
   transform="translate(-12)"><tspan
     x="334.21289"
     y="278.71798"
     id="tspan81618"><tspan
       style="font-family:Gadugi;-inkscape-font-specification:'Gadugi, Normal'"
       id="tspan81616">The survey for the state of the art and informed governance</tspan></tspan></text></g><line
   class="st6"
   x1="285.79999"
   y1="219.39999"
   x2="1318.214"
   y2="219.39999"
   id="line166" />
<text
   xml:space="preserve"
   style="font-style:normal;font-weight:normal;font-size:112px;line-height:1.25;font-family:sans-serif;fill:#ffd400;fill-opacity:1;stroke:none"
   x="191.79623"
   y="297.20074"
   id="text57190"><tspan
     sodipodi:role="line"
     id="tspan57188"
     x="191.79623"
     y="297.20074"
     style="font-style:normal;font-variant:normal;font-weight:bold;font-stretch:normal;font-size:112px;font-family:Gadugi;-inkscape-font-specification:'Gadugi, Bold';font-variant-ligatures:normal;font-variant-caps:normal;font-variant-numeric:normal;font-variant-east-asian:normal">?</tspan></text></svg>
