<svg xmlns="http://www.w3.org/2000/svg" xmlns:xlink="http://www.w3.org/1999/xlink" contentStyleType="text/css" height="684px" preserveAspectRatio="none" style="width:979px;height:684px;background:#FFFFFF;" version="1.1" viewBox="0 0 979 684" width="979px" zoomAndPan="magnify"><defs/><g><!--cluster d77d5e503ad1439f585ac494268b351b--><g id="cluster_d77d5e503ad1439f585ac494268b351b"><polygon fill="none" points="16,16,26,6,428,6,428,566.67,418,576.67,16,576.67,16,16" style="stroke:#181818;stroke-width:1.0;"/><line style="stroke:#181818;stroke-width:1.0;" x1="418" x2="428" y1="16" y2="6"/><line style="stroke:#181818;stroke-width:1.0;" x1="16" x2="418" y1="16" y2="16"/><line style="stroke:#181818;stroke-width:1.0;" x1="418" x2="418" y1="16" y2="576.67"/><text fill="#000000" font-family="sans-serif" font-size="14" font-weight="bold" lengthAdjust="spacing" textLength="21" x="207.5" y="31.9951">Db</text></g><!--cluster d2a57dc1d883fd21fb9951699df71cc7--><g id="cluster_d2a57dc1d883fd21fb9951699df71cc7"><polygon fill="none" points="514,56.74,524,46.74,911,46.74,911,566.67,901,576.67,514,576.67,514,56.74" style="stroke:#181818;stroke-width:1.0;"/><line style="stroke:#181818;stroke-width:1.0;" x1="901" x2="911" y1="56.74" y2="46.74"/><line style="stroke:#181818;stroke-width:1.0;" x1="514" x2="901" y1="56.74" y2="56.74"/><line style="stroke:#181818;stroke-width:1.0;" x1="901" x2="901" y1="56.74" y2="576.67"/><text fill="#000000" font-family="sans-serif" font-size="14" font-weight="bold" lengthAdjust="spacing" textLength="31" x="693" y="72.7351">App</text></g><!--entity 355aeb7ac3f8fa43e8d94fbf0e4b8d6c--><g id="elem_355aeb7ac3f8fa43e8d94fbf0e4b8d6c"><rect fill="#F1F1F1" height="160.375" rx="2.5" ry="2.5" style="stroke:#181818;stroke-width:0.5;" width="380" x="32" y="46"/><rect fill="#F1F1F1" height="10" style="stroke:#181818;stroke-width:0.5;" width="15" x="392" y="51"/><rect fill="#F1F1F1" height="2" style="stroke:#181818;stroke-width:0.5;" width="4" x="390" y="53"/><rect fill="#F1F1F1" height="2" style="stroke:#181818;stroke-width:0.5;" width="4" x="390" y="57"/><text fill="#000000" font-family="sans-serif" font-size="14" font-weight="bold" lengthAdjust="spacing" textLength="20" x="47" y="78.9951">db</text><text fill="#000000" font-family="sans-serif" font-size="14" lengthAdjust="spacing" textLength="4" x="47" y="95.292">&#160;</text><text fill="#000000" font-family="sans-serif" font-size="14" lengthAdjust="spacing" textLength="156" x="47" y="111.5889">image: postgres:latest</text><text fill="#000000" font-family="sans-serif" font-size="14" lengthAdjust="spacing" textLength="99" x="47" y="127.8857">restart: always</text><text fill="#000000" font-family="sans-serif" font-size="14" lengthAdjust="spacing" textLength="292" x="47" y="144.1826">environment: POSTGRES_USER=postgres</text><text fill="#000000" font-family="sans-serif" font-size="14" lengthAdjust="spacing" textLength="340" x="47" y="160.4795">environment: POSTGRES_PASSWORD=password</text><text fill="#000000" font-family="sans-serif" font-size="14" lengthAdjust="spacing" textLength="275" x="47" y="176.7764">environment: POSTGRES_DB=postgres</text><text fill="#000000" font-family="sans-serif" font-size="14" lengthAdjust="spacing" textLength="4" x="47" y="193.0732">&#160;</text></g><!--entity 43bb4cb118845f08e05e758d93c57c6e--><g id="elem_43bb4cb118845f08e05e758d93c57c6e"><ellipse cx="335" cy="296.38" fill="#F1F1F1" rx="8" ry="8" style="stroke:#181818;stroke-width:0.5;"/><text fill="#000000" font-family="sans-serif" font-size="14" lengthAdjust="spacing" textLength="36" x="317" y="326.3751">5432</text></g><!--entity d5baecb173d637b4e1f821d6b00b6f89--><g id="elem_d5baecb173d637b4e1f821d6b00b6f89"><rect fill="#F1F1F1" height="39.2969" rx="2.5" ry="2.5" style="stroke:#181818;stroke-width:0.5;" width="189" x="127.5" y="521.38"/><polygon fill="#F1F1F1" points="299.5,526.38,299.5,540.38,311.5,540.38,311.5,532.38,305.5,526.38,299.5,526.38" style="stroke:#181818;stroke-width:0.5;"/><line style="stroke:#181818;stroke-width:0.5;" x1="305.5" x2="305.5" y1="526.38" y2="532.38"/><line style="stroke:#181818;stroke-width:0.5;" x1="311.5" x2="305.5" y1="532.38" y2="532.38"/><text fill="#000000" font-family="sans-serif" font-size="14" lengthAdjust="spacing" textLength="159" x="137.5" y="547.3751">/var/lib/postgresql/data</text></g><!--entity 893aba7f849e8e7e9eba282605c4877b--><g id="elem_893aba7f849e8e7e9eba282605c4877b"><rect fill="#F1F1F1" height="78.8906" rx="2.5" ry="2.5" style="stroke:#181818;stroke-width:0.5;" width="69" x="733.5" y="86.74"/><rect fill="#F1F1F1" height="10" style="stroke:#181818;stroke-width:0.5;" width="15" x="782.5" y="91.74"/><rect fill="#F1F1F1" height="2" style="stroke:#181818;stroke-width:0.5;" width="4" x="780.5" y="93.74"/><rect fill="#F1F1F1" height="2" style="stroke:#181818;stroke-width:0.5;" width="4" x="780.5" y="97.74"/><text fill="#000000" font-family="sans-serif" font-size="14" font-weight="bold" lengthAdjust="spacing" textLength="29" x="748.5" y="119.7351">app</text><text fill="#000000" font-family="sans-serif" font-size="14" lengthAdjust="spacing" textLength="4" x="748.5" y="136.032">&#160;</text><text fill="#000000" font-family="sans-serif" font-size="14" lengthAdjust="spacing" textLength="4" x="748.5" y="152.3289">&#160;</text></g><!--entity 3ef9b52d9eb49b7db9d6a3e84fef0d1c--><g id="elem_3ef9b52d9eb49b7db9d6a3e84fef0d1c"><ellipse cx="849" cy="296.38" fill="#F1F1F1" rx="8" ry="8" style="stroke:#181818;stroke-width:0.5;"/><text fill="#000000" font-family="sans-serif" font-size="14" lengthAdjust="spacing" textLength="36" x="831" y="326.3751">8000</text></g><!--entity a1257afb9fe444a74c77e3ded635baae--><g id="elem_a1257afb9fe444a74c77e3ded635baae"><rect fill="#F1F1F1" height="39.2969" rx="2.5" ry="2.5" style="stroke:#181818;stroke-width:0.5;" width="76" x="530" y="521.38"/><polygon fill="#F1F1F1" points="589,526.38,589,540.38,601,540.38,601,532.38,595,526.38,589,526.38" style="stroke:#181818;stroke-width:0.5;"/><line style="stroke:#181818;stroke-width:0.5;" x1="595" x2="595" y1="526.38" y2="532.38"/><line style="stroke:#181818;stroke-width:0.5;" x1="601" x2="595" y1="532.38" y2="532.38"/><text fill="#000000" font-family="sans-serif" font-size="14" lengthAdjust="spacing" textLength="46" x="540" y="547.3751">/csskp</text></g><!--entity 7ffbf67794ca0006bd379e45e5b40753--><g id="elem_7ffbf67794ca0006bd379e45e5b40753"><rect fill="#F1F1F1" height="39.2969" rx="2.5" ry="2.5" style="stroke:#181818;stroke-width:0.5;" width="254" x="641" y="521.38"/><polygon fill="#F1F1F1" points="878,526.38,878,540.38,890,540.38,890,532.38,884,526.38,878,526.38" style="stroke:#181818;stroke-width:0.5;"/><line style="stroke:#181818;stroke-width:0.5;" x1="884" x2="884" y1="526.38" y2="532.38"/><line style="stroke:#181818;stroke-width:0.5;" x1="890" x2="884" y1="532.38" y2="532.38"/><text fill="#000000" font-family="sans-serif" font-size="14" lengthAdjust="spacing" textLength="224" x="651" y="547.3751">/csskp/static/npm_components/</text></g><!--entity 62840c4001a7c1b022efb851482b5244--><g id="elem_62840c4001a7c1b022efb851482b5244"><ellipse cx="471" cy="431.38" fill="#F1F1F1" rx="8" ry="8" style="stroke:#181818;stroke-width:0.5;"/><text fill="#000000" font-family="sans-serif" font-size="14" lengthAdjust="spacing" textLength="36" x="453" y="461.3751">5532</text></g><!--entity 1624c420083928ef3e240dd88f2e52f0--><g id="elem_1624c420083928ef3e240dd88f2e52f0"><ellipse cx="954" cy="431.38" fill="#F1F1F1" rx="8" ry="8" style="stroke:#181818;stroke-width:0.5;"/><text fill="#000000" font-family="sans-serif" font-size="14" lengthAdjust="spacing" textLength="36" x="936" y="461.3751">8000</text></g><!--entity efe02e4d62201240e0c0b4d2a5091891--><g id="elem_efe02e4d62201240e0c0b4d2a5091891"><rect fill="#F1F1F1" height="39.2969" rx="2.5" ry="2.5" style="stroke:#181818;stroke-width:0.5;" width="189" x="127.5" y="639.67"/><polygon fill="#F1F1F1" points="299.5,644.67,299.5,658.67,311.5,658.67,311.5,650.67,305.5,644.67,299.5,644.67" style="stroke:#181818;stroke-width:0.5;"/><line style="stroke:#181818;stroke-width:0.5;" x1="305.5" x2="305.5" y1="644.67" y2="650.67"/><line style="stroke:#181818;stroke-width:0.5;" x1="311.5" x2="305.5" y1="650.67" y2="650.67"/><text fill="#000000" font-family="sans-serif" font-size="14" lengthAdjust="spacing" textLength="159" x="137.5" y="665.6651">./docker/postgres/data</text></g><!--entity 58b9e70b65a77700ba66e9c64d6b9f89--><g id="elem_58b9e70b65a77700ba66e9c64d6b9f89"><rect fill="#F1F1F1" height="39.2969" rx="2.5" ry="2.5" style="stroke:#181818;stroke-width:0.5;" width="34" x="551" y="639.67"/><polygon fill="#F1F1F1" points="568,644.67,568,658.67,580,658.67,580,650.67,574,644.67,568,644.67" style="stroke:#181818;stroke-width:0.5;"/><line style="stroke:#181818;stroke-width:0.5;" x1="574" x2="574" y1="644.67" y2="650.67"/><line style="stroke:#181818;stroke-width:0.5;" x1="580" x2="574" y1="650.67" y2="650.67"/><text fill="#000000" font-family="sans-serif" font-size="14" lengthAdjust="spacing" textLength="4" x="561" y="665.6651">.</text></g><!--entity 329d90183b116439416c934bda985906--><g id="elem_329d90183b116439416c934bda985906"><rect fill="#F1F1F1" height="39.2969" rx="2.5" ry="2.5" style="stroke:#181818;stroke-width:0.5;" width="254" x="641" y="639.67"/><polygon fill="#F1F1F1" points="878,644.67,878,658.67,890,658.67,890,650.67,884,644.67,878,644.67" style="stroke:#181818;stroke-width:0.5;"/><line style="stroke:#181818;stroke-width:0.5;" x1="884" x2="884" y1="644.67" y2="650.67"/><line style="stroke:#181818;stroke-width:0.5;" x1="890" x2="884" y1="650.67" y2="650.67"/><text fill="#000000" font-family="sans-serif" font-size="14" lengthAdjust="spacing" textLength="224" x="651" y="665.6651">/csskp/static/npm_components/</text></g><!--link 355aeb7ac3f8fa43e8d94fbf0e4b8d6c to 43bb4cb118845f08e05e758d93c57c6e--><g id="link_355aeb7ac3f8fa43e8d94fbf0e4b8d6c_43bb4cb118845f08e05e758d93c57c6e"><path codeLine="31" d="M275.52,206.85 C297.43,239.45 319.93,272.95 329.81,287.66 " fill="none" id="355aeb7ac3f8fa43e8d94fbf0e4b8d6c-43bb4cb118845f08e05e758d93c57c6e" style="stroke:#181818;stroke-width:1.0;"/></g><!--link 43bb4cb118845f08e05e758d93c57c6e to 62840c4001a7c1b022efb851482b5244--><g id="link_43bb4cb118845f08e05e758d93c57c6e_62840c4001a7c1b022efb851482b5244"><path codeLine="32" d="M343.1,305.3 C367.35,329.01 439.15,399.23 463.11,422.66 " fill="none" id="43bb4cb118845f08e05e758d93c57c6e-62840c4001a7c1b022efb851482b5244" style="stroke:#181818;stroke-width:1.0;"/></g><!--link d5baecb173d637b4e1f821d6b00b6f89 to efe02e4d62201240e0c0b4d2a5091891--><g id="link_d5baecb173d637b4e1f821d6b00b6f89_efe02e4d62201240e0c0b4d2a5091891"><path codeLine="33" d="M222,560.97 C222,582.59 222,617.76 222,639.39 " fill="none" id="d5baecb173d637b4e1f821d6b00b6f89-efe02e4d62201240e0c0b4d2a5091891" style="stroke:#181818;stroke-width:1.0;"/><text fill="#000000" font-family="sans-serif" font-size="13" lengthAdjust="spacing" textLength="14" x="223" y="605.7369">rw</text></g><!--link 355aeb7ac3f8fa43e8d94fbf0e4b8d6c to d5baecb173d637b4e1f821d6b00b6f89--><g id="link_355aeb7ac3f8fa43e8d94fbf0e4b8d6c_d5baecb173d637b4e1f821d6b00b6f89"><path codeLine="34" d="M222,206.79 C222,305.2 222,460.39 222,515.15 " fill="none" id="355aeb7ac3f8fa43e8d94fbf0e4b8d6c-to-d5baecb173d637b4e1f821d6b00b6f89" style="stroke:#181818;stroke-width:1.0;stroke-dasharray:7.0,7.0;"/><polygon fill="#181818" points="222,521.15,226,512.15,222,516.15,218,512.15,222,521.15" style="stroke:#181818;stroke-width:1.0;"/><text fill="#000000" font-family="sans-serif" font-size="13" lengthAdjust="spacing" textLength="23" x="223" y="368.4469">use</text></g><!--link 893aba7f849e8e7e9eba282605c4877b to 3ef9b52d9eb49b7db9d6a3e84fef0d1c--><g id="link_893aba7f849e8e7e9eba282605c4877b_3ef9b52d9eb49b7db9d6a3e84fef0d1c"><path codeLine="35" d="M786.58,165.77 C806.01,206.12 835.07,266.46 845.29,287.67 " fill="none" id="893aba7f849e8e7e9eba282605c4877b-3ef9b52d9eb49b7db9d6a3e84fef0d1c" style="stroke:#181818;stroke-width:1.0;"/></g><!--link 3ef9b52d9eb49b7db9d6a3e84fef0d1c to 1624c420083928ef3e240dd88f2e52f0--><g id="link_3ef9b52d9eb49b7db9d6a3e84fef0d1c_1624c420083928ef3e240dd88f2e52f0"><path codeLine="36" d="M855.25,305.3 C873.97,329.01 929.41,399.23 947.91,422.66 " fill="none" id="3ef9b52d9eb49b7db9d6a3e84fef0d1c-1624c420083928ef3e240dd88f2e52f0" style="stroke:#181818;stroke-width:1.0;"/></g><!--link a1257afb9fe444a74c77e3ded635baae to 58b9e70b65a77700ba66e9c64d6b9f89--><g id="link_a1257afb9fe444a74c77e3ded635baae_58b9e70b65a77700ba66e9c64d6b9f89"><path codeLine="37" d="M568,560.97 C568,582.59 568,617.76 568,639.39 " fill="none" id="a1257afb9fe444a74c77e3ded635baae-58b9e70b65a77700ba66e9c64d6b9f89" style="stroke:#181818;stroke-width:1.0;"/><text fill="#000000" font-family="sans-serif" font-size="13" lengthAdjust="spacing" textLength="14" x="569" y="605.7369">rw</text></g><!--link 893aba7f849e8e7e9eba282605c4877b to a1257afb9fe444a74c77e3ded635baae--><g id="link_893aba7f849e8e7e9eba282605c4877b_a1257afb9fe444a74c77e3ded635baae"><path codeLine="38" d="M749.18,166.03 C707.37,252.34 610.6054,452.07 579.8554,515.56 " fill="none" id="893aba7f849e8e7e9eba282605c4877b-to-a1257afb9fe444a74c77e3ded635baae" style="stroke:#181818;stroke-width:1.0;stroke-dasharray:7.0,7.0;"/><polygon fill="#181818" points="577.24,520.96,584.763,514.6036,579.4195,516.46,577.5631,511.1164,577.24,520.96" style="stroke:#181818;stroke-width:1.0;"/><text fill="#000000" font-family="sans-serif" font-size="13" lengthAdjust="spacing" textLength="23" x="657" y="368.4469">use</text></g><!--link 7ffbf67794ca0006bd379e45e5b40753 to 329d90183b116439416c934bda985906--><g id="link_7ffbf67794ca0006bd379e45e5b40753_329d90183b116439416c934bda985906"><path codeLine="39" d="M768,560.97 C768,582.59 768,617.76 768,639.39 " fill="none" id="7ffbf67794ca0006bd379e45e5b40753-329d90183b116439416c934bda985906" style="stroke:#181818;stroke-width:1.0;"/></g><!--link 893aba7f849e8e7e9eba282605c4877b to 7ffbf67794ca0006bd379e45e5b40753--><g id="link_893aba7f849e8e7e9eba282605c4877b_7ffbf67794ca0006bd379e45e5b40753"><path codeLine="40" d="M768,166.03 C768,252.34 768,451.47 768,514.96 " fill="none" id="893aba7f849e8e7e9eba282605c4877b-to-7ffbf67794ca0006bd379e45e5b40753" style="stroke:#181818;stroke-width:1.0;stroke-dasharray:7.0,7.0;"/><polygon fill="#181818" points="768,520.96,772,511.96,768,515.96,764,511.96,768,520.96" style="stroke:#181818;stroke-width:1.0;"/><text fill="#000000" font-family="sans-serif" font-size="13" lengthAdjust="spacing" textLength="23" x="769" y="368.4469">use</text></g><!--SRC=[bLDBQnin4BxlhrXyQWtnwZ5w6L98IUWn8MxfePGmaaR1nFPklTkafVI_LrxRUL22sfiECv- -r-1grJwibp-MczjgqqQg9-T-KcDVHsEY8iKaHWxI9MKL1d0WjFLISL__gkhGhhjsGvkXbaeXUOD19fiG9Dde8Fd42BoDEjHVgkaq-kcqgfPhlALvtRNzSBkbVhx2WVgXoiy1jyEynjK3_kmhsjmlj-rcdT7dzTNbukE7wul5pQV5nVNfSVMLcQkpnUBpvVNvQOTz_z1kuojpv- -VaAglrPktzKI15ADwaDv3y9nR2oenIqoHKLcK3Ce4JLMckamOXdhItEEsMIrzSmJxjceY3hXtKNcaZ6DarD9u89wiu55xnhnErbM_3wwVTTr-GQ0oCV1ehKnHyEITKrmx5vFX8PYNjbidqQD95XnPCkJ8ex12CnN06kD7sx7hThuV95h6sFYJfEIy4Z7lWFCcUXSrvk0WKMAHX-SIGz_VxVaX5yfWPfK80D10C8Paf2mlIqNwQwl9iGxBq6owzSqZyRuPmKpA5T76E0YOQMaVfN44kNOUc54okpEceWwfQ6611M2CemdSCo4eUQiuM96L0BmKoBM0088nAvsmb2G9O34RcmGfaTWpghCcjk6EjeyPFYL8YPWWY5e8nZC0iS0yx69YZbl7dwEC2yfwHoR7gz0OatD6hSa5dI6oQpdo_t582XSTurRcAkfyXi1rS19yH6ULOxeg7jv9F2ctkJGmeXJTBvLzH2dvMS_hoVPXKXOscyNPx5tnmdPuttkQLCLRsR4h7aLfO4GfDwzmHIDAgKX7fuh23auLFpqwLJhBlLEbPluhhU9l1rf_0000]--></g></svg>