<?xml version="1.0" encoding="UTF-8"?>
<svg id="Layer_1" data-name="Layer 1" xmlns="http://www.w3.org/2000/svg" viewBox="0 0 185.32 75.64">
  <g>
    <path d="m97.24,45.57h1.41v8.16h1.92v1.11h-3.32v-9.27Z" fill="#1d1d1b"/>
    <path d="m101.37,47.37h1.37v5.62c0,.33.05.56.15.69.1.13.25.19.45.19.14,0,.27-.04.4-.11.13-.08.25-.18.35-.33v-6.05h1.37v7.47h-1.05l-.14-.8h0c-.11.17-.22.31-.34.43-.12.11-.25.21-.38.27-.13.07-.27.12-.4.14-.14.03-.27.04-.41.04-.44,0-.77-.15-1.01-.46-.24-.3-.36-.76-.36-1.38v-5.72Z" fill="#1d1d1b"/>
    <path d="m107.88,51.05l-1.48-3.68h1.4l.8,2.45h.01l.85-2.45h1.31l-1.42,3.55,1.59,3.92h-1.41l-.92-2.58h-.04l-.93,2.58h-1.32l1.55-3.79Z" fill="#1d1d1b"/>
    <path d="m113.6,54.92c-.32,0-.61-.06-.85-.18-.25-.12-.46-.31-.63-.56s-.3-.58-.38-.97c-.09-.4-.13-.87-.13-1.43v-1.41c0-.47.04-.88.11-1.22.07-.34.16-.62.28-.85.11-.23.25-.41.4-.54.15-.13.3-.24.46-.31s.32-.12.47-.14c.16-.02.3-.03.44-.03.25,0,.48.04.71.11.23.07.43.2.6.38.17.18.31.42.42.72.1.3.15.67.15,1.12,0,.15,0,.31-.01.46,0,.16-.02.31-.04.46s-.03.3-.06.44c-.02.14-.05.27-.07.39h-2.48v.76c0,.33.01.6.04.82.03.22.07.4.13.54.06.14.14.23.24.29.1.06.23.09.39.09.08,0,.16-.02.24-.05.08-.03.15-.09.21-.17.06-.08.11-.18.14-.32.04-.13.05-.29.05-.49v-.23h1.15v.29c0,.71-.17,1.23-.51,1.55-.34.32-.83.49-1.47.49Zm.76-4.48s0-.09.01-.16c0-.07,0-.14,0-.21s0-.14,0-.21v-.18c0-.49-.06-.85-.17-1.06-.12-.22-.29-.33-.52-.33-.12,0-.22.03-.31.08-.09.06-.17.15-.22.28s-.1.31-.13.52c-.03.22-.04.49-.04.81v.46h1.38Z" fill="#1d1d1b"/>
    <path d="m116.8,47.37h1.06l.12.8h0c.11-.16.22-.31.35-.42.12-.11.25-.21.38-.27.13-.07.27-.12.41-.15s.28-.04.42-.04c.29,0,.54.07.74.21.2.14.36.35.46.63.11-.16.22-.3.34-.41.12-.11.25-.2.38-.26s.26-.11.4-.14.27-.04.41-.04c.43,0,.77.15,1.01.46.24.31.36.76.36,1.38v5.72h-1.37v-5.67c0-.16-.01-.3-.04-.41s-.06-.2-.11-.27c-.05-.07-.12-.12-.2-.15-.08-.03-.18-.05-.29-.05-.13,0-.25.05-.38.14-.13.09-.24.22-.35.38,0,.03,0,.06,0,.1v5.93h-1.37v-5.67c0-.16-.01-.3-.04-.41s-.06-.2-.11-.27c-.05-.07-.12-.12-.2-.15-.08-.03-.17-.05-.29-.05-.12,0-.25.05-.37.14-.13.09-.24.22-.34.37v6.04h-1.37v-7.47Z" fill="#1d1d1b"/>
    <path d="m125.04,44.97h1.37v1.99l-.04.99h0c.06-.08.13-.17.21-.24.08-.08.17-.15.28-.21.1-.06.22-.11.34-.15.12-.04.26-.05.41-.05.08,0,.17,0,.27.02.11.01.22.05.33.11.11.06.23.14.34.26s.22.27.3.47c.09.2.16.45.22.74.06.3.08.66.08,1.08v2.26c0,.42-.03.78-.08,1.08-.06.3-.13.55-.22.75-.09.2-.19.36-.31.47s-.23.2-.35.26-.24.09-.35.11c-.11.02-.21.02-.29.02-.17,0-.33-.02-.47-.07-.14-.04-.26-.1-.37-.18s-.2-.16-.28-.25c-.08-.09-.15-.19-.21-.29l-.11.69h-1.07v-9.87Zm1.37,8.35c.03.07.06.14.11.2.04.06.09.12.14.17.05.05.12.09.19.12.07.03.15.05.24.05.1,0,.19-.02.28-.06s.16-.11.22-.21.11-.24.14-.42c.04-.18.05-.41.05-.68v-2.86c0-.28-.02-.5-.05-.68-.03-.18-.08-.31-.14-.42s-.13-.17-.21-.21c-.08-.04-.17-.05-.28-.05-.17,0-.31.05-.42.15s-.2.22-.27.36v4.54Z" fill="#1d1d1b"/>
    <path d="m132.29,54.92c-.16,0-.32-.01-.49-.04-.17-.03-.32-.08-.48-.16-.15-.08-.3-.19-.43-.34-.14-.15-.25-.34-.35-.59-.1-.24-.18-.54-.24-.89s-.09-.78-.09-1.27v-1.17c0-.48.03-.9.09-1.25s.14-.64.24-.87c.1-.23.22-.42.36-.56.14-.14.28-.25.44-.32.15-.07.31-.12.48-.15.16-.02.32-.04.48-.04s.3.01.46.03.31.07.47.14c.15.07.3.17.43.31.14.14.25.33.36.56.1.24.18.53.24.88s.09.77.09,1.26v1.17c0,.48-.03.9-.09,1.25s-.14.65-.25.89c-.1.24-.23.44-.36.59s-.28.27-.43.35c-.15.08-.31.14-.46.17-.16.03-.31.04-.45.04Zm.01-1.06c.12,0,.23-.03.31-.09s.15-.17.21-.31c.05-.14.09-.33.11-.57.02-.24.04-.53.04-.88v-1.84c0-.35-.01-.65-.04-.88-.02-.24-.06-.43-.11-.58-.05-.15-.12-.25-.21-.32-.08-.06-.19-.1-.31-.1-.13,0-.24.03-.33.1-.09.07-.16.17-.22.32s-.1.34-.12.58c-.03.24-.04.53-.04.88v1.84c0,.35.01.64.04.88.03.24.07.43.12.57.06.15.13.25.22.31s.2.09.33.09Z" fill="#1d1d1b"/>
    <path d="m135.57,47.37h1.37v5.62c0,.33.05.56.15.69.1.13.25.19.45.19.14,0,.27-.04.4-.11.13-.08.25-.18.35-.33v-6.05h1.37v7.47h-1.05l-.14-.8h0c-.11.17-.22.31-.34.43-.12.11-.25.21-.38.27-.13.07-.27.12-.4.14-.14.03-.27.04-.41.04-.44,0-.77-.15-1.01-.46-.24-.3-.36-.76-.36-1.38v-5.72Z" fill="#1d1d1b"/>
    <path d="m141.1,47.37h1l.12.76c.15-.28.33-.49.52-.63.2-.14.4-.21.61-.21.39,0,.68.12.87.36s.28.61.28,1.09c0,.06,0,.13-.01.22s-.02.17-.04.27c-.02.09-.04.18-.06.28-.02.09-.05.18-.07.25h-.96v-.69c0-.15,0-.28-.03-.37-.02-.1-.05-.18-.08-.24s-.07-.1-.11-.12c-.04-.02-.09-.04-.14-.04-.11,0-.21.04-.3.11-.09.07-.17.17-.23.29v6.15h-1.37v-7.47Z" fill="#1d1d1b"/>
    <path d="m146.49,55.35c0,.32.06.55.18.68s.3.2.55.2c.1,0,.2-.02.29-.05.09-.03.18-.09.25-.17.07-.08.13-.19.17-.34.04-.14.07-.33.07-.56v-1.18c-.12.16-.28.3-.47.41-.19.11-.43.17-.72.17-.08,0-.18,0-.29-.02-.11-.02-.23-.05-.35-.11s-.24-.15-.35-.26c-.12-.12-.22-.28-.31-.47-.09-.2-.16-.45-.22-.75-.06-.3-.08-.66-.08-1.08v-1.96c0-.4.03-.75.08-1.03.06-.28.13-.52.22-.71.09-.19.19-.34.31-.45.12-.11.24-.19.36-.25.12-.06.24-.09.35-.11.12-.01.22-.02.31-.02.18,0,.34.02.48.07.14.05.26.11.36.19.1.08.19.17.26.26s.13.2.18.29l.12-.74h1.07v7.17c0,.42-.04.79-.12,1.13-.08.33-.2.62-.37.86-.17.24-.39.42-.65.55-.26.13-.58.19-.94.19-.25,0-.48-.02-.69-.07-.22-.04-.41-.12-.57-.23-.16-.11-.29-.26-.39-.45-.09-.19-.14-.43-.14-.72,0-.05,0-.11.02-.19s.03-.16.05-.24h.97Zm.78-1.89c.09,0,.17-.02.24-.05.07-.03.13-.07.19-.12.06-.05.11-.11.15-.17.04-.07.08-.13.11-.2v-4.08c-.07-.15-.16-.28-.27-.39s-.25-.16-.42-.16c-.1,0-.19.02-.28.05-.08.04-.16.1-.22.2s-.11.24-.14.41c-.03.18-.05.4-.05.68v2.46c0,.28.02.51.05.68.03.18.08.32.14.42.06.1.13.17.22.21s.18.06.28.06Z" fill="#1d1d1b"/>
    <path d="m153.23,45.57h1.41v3.88h1.67v-3.88h1.41v9.27h-1.41v-4.28h-1.67v4.28h-1.41v-9.27Z" fill="#1d1d1b"/>
    <path d="m161.09,54.92c-.16,0-.32-.01-.49-.04-.17-.03-.32-.08-.48-.16-.15-.08-.3-.19-.43-.34-.14-.15-.25-.34-.35-.59-.1-.24-.18-.54-.24-.89s-.09-.78-.09-1.27v-1.17c0-.48.03-.9.09-1.25s.14-.64.24-.87c.1-.23.22-.42.36-.56.14-.14.28-.25.44-.32.15-.07.31-.12.48-.15.16-.02.32-.04.48-.04s.3.01.46.03.31.07.47.14c.15.07.3.17.43.31.14.14.25.33.36.56.1.24.18.53.24.88s.09.77.09,1.26v1.17c0,.48-.03.9-.09,1.25s-.14.65-.25.89c-.1.24-.23.44-.36.59s-.28.27-.43.35c-.15.08-.31.14-.46.17-.16.03-.31.04-.45.04Zm.01-1.06c.12,0,.23-.03.31-.09s.15-.17.21-.31c.05-.14.09-.33.11-.57.02-.24.04-.53.04-.88v-1.84c0-.35-.01-.65-.04-.88-.02-.24-.06-.43-.11-.58-.05-.15-.12-.25-.21-.32-.08-.06-.19-.1-.31-.1-.13,0-.24.03-.33.1-.09.07-.16.17-.22.32s-.1.34-.12.58c-.03.24-.04.53-.04.88v1.84c0,.35.01.64.04.88.03.24.07.43.12.57.06.15.13.25.22.31s.2.09.33.09Z" fill="#1d1d1b"/>
    <path d="m164.37,47.37h1.37v5.62c0,.33.05.56.15.69.1.13.25.19.45.19.14,0,.27-.04.4-.11.13-.08.25-.18.35-.33v-6.05h1.37v7.47h-1.05l-.14-.8h0c-.11.17-.22.31-.34.43-.12.11-.25.21-.38.27-.13.07-.27.12-.4.14-.14.03-.27.04-.41.04-.44,0-.77-.15-1.01-.46-.24-.3-.36-.76-.36-1.38v-5.72Z" fill="#1d1d1b"/>
    <path d="m169.61,53.28c0-.16.02-.32.05-.47.03-.15.06-.27.09-.36h.97c0,.27.01.5.04.68.03.18.07.33.13.44s.14.19.25.23c.1.05.23.07.38.07.21,0,.36-.06.45-.17.09-.12.14-.25.14-.4,0-.08-.01-.16-.03-.23-.02-.07-.05-.15-.09-.22s-.09-.15-.15-.23c-.06-.08-.12-.16-.2-.25l-1-1.18c-.13-.16-.26-.33-.38-.5-.12-.17-.23-.34-.32-.52-.09-.18-.17-.37-.22-.56s-.08-.4-.08-.62c0-.29.05-.54.15-.75.1-.21.23-.39.4-.53.17-.14.36-.25.58-.31.22-.07.45-.1.7-.1.27,0,.51.03.73.1.22.06.4.16.56.29.16.13.27.29.36.49s.12.42.12.67c0,.17-.02.34-.05.5-.03.16-.06.3-.09.42h-.95c0-.25-.01-.46-.03-.65-.02-.18-.05-.34-.1-.46s-.12-.21-.2-.27-.2-.09-.33-.09c-.12,0-.22.02-.3.06-.08.04-.14.09-.19.15s-.08.13-.1.21c-.02.08-.03.15-.03.23,0,.17.04.33.12.48.08.15.19.31.33.48l1.1,1.29c.08.1.17.22.28.36.1.14.2.29.3.46.09.17.17.35.24.55.07.2.1.41.1.62,0,.26-.04.5-.12.72-.08.21-.21.4-.37.55-.16.15-.36.27-.6.35-.24.08-.51.12-.81.12-.25,0-.48-.03-.71-.08-.22-.06-.41-.15-.58-.28-.16-.13-.29-.3-.38-.51-.09-.21-.14-.47-.14-.78Z" fill="#1d1d1b"/>
    <path d="m176.2,54.92c-.32,0-.61-.06-.85-.18-.25-.12-.46-.31-.63-.56s-.3-.58-.38-.97c-.09-.4-.13-.87-.13-1.43v-1.41c0-.47.04-.88.11-1.22.07-.34.16-.62.28-.85.11-.23.25-.41.4-.54.15-.13.3-.24.46-.31s.32-.12.47-.14c.16-.02.3-.03.44-.03.25,0,.48.04.71.11.23.07.43.2.6.38.17.18.31.42.42.72.1.3.15.67.15,1.12,0,.15,0,.31-.01.46,0,.16-.02.31-.04.46s-.03.3-.06.44c-.02.14-.05.27-.07.39h-2.48v.76c0,.33.01.6.04.82.03.22.07.4.13.54.06.14.14.23.24.29.1.06.23.09.39.09.08,0,.16-.02.24-.05.08-.03.15-.09.21-.17.06-.08.11-.18.14-.32.04-.13.05-.29.05-.49v-.23h1.15v.29c0,.71-.17,1.23-.51,1.55-.34.32-.83.49-1.47.49Zm.76-4.48s0-.09.01-.16c0-.07,0-.14,0-.21s0-.14,0-.21v-.18c0-.49-.06-.85-.17-1.06-.12-.22-.29-.33-.52-.33-.12,0-.22.03-.31.08-.09.06-.17.15-.22.28s-.1.31-.13.52c-.03.22-.04.49-.04.81v.46h1.38Z" fill="#1d1d1b"/>
    <path d="m99.04,68.25c-.16,0-.32-.01-.49-.04-.17-.03-.32-.08-.48-.16-.15-.08-.3-.19-.43-.34-.14-.15-.25-.34-.35-.59-.1-.24-.18-.54-.24-.89s-.09-.78-.09-1.27v-1.17c0-.48.03-.9.09-1.25s.14-.64.24-.87c.1-.23.22-.42.36-.56.14-.14.28-.25.44-.32.15-.07.31-.12.48-.15.16-.02.32-.04.48-.04s.3.01.46.03.31.07.47.14c.15.07.3.17.43.31.14.14.25.33.36.56.1.24.18.53.24.88s.09.77.09,1.26v1.17c0,.48-.03.9-.09,1.25s-.14.65-.25.89c-.1.24-.23.44-.36.59s-.28.27-.43.35c-.15.08-.31.14-.46.17-.16.03-.31.04-.45.04Zm.01-1.06c.12,0,.23-.03.31-.09s.15-.17.21-.31c.05-.14.09-.33.11-.57.02-.24.04-.53.04-.88v-1.84c0-.35-.01-.65-.04-.88-.02-.24-.06-.43-.11-.58-.05-.15-.12-.25-.21-.32-.08-.06-.19-.1-.31-.1-.13,0-.24.03-.33.1-.09.07-.16.17-.22.32s-.1.34-.12.58c-.03.24-.04.53-.04.88v1.84c0,.35.01.64.04.88.03.24.07.43.12.57.06.15.13.25.22.31s.2.09.33.09Z" fill="#1d1d1b"/>
    <path d="m102.49,61.68h-.65v-.98h.65v-.54c0-.4.04-.73.12-.99s.2-.45.34-.6c.15-.14.32-.24.51-.29.2-.05.41-.08.64-.08.07,0,.14,0,.22.01.08,0,.16.02.24.04.08.02.16.04.24.06.08.02.15.05.21.08v.97c-.15-.04-.32-.06-.51-.06-.09,0-.18.01-.26.04-.08.03-.15.08-.21.14-.06.07-.11.16-.15.27s-.05.25-.05.41v.54h1.04v.98h-1.04v6.49h-1.35v-6.49Z" fill="#1d1d1b"/>
    <path d="m110.11,68.25c-.14,0-.3-.01-.47-.04s-.34-.07-.5-.15c-.17-.08-.33-.18-.48-.32-.15-.14-.29-.32-.41-.55s-.21-.51-.28-.84c-.07-.33-.11-.73-.11-1.2v-3.28c0-.47.04-.87.11-1.2.07-.33.17-.61.29-.83.12-.23.26-.41.41-.54.16-.13.32-.24.48-.31.17-.07.33-.12.5-.14.17-.02.32-.03.46-.03.37,0,.68.05.92.16.25.1.45.24.6.42s.26.39.32.63c.06.24.09.49.09.76,0,.2,0,.38-.03.55-.02.17-.05.35-.09.56h-1.14v-.47c0-.51-.06-.89-.17-1.14s-.28-.38-.49-.38c-.13,0-.24.03-.34.08s-.18.14-.24.26c-.07.12-.12.28-.15.48-.03.2-.05.45-.05.74v4.23c0,.29.01.53.04.72.03.19.07.34.13.46.06.12.14.2.24.25s.22.07.36.07c.09,0,.18-.02.26-.06.08-.04.16-.11.22-.2.06-.09.11-.2.15-.34.04-.14.06-.3.06-.48v-.91h1.29v.86c0,.75-.17,1.29-.51,1.65s-.83.53-1.46.54Z" fill="#1d1d1b"/>
    <path d="m113.39,69.59c.17-.04.32-.12.45-.24s.22-.27.3-.46c.07-.19.12-.42.13-.68l-1.77-7.51h1.39l.79,4.13.23,1.43h.04l.16-1.43.63-4.13h1.35l-1.57,7.75c-.07.36-.16.67-.26.94s-.24.49-.4.67c-.16.18-.34.31-.56.4-.22.09-.47.13-.76.13-.24,0-.48-.04-.72-.14v-.84c.21.03.4.02.58-.02Z" fill="#1d1d1b"/>
    <path d="m117.97,58.3h1.37v1.99l-.04.99h0c.06-.08.13-.17.21-.24.08-.08.17-.15.28-.21.1-.06.22-.11.34-.15.12-.04.26-.05.41-.05.08,0,.17,0,.27.02.11.01.22.05.33.11.11.06.23.14.34.26s.22.27.3.47c.09.2.16.45.22.74.06.3.08.66.08,1.08v2.26c0,.42-.03.78-.08,1.08-.06.3-.13.55-.22.75-.09.2-.19.36-.31.47s-.23.2-.35.26-.24.09-.35.11c-.11.02-.21.02-.29.02-.17,0-.33-.02-.47-.07-.14-.04-.26-.1-.37-.18s-.2-.16-.28-.25c-.08-.09-.15-.19-.21-.29l-.11.69h-1.07v-9.87Zm1.37,8.35c.03.07.06.14.11.2.04.06.09.12.14.17.05.05.12.09.19.12.07.03.15.05.24.05.1,0,.19-.02.28-.06s.16-.11.22-.21.11-.24.14-.42c.04-.18.05-.41.05-.68v-2.86c0-.28-.02-.5-.05-.68-.03-.18-.08-.31-.14-.42s-.13-.17-.21-.21c-.08-.04-.17-.05-.28-.05-.17,0-.31.05-.42.15s-.2.22-.27.36v4.54Z" fill="#1d1d1b"/>
    <path d="m125.14,68.25c-.32,0-.61-.06-.85-.18-.25-.12-.46-.31-.63-.56s-.3-.58-.38-.97c-.09-.4-.13-.87-.13-1.43v-1.41c0-.47.04-.88.11-1.22.07-.34.16-.62.28-.85.11-.23.25-.41.4-.54.15-.13.3-.24.46-.31s.32-.12.47-.14c.16-.02.3-.03.44-.03.25,0,.48.04.71.11.23.07.43.2.6.38.17.18.31.42.42.72.1.3.15.67.15,1.12,0,.15,0,.31-.01.46,0,.16-.02.31-.04.46s-.03.3-.06.44c-.02.14-.05.27-.07.39h-2.48v.76c0,.33.01.6.04.82.03.22.07.4.13.54.06.14.14.23.24.29.1.06.23.09.39.09.08,0,.16-.02.24-.05.08-.03.15-.09.21-.17.06-.08.11-.18.14-.32.04-.13.05-.29.05-.49v-.23h1.15v.29c0,.71-.17,1.23-.51,1.55-.34.32-.83.49-1.47.49Zm.76-4.48s0-.09.01-.16c0-.07,0-.14,0-.21s0-.14,0-.21v-.18c0-.49-.06-.85-.17-1.06-.12-.22-.29-.33-.52-.33-.12,0-.22.03-.31.08-.09.06-.17.15-.22.28s-.1.31-.13.52c-.03.22-.04.49-.04.81v.46h1.38Z" fill="#1d1d1b"/>
    <path d="m128.34,60.7h1l.12.76c.15-.28.33-.49.52-.63.2-.14.4-.21.61-.21.39,0,.68.12.87.36s.28.61.28,1.09c0,.06,0,.13-.01.22s-.02.17-.04.27c-.02.09-.04.18-.06.28-.02.09-.05.18-.07.25h-.96v-.69c0-.15,0-.28-.03-.37-.02-.1-.05-.18-.08-.24s-.07-.1-.11-.12c-.04-.02-.09-.04-.14-.04-.11,0-.21.04-.3.11-.09.07-.17.17-.23.29v6.15h-1.37v-7.47Z" fill="#1d1d1b"/>
    <path d="m132.32,66.61c0-.16.02-.32.05-.47.03-.15.06-.27.09-.36h.97c0,.27.01.5.04.68.03.18.07.33.13.44s.14.19.25.23c.1.05.23.07.38.07.21,0,.36-.06.45-.17.09-.12.14-.25.14-.4,0-.08-.01-.16-.03-.23-.02-.07-.05-.15-.09-.22s-.09-.15-.15-.23c-.06-.08-.12-.16-.2-.25l-1-1.18c-.13-.16-.26-.33-.38-.5-.12-.17-.23-.34-.32-.52-.09-.18-.17-.37-.22-.56s-.08-.4-.08-.62c0-.29.05-.54.15-.75.1-.21.23-.39.4-.53.17-.14.36-.25.58-.31.22-.07.45-.1.7-.1.27,0,.51.03.73.1.22.06.4.16.56.29.16.13.27.29.36.49s.12.42.12.67c0,.17-.02.34-.05.5-.03.16-.06.3-.09.42h-.95c0-.25-.01-.46-.03-.65-.02-.18-.05-.34-.1-.46s-.12-.21-.2-.27-.2-.09-.33-.09c-.12,0-.22.02-.3.06-.08.04-.14.09-.19.15s-.08.13-.1.21c-.02.08-.03.15-.03.23,0,.17.04.33.12.48.08.15.19.31.33.48l1.1,1.29c.08.1.17.22.28.36.1.14.2.29.3.46.09.17.17.35.24.55.07.2.1.41.1.62,0,.26-.04.5-.12.72-.08.21-.21.4-.37.55-.16.15-.36.27-.6.35-.24.08-.51.12-.81.12-.25,0-.48-.03-.71-.08-.22-.06-.41-.15-.58-.28-.16-.13-.29-.3-.38-.51-.09-.21-.14-.47-.14-.78Z" fill="#1d1d1b"/>
    <path d="m138.92,68.25c-.32,0-.61-.06-.85-.18-.25-.12-.46-.31-.63-.56s-.3-.58-.38-.97c-.09-.4-.13-.87-.13-1.43v-1.41c0-.47.04-.88.11-1.22.07-.34.16-.62.28-.85.11-.23.25-.41.4-.54.15-.13.3-.24.46-.31s.32-.12.47-.14c.16-.02.3-.03.44-.03.25,0,.48.04.71.11.23.07.43.2.6.38.17.18.31.42.42.72.1.3.15.67.15,1.12,0,.15,0,.31-.01.46,0,.16-.02.31-.04.46s-.03.3-.06.44c-.02.14-.05.27-.07.39h-2.48v.76c0,.33.01.6.04.82.03.22.07.4.13.54.06.14.14.23.24.29.1.06.23.09.39.09.08,0,.16-.02.24-.05.08-.03.15-.09.21-.17.06-.08.11-.18.14-.32.04-.13.05-.29.05-.49v-.23h1.15v.29c0,.71-.17,1.23-.51,1.55-.34.32-.83.49-1.47.49Zm.76-4.48s0-.09.01-.16c0-.07,0-.14,0-.21s0-.14,0-.21v-.18c0-.49-.06-.85-.17-1.06-.12-.22-.29-.33-.52-.33-.12,0-.22.03-.31.08-.09.06-.17.15-.22.28s-.1.31-.13.52c-.03.22-.04.49-.04.81v.46h1.38Z" fill="#1d1d1b"/>
    <path d="m143.86,68.25c-.63,0-1.11-.26-1.44-.78-.33-.52-.5-1.31-.5-2.37v-1.41c0-.47.03-.88.1-1.22.07-.34.16-.62.27-.85.11-.23.24-.41.39-.54s.3-.24.45-.31.31-.12.46-.14c.15-.02.29-.03.42-.03.25,0,.48.03.69.1.21.07.39.17.54.3.15.14.27.31.35.51s.12.45.12.73c0,.17,0,.32-.02.45-.02.12-.04.25-.07.36h-1.1v-.25c0-.38-.04-.67-.13-.88-.09-.21-.23-.32-.44-.32-.11,0-.21.03-.29.08-.08.05-.15.14-.21.27-.06.13-.1.3-.12.51-.03.21-.04.48-.04.8v2.12c0,.33.01.6.03.83.02.23.06.41.11.56.05.14.13.25.22.31.09.07.2.1.34.1.07,0,.14-.02.2-.05.06-.03.12-.09.17-.17.05-.08.09-.18.12-.32.03-.13.05-.29.05-.49v-.23h1.18v.29c0,.71-.16,1.23-.47,1.55-.31.32-.78.49-1.4.49Z" fill="#1d1d1b"/>
    <path d="m146.85,60.7h1.37v5.62c0,.33.05.56.15.69.1.13.25.19.45.19.14,0,.27-.04.4-.11.13-.08.25-.18.35-.33v-6.05h1.37v7.47h-1.05l-.14-.8h0c-.11.17-.22.31-.34.43-.12.11-.25.21-.38.27-.13.07-.27.12-.4.14-.14.03-.27.04-.41.04-.44,0-.77-.15-1.01-.46-.24-.3-.36-.76-.36-1.38v-5.72Z" fill="#1d1d1b"/>
    <path d="m152.38,60.7h1l.12.76c.15-.28.33-.49.52-.63.2-.14.4-.21.61-.21.39,0,.68.12.87.36s.28.61.28,1.09c0,.06,0,.13-.01.22s-.02.17-.04.27c-.02.09-.04.18-.06.28-.02.09-.05.18-.07.25h-.96v-.69c0-.15,0-.28-.03-.37-.02-.1-.05-.18-.08-.24s-.07-.1-.11-.12c-.04-.02-.09-.04-.14-.04-.11,0-.21.04-.3.11-.09.07-.17.17-.23.29v6.15h-1.37v-7.47Z" fill="#1d1d1b"/>
    <path d="m157.39,59.63c-.25,0-.45-.08-.6-.23-.15-.15-.22-.38-.22-.67,0-.16.02-.3.06-.41s.09-.2.16-.27c.07-.07.16-.12.26-.15.1-.03.22-.05.35-.05.27,0,.48.07.62.21.14.14.21.36.21.66,0,.28-.07.5-.21.66-.14.16-.35.24-.62.24Zm-.71,1.07h1.37v7.47h-1.37v-7.47Z" fill="#1d1d1b"/>
    <path d="m159.64,61.68h-.58v-.98h.7l.28-1.94h.98v1.94h1.19v.98h-1.19v4.75c0,.16.01.29.05.39.03.1.07.18.13.23.05.06.12.09.19.11.07.02.15.03.23.03.13,0,.25-.02.36-.05.1-.03.2-.08.3-.14v.76c-.08.1-.17.18-.26.24s-.19.11-.29.15-.2.06-.3.08c-.1.01-.2.02-.3.02-.19,0-.38-.03-.55-.08-.18-.05-.33-.15-.47-.29-.14-.14-.25-.34-.33-.59-.08-.25-.12-.58-.12-.99v-4.63Z" fill="#1d1d1b"/>
    <path d="m163.43,69.59c.17-.04.32-.12.45-.24s.22-.27.3-.46c.07-.19.12-.42.13-.68l-1.77-7.51h1.39l.79,4.13.23,1.43h.04l.16-1.43.63-4.13h1.35l-1.57,7.75c-.07.36-.16.67-.26.94s-.24.49-.4.67c-.16.18-.34.31-.56.4-.22.09-.47.13-.76.13-.24,0-.48-.04-.72-.14v-.84c.21.03.4.02.58-.02Z" fill="#1d1d1b"/>
  </g>
  <path d="m97.42,40.08l.04-31.96h6.1l-.04,26.39h10.55v5.56h-16.66Z" fill="#009fe3"/>
  <path d="m124.17,26.95c0,7.79,5.82,13.57,14.4,13.57,3.02,0,6.17-.93,8.47-2.44l-1.83-5.17c-1.97,1.22-4.42,1.94-6.57,1.94-4.92,0-7.97-3.02-7.97-7.9s3.05-7.9,7.97-7.9c2.15,0,4.34.68,6.28,1.76l1.87-5.17c-2.37-1.4-5.17-2.3-8.22-2.3-8.58,0-14.4,5.78-14.4,13.61Z" fill="#009fe3"/>
  <path d="m130.11,12.66v-4.57h-6.06v7.9h-10.16v-7.9h-6.06v21.85h6.06v-7.9h8.35c1.24-4.14,4.04-7.44,7.87-9.38Z" fill="#009fe3"/>
  <g>
    <g>
      <polygon points="67.42 20.29 67.42 8.11 55.36 8.11 43.5 19.96 43.5 32.03 55.69 32.03 67.42 20.29" fill="#009fe3"/>
      <polygon points="31.71 55.96 31.71 43.78 19.64 43.78 7.79 55.63 7.79 67.7 19.97 67.7 31.71 55.96" fill="#009fe3"/>
      <polygon points="55.19 67.72 67.37 67.72 67.37 55.66 55.52 43.8 43.45 43.8 43.45 55.99 55.19 67.72" fill="#e30613"/>
      <polygon points="19.52 32.01 31.71 32.01 31.71 19.94 19.85 8.09 7.79 8.09 7.79 20.27 19.52 32.01" fill="#e30613"/>
    </g>
    <g>
      <polygon points="24.1 44.77 24.1 23.39 37.12 21.86 38.11 21.85 51.11 23.39 51.11 44.77 38.48 55.37 36.77 55.39 24.1 44.77" fill="#fff"/>
      <path d="m38.05,23.03l11.89,1.41v19.78l-11.89,9.98h-.85s-11.92-9.98-11.92-9.98v-19.78l11.92-1.4h.85m.12-2.37h-.15s-.85.01-.85.01h-.12s-.12.02-.12.02l-11.92,1.4-2.08.24v22.98l.84.71,11.92,9.99.67.56h.87s.85-.02.85-.02h.84s.64-.55.64-.55l11.89-9.98.84-.71v-22.97l-2.08-.25-11.89-1.41-.15-.02h0Z" fill="#fff"/>
    </g>
    <g>
      <polygon points="37.19 23.04 25.27 24.43 25.27 44.21 37.19 54.2 37.19 23.04" fill="#009fe3"/>
      <polygon points="38.05 23.02 49.94 24.43 49.94 44.21 38.05 54.19 38.05 23.02" fill="#e30613"/>
    </g>
    <g>
      <path d="m27.53,29.33c-1,0-1.73-.76-1.73-1.78s.76-1.79,1.76-1.79,1.73.76,1.73,1.79-.76,1.78-1.76,1.78Zm.02-3.04c-.66,0-1.12.54-1.12,1.26s.46,1.26,1.12,1.26,1.11-.54,1.11-1.26-.46-1.26-1.11-1.26Z" fill="#fff"/>
      <path d="m31.63,29.33c-1,0-1.73-.76-1.73-1.78s.76-1.79,1.76-1.79,1.73.76,1.73,1.79-.76,1.78-1.76,1.78Zm.02-3.04c-.66,0-1.12.54-1.12,1.26s.46,1.26,1.12,1.26,1.11-.54,1.11-1.26-.46-1.26-1.11-1.26Z" fill="#fff"/>
      <path d="m34.15,29.28v-3.45h.59v3.45h-.59Z" fill="#fff"/>
      <path d="m35.64,29.28v-3.45h.59v3.45h-.59Z" fill="#fff"/>
      <path d="m27.5,34.05c-1,0-1.73-.76-1.73-1.78s.76-1.79,1.76-1.79,1.73.76,1.73,1.79-.76,1.78-1.76,1.78Zm.02-3.04c-.66,0-1.12.54-1.12,1.26s.46,1.26,1.12,1.26,1.11-.54,1.11-1.26-.46-1.26-1.11-1.26Z" fill="#fff"/>
      <path d="m30.78,33.99v-3.45h.59v3.45h-.59Z" fill="#fff"/>
      <path d="m34.6,34.05c-1,0-1.73-.76-1.73-1.78s.76-1.79,1.76-1.79,1.73.76,1.73,1.79-.76,1.78-1.76,1.78Zm.02-3.04c-.66,0-1.12.54-1.12,1.26s.46,1.26,1.12,1.26,1.11-.54,1.11-1.26-.46-1.26-1.11-1.26Z" fill="#fff"/>
      <path d="m27.33,38.76c-1,0-1.73-.76-1.73-1.78s.76-1.79,1.76-1.79,1.73.76,1.73,1.79-.76,1.78-1.76,1.78Zm.02-3.04c-.66,0-1.12.54-1.12,1.26s.46,1.26,1.12,1.26,1.11-.54,1.11-1.26-.46-1.26-1.11-1.26Z" fill="#fff"/>
      <path d="m30.97,38.76c-1,0-1.73-.76-1.73-1.78s.76-1.79,1.76-1.79,1.73.76,1.73,1.79-.76,1.78-1.76,1.78Zm.02-3.04c-.66,0-1.12.54-1.12,1.26s.46,1.26,1.12,1.26,1.11-.54,1.11-1.26-.46-1.26-1.11-1.26Z" fill="#fff"/>
      <path d="m34.6,38.76c-1,0-1.73-.76-1.73-1.78s.76-1.79,1.76-1.79,1.73.76,1.73,1.79-.76,1.78-1.76,1.78Zm.02-3.04c-.66,0-1.12.54-1.12,1.26s.46,1.26,1.12,1.26,1.11-.54,1.11-1.26-.46-1.26-1.11-1.26Z" fill="#fff"/>
      <path d="m25.94,43.42v-3.45h.59v3.45h-.59Z" fill="#fff"/>
      <path d="m27.42,43.42v-3.45h.59v3.45h-.59Z" fill="#fff"/>
      <path d="m30.5,43.47c-1,0-1.73-.76-1.73-1.78s.76-1.79,1.76-1.79,1.73.76,1.73,1.79-.76,1.78-1.76,1.78Zm.02-3.04c-.66,0-1.12.54-1.12,1.26s.46,1.26,1.12,1.26,1.11-.54,1.11-1.26-.46-1.26-1.11-1.26Z" fill="#fff"/>
      <path d="m34.6,43.47c-1,0-1.73-.76-1.73-1.78s.76-1.79,1.76-1.79,1.73.76,1.73,1.79-.76,1.78-1.76,1.78Zm.02-3.04c-.66,0-1.12.54-1.12,1.26s.46,1.26,1.12,1.26,1.11-.54,1.11-1.26-.46-1.26-1.11-1.26Z" fill="#fff"/>
      <path d="m31.44,48.13v-3.45h.59v3.45h-.59Z" fill="#fff"/>
      <path d="m34.6,48.19c-1,0-1.73-.76-1.73-1.78s.76-1.79,1.76-1.79,1.73.76,1.73,1.79-.76,1.78-1.76,1.78Zm.02-3.04c-.66,0-1.12.54-1.12,1.26s.46,1.26,1.12,1.26,1.11-.54,1.11-1.26-.46-1.26-1.11-1.26Z" fill="#fff"/>
    </g>
  </g>
  <line x1="82.42" y1="8.09" x2="82.42" y2="67.7" fill="#fff" stroke="#1d1d1b" stroke-miterlimit="10"/>
  <rect width="185.32" height="75.64" fill="none"/>
</svg>
