<?xml version="1.0" encoding="UTF-8"?>
<svg id="Ebene_1" data-name="Ebene 1" xmlns="http://www.w3.org/2000/svg" viewBox="0 0 186.91 72.43">
  <path d="m88.47,36.22c1.69-3.37,2.65-7.17,2.65-11.2,0-13.81-11.2-25.01-25.01-25.01-7.57,0-14.35,3.37-18.94,8.69,3.86.08,7.53.95,10.85,2.46,2.38-1.39,5.14-2.19,8.09-2.19,8.87,0,16.05,7.19,16.05,16.06,0,.26,0,.52-.02.78,0,.2-.03.4-.04.59,0,.05,0,.11-.01.16-.02.24-.05.49-.09.73h0c-.49,3.46-2.08,6.56-4.4,8.94,2.32,2.38,3.91,5.48,4.4,8.94h0c.03.24.06.49.09.73,0,.05,0,.1.01.16.02.2.03.39.04.59.01.26.02.52.02.78,0,8.87-7.19,16.05-16.05,16.05-2.98,0-5.76-.81-8.15-2.23-3.32,1.5-6.98,2.37-10.84,2.44,4.59,5.35,11.39,8.75,18.99,8.75,13.81,0,25.01-11.2,25.01-25.01,0-4.03-.96-7.83-2.65-11.2" fill="#e30613"/>
  <path d="m67.47,22.42c-4.48-6.77-12.15-11.24-20.88-11.24-13.81,0-25.01,11.2-25.01,25.01s11.2,25.01,25.01,25.01c8.72,0,16.4-4.47,20.88-11.24-.45.02-.91.04-1.37.04-3.17,0-6.2-.6-9-1.68-2.82,2.44-6.49,3.92-10.51,3.92-8.87,0-16.05-7.19-16.05-16.05s7.19-16.06,16.05-16.06c4.02,0,7.69,1.48,10.5,3.92,2.79-1.08,5.83-1.67,9.01-1.67.46,0,.92.02,1.37.04" fill="#009fe3"/>
  <path d="m107.41,61.65v-.98h-2.28v-4.64h-1.19v5.62h3.47Zm4.36-5.62v3.43c0,.44-.09.76-.26.96-.18.2-.46.31-.85.31s-.69-.1-.86-.3c-.18-.2-.26-.52-.26-.95v-3.44h-1.19v3.62c0,.64.2,1.15.6,1.52.4.37.96.56,1.69.56.48,0,.89-.08,1.24-.25.35-.17.62-.41.81-.72.19-.31.28-.68.28-1.09v-3.64h-1.19Zm5.21,2.79l1.76-2.79h-1.28l-1.19,2.02-1.21-2.02h-1.32l1.75,2.72-1.86,2.9h1.28l1.31-2.13,1.31,2.13h1.36l-1.9-2.83Zm5.85,1.85h-2.05v-1.45h1.9v-.98h-1.9v-1.23h2.05v-.98h-3.24v5.62h3.24v-.98Zm4.64.98l1.45-4.4h.03c-.03.71-.05,1.14-.05,1.31,0,.16,0,.31,0,.43v2.66h1.11v-5.62h-1.62l-1.41,4.3h-.02l-1.33-4.3h-1.62v5.62h1.07v-2.61c0-.3-.02-.9-.07-1.8h.03l1.35,4.41h1.09Zm3.95,0h2.1c.63,0,1.14-.14,1.51-.43.37-.29.55-.69.55-1.2,0-.36-.08-.65-.24-.87-.16-.22-.42-.37-.77-.45v-.04c.26-.04.47-.17.63-.39.16-.22.24-.49.24-.83,0-.49-.18-.86-.54-1.08-.36-.23-.94-.34-1.74-.34h-1.75v5.62Zm1.19-4.64h.63c.34,0,.59.05.75.14.16.09.24.25.24.46,0,.23-.07.4-.22.5-.14.1-.38.15-.7.15h-.69v-1.25Zm.74,2.2c.67,0,1,.23,1,.7,0,.26-.08.45-.23.58-.16.13-.4.19-.73.19h-.78v-1.47h.74Zm7.78-2.52c-.46-.5-1.12-.75-1.98-.75s-1.53.25-1.99.74c-.46.49-.69,1.21-.69,2.14s.23,1.65.69,2.15c.46.5,1.12.75,1.98.75s1.52-.25,1.98-.75c.46-.5.69-1.22.69-2.15s-.23-1.65-.69-2.15m-3.06.72c.24-.32.6-.48,1.07-.48.95,0,1.42.63,1.42,1.9s-.47,1.9-1.43,1.9c-.48,0-.83-.16-1.07-.48-.24-.32-.36-.79-.36-1.42s.12-1.1.36-1.42m8.29-1.38v3.43c0,.44-.09.76-.26.96-.18.2-.46.31-.85.31s-.69-.1-.87-.3c-.17-.2-.26-.52-.26-.95v-3.44h-1.19v3.62c0,.64.2,1.15.6,1.52.4.37.96.56,1.68.56.48,0,.9-.08,1.25-.25s.62-.41.81-.72c.19-.31.28-.68.28-1.09v-3.64h-1.19Zm3.76.98h.36c.38,0,.67.06.85.17.18.11.27.3.27.57s-.09.47-.27.59c-.18.13-.46.19-.83.19h-.38v-1.52Zm.63,2.49l1.34,2.16h1.32c-.26-.37-.81-1.19-1.65-2.45.33-.15.59-.35.77-.61.18-.26.27-.55.27-.88,0-.57-.18-.99-.55-1.27-.37-.28-.93-.42-1.7-.42h-1.64v5.62h1.19v-2.16h.63Zm5.51,0h1.06v1.17c-.26.05-.51.08-.76.08-.48,0-.84-.16-1.09-.48-.25-.32-.38-.79-.38-1.4s.15-1.05.47-1.4c.31-.35.72-.52,1.24-.52.44,0,.87.1,1.28.31l.4-.95c-.53-.23-1.09-.35-1.67-.35-.92,0-1.64.25-2.16.76-.52.51-.78,1.22-.78,2.12s.22,1.65.67,2.15c.45.5,1.1.75,1.94.75.33,0,.66-.02.98-.07.32-.05.66-.13,1.02-.25v-2.91h-2.23v.99Z" fill="#1d1d1b"/>
  <path d="m146.32,25.63c.45.4,1.07.59,1.85.59s1.35-.2,1.79-.6c.43-.4.65-.96.65-1.67s-.21-1.29-.63-1.69c-.42-.4-1.02-.59-1.8-.59-.82,0-1.45.2-1.88.59-.43.4-.65.96-.65,1.69s.23,1.28.68,1.67" fill="#1d1d1b"/>
  <rect x="153.25" y="7.46" width="4.64" height="18.47" fill="#1d1d1b"/>
  <path d="m174.18,25.93v-13.44h-4.64v5.89c0,1.49-.17,2.56-.51,3.19-.34.63-.91.94-1.71.94-.57,0-.98-.23-1.23-.68-.25-.45-.37-1.11-.37-1.99v-7.35h-4.64v8.76c0,1.57.41,2.78,1.23,3.64.82.86,1.97,1.29,3.45,1.29.93,0,1.75-.16,2.44-.49.69-.33,1.23-.8,1.62-1.42h.27l.58,1.67h3.5Z" fill="#1d1d1b"/>
  <path d="m117.33,25.91v-8.77c0-1.57-.42-2.79-1.24-3.65-.83-.86-1.99-1.3-3.48-1.3-.91,0-1.72.16-2.42.48-.7.32-1.25.79-1.65,1.43h-.27l-.58-1.67h-3.51v13.48h4.65v-5.9c0-1.52.17-2.6.52-3.23s.92-.94,1.7-.94c.57,0,.99.23,1.24.68.26.46.39,1.13.39,2.03v7.35h4.65Z" fill="#1d1d1b"/>
  <path d="m130.11,24.96v-3.7c-1.25.79-2.56,1.19-3.93,1.19-1.6,0-2.39-1.08-2.39-3.24,0-1.07.21-1.9.62-2.49.41-.59,1-.88,1.75-.88.52,0,1.01.07,1.49.22.48.15,1,.34,1.56.59l1.37-3.44c-1.38-.68-2.85-1.02-4.41-1.02-2.27,0-4.02.61-5.25,1.84-1.23,1.23-1.84,2.96-1.84,5.2s.57,3.94,1.71,5.13c1.14,1.19,2.81,1.78,5.01,1.78,1.68,0,3.12-.4,4.32-1.19" fill="#1d1d1b"/>
  <path d="m142.41,9.34c-1.02-.71-2.44-1.07-4.24-1.07-1.25,0-2.35.14-3.31.4-.96.27-1.91.72-2.83,1.36l1.95,3.14c1.19-.75,2.34-1.12,3.45-1.12.6,0,1.07.11,1.42.33.35.22.53.56.53,1.02,0,1.22-1.19,1.83-3.58,1.83h-1.1v3.53h1.07c.88,0,1.59.07,2.14.2.55.13.94.32,1.19.58.25.26.37.62.37,1.1,0,.62-.24,1.07-.71,1.36-.47.29-1.22.44-2.26.44-.67,0-1.39-.09-2.18-.28-.79-.19-1.57-.47-2.33-.86v3.9c.93.36,1.79.6,2.59.74.8.14,1.66.2,2.6.2,2.28,0,4.06-.46,5.34-1.39,1.28-.93,1.92-2.2,1.92-3.82,0-2.38-1.45-3.75-4.36-4.12v-.07c1.25-.35,2.2-.91,2.86-1.68.66-.77.99-1.7.99-2.78,0-1.25-.51-2.24-1.53-2.95" fill="#1d1d1b"/>
  <path d="m8.99,25.12c0-8.88,7.19-16.07,16.07-16.07,3.28,0,6.32.98,8.86,2.67,3.06-1.59,6.47-2.63,10.07-2.97C39.39,3.45,32.62.09,25.06.09,11.23.09.02,11.29.02,25.12l-.02,11.48h9v-11.48Z" fill="#e30613"/>
  <path d="m175.49,45.42c-.22.15-.41.36-.57.64h-.03l-.07-.78h-.53v4.23h.64v-2.27c0-.41.12-.76.36-1.04.24-.28.54-.42.88-.42.13,0,.29.02.46.06l.09-.6c-.15-.03-.32-.05-.51-.05-.26,0-.51.07-.73.22m-3.25.64c.18.21.27.52.27.93h-2.21c.04-.39.15-.7.36-.92.2-.22.47-.33.81-.33s.59.11.77.32m.13,3.47c.2-.04.42-.11.64-.21v-.57c-.44.19-.9.29-1.35.29s-.77-.13-1.01-.39c-.24-.26-.36-.64-.38-1.13h2.92v-.41c0-.57-.16-1.03-.46-1.38-.31-.35-.73-.52-1.26-.52-.57,0-1.02.2-1.35.6-.34.4-.5.94-.5,1.63s.18,1.21.54,1.59c.36.38.86.57,1.48.57.29,0,.53-.02.73-.06m-4.44-.67c-.12-.14-.18-.33-.18-.59v-2.49h1.23v-.5h-1.23v-.98h-.37l-.27.9-.61.27v.31h.61v2.52c0,.86.41,1.29,1.23,1.29.11,0,.23-.01.37-.03.13-.02.24-.05.31-.08v-.49c-.06.02-.15.03-.25.05-.11.02-.21.02-.33.02-.21,0-.38-.07-.5-.2m-2.19.66v-2.76c0-.54-.13-.93-.39-1.18-.26-.25-.64-.37-1.15-.37-.29,0-.56.06-.79.17-.24.11-.42.28-.55.49h-.03l-.1-.58h-.52v4.23h.64v-2.22c0-.55.1-.95.31-1.19.21-.24.53-.36.97-.36.33,0,.58.08.74.25.16.17.24.43.24.77v2.74h.64Zm-5.59-3.45c.18.21.27.52.27.93h-2.21c.04-.39.16-.7.36-.92.2-.22.47-.33.81-.33s.59.11.77.32m.13,3.47c.2-.04.42-.11.64-.21v-.57c-.44.19-.9.29-1.35.29s-.77-.13-1.01-.39c-.24-.26-.36-.64-.38-1.13h2.92v-.41c0-.57-.15-1.03-.46-1.38-.31-.35-.73-.52-1.26-.52-.57,0-1.02.2-1.35.6-.34.4-.5.94-.5,1.63s.18,1.21.54,1.59c.36.38.86.57,1.48.57.29,0,.53-.02.73-.06m-3.72-4.86l.28-.56c-.44-.22-.96-.33-1.55-.33-.56,0-1.04.12-1.45.36-.41.24-.73.57-.94,1.01-.22.44-.33.95-.33,1.53,0,.93.23,1.65.68,2.15.45.5,1.09.76,1.93.76.57,0,1.06-.07,1.45-.22v-.58c-.5.14-.95.21-1.35.21-.64,0-1.13-.2-1.48-.6-.35-.4-.52-.97-.52-1.71s.18-1.28.54-1.7c.36-.41.85-.62,1.47-.62.43,0,.85.1,1.28.3m-7.9,1.39c.18.21.27.52.27.93h-2.21c.04-.39.15-.7.36-.92.2-.22.47-.33.81-.33s.59.11.77.32m.13,3.47c.2-.04.42-.11.64-.21v-.57c-.45.19-.9.29-1.35.29s-.77-.13-1.01-.39c-.24-.26-.36-.64-.38-1.13h2.92v-.41c0-.57-.15-1.03-.46-1.38-.31-.35-.73-.52-1.26-.52-.57,0-1.02.2-1.36.6-.34.4-.5.94-.5,1.63s.18,1.21.54,1.59c.36.38.86.57,1.48.57.29,0,.53-.02.73-.06m-3.53-.16v-.57c-.37.15-.73.23-1.08.23-.41,0-.72-.14-.93-.42-.21-.28-.31-.68-.31-1.2,0-1.1.43-1.65,1.29-1.65.13,0,.28.02.44.06.17.04.32.08.46.14l.2-.54c-.12-.06-.28-.11-.48-.15-.2-.04-.41-.07-.61-.07-.63,0-1.12.19-1.46.58-.34.39-.51.93-.51,1.64s.17,1.22.5,1.6c.34.38.81.57,1.42.57.43,0,.79-.07,1.07-.22m-4.08.14v-2.76c0-.54-.13-.93-.39-1.18-.26-.25-.64-.37-1.15-.37-.29,0-.55.06-.79.17-.24.11-.42.28-.55.49h-.03l-.1-.58h-.52v4.23h.64v-2.22c0-.55.1-.95.31-1.19.21-.24.53-.36.97-.36.33,0,.58.08.74.25s.24.43.24.77v2.74h.64Zm-5.59-3.45c.18.21.27.52.27.93h-2.21c.04-.39.16-.7.36-.92.2-.22.47-.33.81-.33s.59.11.77.32m.13,3.47c.2-.04.42-.11.64-.21v-.57c-.45.19-.9.29-1.35.29-.43,0-.77-.13-1.01-.39-.24-.26-.36-.64-.38-1.13h2.92v-.41c0-.57-.15-1.03-.46-1.38-.31-.35-.73-.52-1.26-.52-.57,0-1.02.2-1.35.6-.34.4-.5.94-.5,1.63s.18,1.21.54,1.59c.36.38.86.57,1.48.57.29,0,.53-.02.73-.06m-4.44-.67c-.12-.14-.18-.33-.18-.59v-2.49h1.23v-.5h-1.23v-.98h-.37l-.27.9-.61.27v.31h.61v2.52c0,.86.41,1.29,1.23,1.29.11,0,.23-.01.37-.03.13-.02.24-.05.31-.08v-.49c-.06.02-.15.03-.25.05s-.21.02-.33.02c-.21,0-.38-.07-.5-.2m-2.92-2.79c.18.21.27.52.27.93h-2.21c.04-.39.15-.7.36-.92.2-.22.47-.33.81-.33s.59.11.77.32m.13,3.47c.2-.04.42-.11.64-.21v-.57c-.45.19-.9.29-1.35.29s-.77-.13-1.01-.39c-.24-.26-.36-.64-.38-1.13h2.92v-.41c0-.57-.15-1.03-.46-1.38-.31-.35-.73-.52-1.26-.52-.57,0-1.02.2-1.35.6-.34.4-.5.94-.5,1.63s.18,1.21.54,1.59c.36.38.86.57,1.48.57.28,0,.53-.02.73-.06m-4.62-3.36c.21.28.31.69.31,1.21s-.1.93-.31,1.23c-.21.3-.49.44-.86.44-.44,0-.76-.13-.95-.38-.2-.26-.3-.68-.3-1.28v-.14c0-.52.1-.9.3-1.14.19-.24.51-.36.94-.36.38,0,.67.14.88.42m.51,2.84c.31-.39.46-.93.46-1.62s-.15-1.23-.46-1.61c-.31-.38-.74-.58-1.3-.58-.28,0-.53.05-.75.15-.22.1-.41.27-.58.5h-.03l-.09-.58h-.52v6.14h.64v-1.74c0-.22-.01-.45-.05-.7h.05c.15.21.35.37.57.47.23.1.48.15.75.15.55,0,.98-.19,1.29-.58m-4.58.5v-2.76c0-.54-.12-.93-.36-1.18-.24-.25-.6-.37-1.08-.37-.31,0-.58.07-.82.19-.24.13-.42.3-.55.53h-.03c-.2-.48-.64-.72-1.3-.72-.27,0-.52.06-.74.17-.22.12-.39.28-.51.48h-.03l-.1-.58h-.52v4.23h.64v-2.22c0-.55.09-.94.28-1.18.19-.24.48-.36.88-.36.31,0,.53.08.68.25.15.17.22.42.22.76v2.76h.64v-2.36c0-.48.1-.83.29-1.06.19-.23.48-.34.88-.34.3,0,.53.08.67.25.14.17.22.42.22.76v2.76h.64Zm-10.07-3.35c.21-.27.53-.41.95-.41s.75.14.96.42c.22.28.33.69.33,1.23s-.11.96-.33,1.24c-.22.28-.54.42-.96.42s-.74-.14-.95-.42c-.22-.28-.32-.69-.32-1.24s.11-.96.32-1.23m2.38-.37c-.35-.39-.82-.59-1.41-.59s-1.09.19-1.44.58-.52.92-.52,1.61c0,.45.08.83.24,1.17.16.33.39.59.68.76.29.18.63.27,1.01.27.61,0,1.09-.19,1.44-.58.35-.39.52-.93.52-1.62s-.18-1.21-.52-1.6m-4.32-1.12l.28-.56c-.44-.22-.96-.33-1.55-.33-.56,0-1.04.12-1.45.36-.41.24-.72.57-.94,1.01-.22.44-.33.95-.33,1.53,0,.93.23,1.65.68,2.15.45.5,1.09.76,1.93.76.57,0,1.06-.07,1.45-.22v-.58c-.51.14-.95.21-1.35.21-.64,0-1.14-.2-1.48-.6-.35-.4-.52-.97-.52-1.71s.18-1.28.54-1.7c.36-.41.85-.62,1.47-.62.43,0,.86.1,1.28.3" fill="#1d1d1b"/>
  <path d="m184.65,39.03l-.24.6c-.19.49-.5.74-.94.74-.17,0-.33-.01-.47-.05v.51c.19.04.38.06.58.06.35,0,.65-.1.89-.3.24-.2.45-.54.63-1.01l1.82-4.82h-.69c-.59,1.64-.94,2.62-1.05,2.93-.11.32-.18.54-.21.67h-.03c-.05-.25-.18-.64-.38-1.19l-.93-2.42h-.69l1.71,4.26Zm-2.96-.68c-.12-.14-.18-.33-.18-.59v-2.49h1.23v-.5h-1.23v-.98h-.37l-.27.9-.61.27v.31h.61v2.52c0,.86.41,1.29,1.23,1.29.11,0,.23-.01.37-.03.13-.02.24-.05.31-.08v-.49c-.06.02-.15.04-.25.05-.11.02-.21.03-.33.03-.21,0-.38-.07-.5-.2m-2.82-4.4c.07.07.16.11.27.11s.19-.03.27-.11c.07-.07.11-.18.11-.32s-.04-.25-.11-.32c-.07-.07-.16-.1-.27-.1s-.2.03-.27.1c-.07.07-.11.18-.11.32s.04.25.11.32m.59.83h-.64v4.23h.64v-4.23Zm-2.67.15c-.22.15-.41.36-.57.64h-.03l-.07-.78h-.53v4.23h.64v-2.27c0-.42.12-.76.36-1.04.24-.28.54-.42.88-.42.13,0,.29.02.46.06l.09-.59c-.15-.03-.32-.05-.51-.05-.26,0-.51.08-.73.22m-6.1-.15v2.77c0,.54.13.93.38,1.17.26.24.64.37,1.16.37.3,0,.57-.06.8-.17.23-.11.41-.27.55-.48h.03l.09.57h.53v-4.23h-.64v2.22c0,.55-.1.94-.31,1.19-.2.24-.53.36-.97.36-.33,0-.58-.09-.74-.26-.16-.17-.24-.43-.24-.77v-2.75h-.65Zm-.96,4.09v-.57c-.37.15-.73.23-1.09.23-.41,0-.72-.14-.93-.42-.21-.28-.32-.68-.32-1.2,0-1.1.43-1.65,1.29-1.65.13,0,.28.02.44.06.17.04.32.08.46.14l.2-.54c-.12-.06-.27-.11-.48-.16-.2-.04-.41-.06-.61-.06-.63,0-1.12.19-1.46.58-.34.39-.51.93-.51,1.64s.17,1.22.51,1.6c.34.38.81.57,1.42.57.43,0,.79-.07,1.07-.22m-4.81-3.31c.18.22.27.52.27.93h-2.21c.04-.39.15-.7.36-.92.2-.22.47-.33.81-.33s.59.11.77.32m.13,3.47c.2-.04.42-.11.64-.21v-.57c-.45.19-.9.29-1.35.29s-.77-.13-1.01-.39c-.24-.26-.36-.64-.38-1.13h2.92v-.41c0-.57-.15-1.03-.46-1.38-.31-.35-.73-.52-1.26-.52-.57,0-1.02.2-1.35.6-.34.4-.5.94-.5,1.63s.18,1.21.54,1.59c.36.38.86.57,1.48.57.29,0,.53-.02.73-.06m-3.83-1.87c-.18-.19-.52-.37-1.02-.55-.37-.14-.61-.24-.74-.31-.13-.07-.22-.15-.28-.23-.06-.08-.09-.18-.09-.29,0-.17.08-.3.23-.39.15-.1.38-.14.69-.14.35,0,.73.09,1.15.26l.23-.52c-.43-.19-.88-.28-1.34-.28-.49,0-.87.1-1.15.3-.28.2-.42.47-.42.82,0,.19.04.36.12.5.08.14.21.26.37.37.17.11.45.24.84.38.41.16.69.3.84.41.14.12.21.26.21.42,0,.22-.09.38-.27.49-.18.11-.44.16-.77.16-.22,0-.44-.03-.67-.09-.23-.06-.45-.14-.65-.24v.6c.32.18.75.27,1.31.27.53,0,.94-.11,1.24-.32.29-.21.44-.52.44-.91,0-.28-.09-.51-.26-.7m-4.49-2.23c-.22.15-.41.36-.57.64h-.03l-.07-.78h-.53v4.23h.64v-2.27c0-.42.12-.76.36-1.04.24-.28.54-.42.88-.42.13,0,.29.02.46.06l.09-.59c-.15-.03-.32-.05-.51-.05-.26,0-.51.08-.73.22m-3.25.64c.18.22.27.52.27.93h-2.21c.04-.39.16-.7.36-.92.2-.22.47-.33.81-.33s.59.11.77.32m.13,3.47c.2-.04.42-.11.64-.21v-.57c-.44.19-.9.29-1.35.29s-.77-.13-1.01-.39c-.24-.26-.36-.64-.38-1.13h2.92v-.41c0-.57-.15-1.03-.46-1.38-.31-.35-.73-.52-1.26-.52-.57,0-1.02.2-1.35.6-.34.4-.5.94-.5,1.63s.18,1.21.54,1.59c.36.38.86.57,1.48.57.29,0,.53-.02.73-.06m-4.6-3.37c.19.27.29.68.29,1.23s-.1.95-.29,1.24c-.19.29-.49.43-.88.43-.44,0-.76-.13-.96-.39-.2-.26-.3-.68-.3-1.28s.1-1.02.29-1.27c.19-.25.51-.38.95-.38.4,0,.7.14.9.41m-2.13-.31h-.03c.02-.26.03-.55.03-.88v-1.46h-.64v6.01h.46l.13-.54h.05c.15.21.35.37.57.47.23.1.48.15.76.15.55,0,.98-.19,1.29-.58.31-.39.47-.92.47-1.62s-.15-1.23-.46-1.61-.74-.57-1.3-.57c-.59,0-1.03.21-1.33.63m-3.59,3.69l-.24.6c-.19.49-.5.74-.94.74-.17,0-.33-.01-.47-.05v.51c.19.04.38.06.58.06.35,0,.64-.1.89-.3.24-.2.45-.54.63-1.01l1.82-4.82h-.69c-.59,1.64-.94,2.62-1.05,2.93-.11.32-.18.54-.21.67h-.03c-.05-.25-.18-.64-.38-1.19l-.93-2.42h-.69l1.71,4.26Zm-2.23-4.86l.28-.56c-.44-.22-.96-.32-1.55-.32-.56,0-1.04.12-1.45.35-.41.24-.72.58-.94,1.01-.22.44-.33.95-.33,1.53,0,.93.23,1.65.68,2.15.45.51,1.09.76,1.93.76.57,0,1.06-.07,1.45-.22v-.58c-.5.14-.95.21-1.35.21-.64,0-1.14-.2-1.48-.6-.35-.4-.52-.97-.52-1.71s.18-1.28.54-1.7c.36-.41.85-.62,1.47-.62.43,0,.85.1,1.28.3m-7.21-1.17h-.64v6.01h.64v-6.01Zm-4.48,5.38c-.14-.12-.21-.3-.21-.53,0-.3.11-.51.34-.65.23-.14.59-.22,1.1-.24l.64-.03v.38c0,.39-.11.7-.34.92-.23.22-.54.33-.94.33-.25,0-.45-.06-.59-.18m2.51.63v-2.89c0-.5-.12-.85-.37-1.08-.24-.22-.62-.34-1.12-.34-.25,0-.5.03-.75.1-.25.06-.48.15-.69.27l.2.49c.45-.22.85-.32,1.2-.32.32,0,.54.08.69.24.14.16.22.4.22.74v.26l-.72.02c-1.37.04-2.05.49-2.05,1.34,0,.4.12.71.36.92.24.22.57.33.99.33.31,0,.58-.05.79-.14.21-.09.42-.27.63-.54h.03l.13.6h.48Zm-4.4,0v-2.76c0-.54-.13-.93-.39-1.18-.26-.25-.64-.37-1.15-.37-.29,0-.56.06-.79.17-.24.11-.42.28-.55.49h-.03l-.11-.58h-.52v4.23h.64v-2.22c0-.55.1-.95.31-1.19.21-.24.53-.36.97-.36.33,0,.58.09.74.26.16.17.24.43.24.77v2.74h.64Zm-7.57-3.35c.21-.28.53-.41.95-.41s.75.14.96.42c.22.28.33.69.33,1.23s-.11.96-.33,1.24c-.22.28-.54.42-.96.42s-.74-.14-.95-.43c-.22-.28-.32-.7-.32-1.24s.11-.96.32-1.23m2.38-.37c-.35-.39-.82-.59-1.41-.59s-1.09.19-1.44.58c-.35.39-.52.92-.52,1.61,0,.45.08.84.24,1.17.16.33.39.59.68.77.29.18.63.27,1.01.27.61,0,1.09-.19,1.44-.58.35-.39.52-.93.52-1.62s-.18-1.2-.52-1.6m-5.08-1.34c.07.07.16.11.27.11s.19-.03.27-.11c.07-.07.11-.18.11-.32s-.04-.25-.11-.32c-.07-.07-.16-.1-.27-.1s-.2.03-.27.1c-.07.07-.11.18-.11.32s.04.25.11.32m.59.83h-.64v4.23h.64v-4.23Zm-2.57,3.58c-.12-.14-.18-.33-.18-.59v-2.49h1.23v-.5h-1.23v-.98h-.37l-.27.9-.61.27v.31h.61v2.52c0,.86.41,1.29,1.23,1.29.11,0,.23-.01.36-.03.14-.02.24-.05.31-.08v-.49c-.06.02-.14.04-.25.05-.1.02-.21.03-.33.03-.21,0-.38-.07-.5-.2m-4.7.02c-.14-.12-.21-.3-.21-.53,0-.3.11-.51.34-.65.23-.14.59-.22,1.1-.24l.64-.03v.38c0,.39-.11.7-.34.92-.23.22-.54.33-.94.33-.25,0-.45-.06-.59-.18m2.51.63v-2.89c0-.5-.12-.85-.36-1.08-.24-.22-.62-.34-1.12-.34-.25,0-.5.03-.75.1-.25.06-.48.15-.69.27l.2.49c.45-.22.85-.32,1.2-.32.31,0,.54.08.69.24.14.16.21.4.21.74v.26l-.72.02c-1.37.04-2.05.49-2.05,1.34,0,.4.12.71.36.92.24.22.57.33.99.33.31,0,.58-.05.79-.14.21-.09.42-.27.63-.54h.03l.13.6h.47Zm-4.54-5.65h-.61v3.24c0,.16,0,.43.02.81.02.38.03.6.03.67h-.03l-3.08-4.72h-.74v5.65h.61v-3.21c0-.46-.02-.97-.06-1.53h.03l3.09,4.74h.75v-5.65Z" fill="#1d1d1b"/>
</svg>
