<?xml version="1.0" encoding="UTF-8"?>
<svg id="Layer_1" data-name="Layer 1" xmlns="http://www.w3.org/2000/svg" viewBox="0 0 2092.32 570.26">
  <polygon points="492.87 211.66 539.34 101.6 502.65 20.84 493.15 .14 483.37 21.12 290.26 445.27 309.26 445.27 367.39 445.27 371.3 445.27 386.05 445.27 457.81 289.53 457.66 289.53 492.87 211.66" fill="#09f" stroke-width="0"/>
  <polygon points="574.3 178.55 528.16 289.07 528.36 289.53 527.97 289.53 527.97 289.53 528.11 289.67 525.97 294.32 490.84 378.44 568.88 378.44 570.28 381.76 599.35 445.27 614.71 445.27 618.35 445.27 676.48 445.27 695.48 445.27 574.3 178.55" fill="#e30613" stroke-width="0"/>
  <path d="m2038.58,52.2c-8.45,0-15.29-6.85-15.29-15.29s6.84-15.29,15.29-15.29,15.3,6.86,15.3,15.29-6.84,15.29-15.3,15.29h0Zm-54.08,0c-8.45,0-15.28-6.85-15.28-15.29s6.83-15.29,15.28-15.29,15.29,6.86,15.29,15.29-6.84,15.29-15.29,15.29h0Zm-54.08,0c-8.44,0-15.28-6.85-15.28-15.29s6.84-15.29,15.28-15.29,15.31,6.86,15.31,15.29-6.86,15.29-15.31,15.29h0ZM2079.32,1.04h-543.89c-7.18,0-12.99,5.81-12.99,12.97v58.78h569.88V14.02c0-7.16-5.82-12.97-13-12.97h0Z" fill="#e30613" stroke-width="0"/>
  <path d="m1522.44,348.56c0,7.19,5.81,13,12.99,13h162.86l3.74-2.73c-23.52-64.95-3.05-138.9,52.75-182.39,28.68-22.35,63.01-34.16,99.3-34.16,50.26,0,96.76,22.69,127.62,62.28,35.98,46.16,42.9,105.89,23.53,157h74.09c7.18,0,13-5.81,13-13V97.37h-569.88v251.19h0Z" fill="#09f" stroke-width="0"/>
  <path d="m1921.31,390.11c-47.51,37.04-116.27,28.5-153.28-18.99-37.03-47.51-28.5-116.27,19-153.28,47.5-37.01,116.25-28.5,153.28,18.99,37.01,47.49,28.49,116.27-19,153.28h0Zm-151.43-194.27c-52.96,41.27-67.35,113.69-37.47,171.22l-194.14,141.99c-14.8,10.81-17.71,31.71-6.45,46.17,11.27,14.45,32.26,16.72,46.36,5.02l185.1-153.59c48.48,43.03,122.22,46.75,175.19,5.48,59.73-46.57,70.41-132.71,23.85-192.46-46.55-59.73-132.71-70.41-192.43-23.83h0Z" fill="#878786" stroke-width="0"/>
  <text transform="translate(-3.86 559.44) scale(.99 1)" fill="#878786" font-family="CenturyGothic, &apos;Century Gothic&apos;" font-size="89.62"><tspan x="0" y="0">Data Accountability from A to Zen </tspan></text>
  <path d="m251.51,65.59c43.63,43.62,65.45,96,65.45,157.12s-21.82,113.72-65.45,157.26c-43.63,43.54-96.01,65.31-157.12,65.31H5.2V.14h89.19c61.12,0,113.49,21.82,157.12,65.45Zm-62.96,251.42c26.14-26.05,39.21-57.48,39.21-94.3s-13.07-68.07-39.21-94.3c-26.14-26.24-57.53-39.35-94.16-39.35v267.02c36.64,0,68.02-13.02,94.16-39.07Z" fill="#09f" stroke-width="0"/>
  <path d="m1456.13.14l-170.23,355.63h170.23v89.12h-311.5l170.23-355.91h-170.23V.14h311.5Z" fill="#09f" stroke-width="0"/>
  <polygon points="920.06 211.52 966.53 101.46 929.84 20.7 920.34 0 910.56 20.98 717.45 445.13 736.45 445.13 794.58 445.13 798.49 445.13 813.24 445.13 885 289.39 884.85 289.39 920.06 211.52" fill="#09f" stroke-width="0"/>
  <polygon points="1001.49 178.41 955.34 288.93 955.55 289.39 955.16 289.39 955.16 289.39 955.3 289.53 953.15 294.18 918.03 378.3 996.07 378.3 997.47 381.62 1026.54 445.13 1041.9 445.13 1045.54 445.13 1103.67 445.13 1122.67 445.13 1001.49 178.41" fill="#09f" stroke-width="0"/>
  <g>
    <polygon points="1785.84 235.65 1812.69 235.65 1839.54 262.5 1839.54 289.36 1812.69 289.36 1785.84 262.5 1785.84 235.65" fill="#e30613" stroke-width="0"/>
    <polygon points="1920.1 235.65 1893.25 235.65 1866.4 262.5 1866.4 289.36 1893.25 289.36 1920.1 262.5 1920.1 235.65" fill="#009fe3" stroke-width="0"/>
    <polygon points="1866.4 316.21 1893.25 316.21 1920.1 343.06 1920.1 369.92 1893.25 369.92 1866.4 343.06 1866.4 316.21" fill="#e30613" stroke-width="0"/>
    <polygon points="1839.54 316.21 1812.69 316.21 1785.84 343.06 1785.84 369.92 1812.69 369.92 1839.54 343.06 1839.54 316.21" fill="#009fe3" stroke-width="0"/>
  </g>
</svg>
